	.include "MPlayDef.s"

	.section .rodata

	@********************** Track  1 **********************@

	.align 2
	.global song062_1
song062_1:	@ 0x0856FC34
	.byte	KEYSH	, 0
	.byte	TEMPO	, 35
	.byte	VOICE	, 49
	.byte	VOL	, v023
	.byte	PAN	, c_v
	.byte		N48	, An3, v112
	.byte	W01
	.byte	VOL	, v023
	.byte	W01
	.byte		v024
	.byte	W01
	.byte		v025
	.byte	W01
	.byte		v025
	.byte	W01
	.byte		v026
	.byte	W01
	.byte		v026
	.byte	W01
	.byte		v027
	.byte	W01
	.byte		v027
	.byte	W01
	.byte		v028
	.byte	W01
	.byte		v029
	.byte	W01
	.byte		v029
	.byte	W01
	.byte		v030
	.byte	W01
	.byte		v030
	.byte	W01
	.byte		v031
	.byte	W01
	.byte		v032
	.byte	W01
	.byte		v032
	.byte	W01
	.byte		v032
	.byte	W01
	.byte		v033
	.byte	W01
	.byte		v034
	.byte	W01
	.byte		v034
	.byte	W01
	.byte		v035
	.byte	W01
	.byte		v035
	.byte	W01
	.byte		v036
	.byte	W01
	.byte		v037
	.byte	W01
	.byte		v037
	.byte	W01
	.byte		v038
	.byte	W01
	.byte		v038
	.byte	W01
	.byte		v039
	.byte	W01
	.byte		v039
	.byte	W01
	.byte		v040
	.byte	W01
	.byte		v040
	.byte	W01
	.byte		v041
	.byte	W16
	.byte		N24	, Bn3, v104
	.byte	W24
	.byte			Cn4, v112
	.byte	W16
	.byte	VOL	, v041
	.byte	W01
	.byte		v040
	.byte	W01
	.byte		v038
	.byte	W01
	.byte		v036
	.byte	W01
	.byte		v034
	.byte	W01
	.byte		v033
	.byte	W01
	.byte		v031
	.byte	W01
	.byte		v029
	.byte	W01
	.byte		v028
	.byte		N48	, Bn3
	.byte	W01
	.byte	VOL	, v029
	.byte	W01
	.byte		v029
	.byte	W01
	.byte		v030
	.byte	W01
	.byte		v030
	.byte	W01
	.byte		v030
	.byte	W01
	.byte		v031
	.byte	W01
	.byte		v031
	.byte	W01
	.byte		v032
	.byte	W01
	.byte		v032
	.byte	W01
	.byte		v033
	.byte	W01
	.byte		v033
	.byte	W01
	.byte		v034
	.byte	W01
	.byte		v034
	.byte	W01
	.byte		v035
	.byte	W01
	.byte		v035
	.byte	W01
	.byte		v035
	.byte	W01
	.byte		v036
	.byte	W01
	.byte		v037
	.byte	W01
	.byte		v037
	.byte	W01
	.byte		v037
	.byte	W01
	.byte		v038
	.byte	W01
	.byte		v038
	.byte	W01
	.byte		v039
	.byte	W01
	.byte		v039
	.byte	W01
	.byte		v040
	.byte	W01
	.byte		v040
	.byte	W01
	.byte		v041
	.byte	W01
	.byte		v041
	.byte	W01
	.byte		v042
	.byte	W01
	.byte		v042
	.byte	W01
	.byte		v041
	.byte	W01
	.byte		v041
	.byte	W01
	.byte		v040
	.byte	W01
	.byte		v039
	.byte	W01
	.byte		v039
	.byte	W01
	.byte		v038
	.byte	W01
	.byte		v037
	.byte	W01
	.byte		v037
	.byte	W01
	.byte		v036
	.byte	W01
	.byte		v035
	.byte	W01
	.byte		v035
	.byte	W01
	.byte		v034
	.byte	W01
	.byte		v033
	.byte	W01
	.byte		v032
	.byte	W01
	.byte		v032
	.byte	W01
	.byte		v031
	.byte	W01
	.byte		v030
	.byte	W01
	.byte		N48	, Gs3, v108
	.byte	W01
	.byte	VOL	, v030
	.byte	W01
	.byte		v031
	.byte	W02
	.byte		v031
	.byte	W01
	.byte		v032
	.byte	W01
	.byte		v032
	.byte	W01
	.byte		v032
	.byte	W01
	.byte		v033
	.byte	W01
	.byte		v033
	.byte	W01
	.byte		v034
	.byte	W01
	.byte		v034
	.byte	W01
	.byte		v035
	.byte	W01
	.byte		v035
	.byte	W01
	.byte		v035
	.byte	W01
	.byte		v036
	.byte	W01
	.byte		v036
	.byte	W01
	.byte		v037
	.byte	W02
	.byte		v037
	.byte	W01
	.byte		v037
	.byte	W01
	.byte		v038
	.byte	W01
	.byte		v038
	.byte	W01
	.byte		v039
	.byte	W01
	.byte		v039
	.byte	W01
	.byte		v040
	.byte	W01
	.byte		v040
	.byte	W01
	.byte		v040
	.byte	W01
	.byte		v041
	.byte	W01
	.byte		v041
	.byte	W01
	.byte		v042
	.byte	W01
	.byte		v042
	.byte	W01
	.byte		v041
	.byte	W01
	.byte		v040
	.byte	W01
	.byte		v040
	.byte	W01
	.byte		v039
	.byte	W01
	.byte		v038
	.byte	W01
	.byte		v037
	.byte	W01
	.byte		v036
	.byte	W01
	.byte		v035
	.byte	W01
	.byte		v035
	.byte	W01
	.byte		v034
	.byte	W01
	.byte		v033
	.byte	W01
	.byte		v032
	.byte	W01
	.byte		v032
	.byte	W01
	.byte		v031
	.byte	W01
	.byte		v030
	.byte	W01
	.byte		v029
	.byte	W01
	.byte		v029
	.byte		N48	, Gn3, v104
	.byte	W02
	.byte	VOL	, v029
	.byte	W01
	.byte		v030
	.byte	W01
	.byte		v030
	.byte	W02
	.byte		v030
	.byte	W01
	.byte		v031
	.byte	W01
	.byte		v031
	.byte	W01
	.byte		v032
	.byte	W01
	.byte		v032
	.byte	W02
	.byte		v032
	.byte	W01
	.byte		v033
	.byte	W01
	.byte		v033
	.byte	W01
	.byte		v034
	.byte	W01
	.byte		v034
	.byte	W02
	.byte		v035
	.byte	W01
	.byte		v035
	.byte	W01
	.byte		v035
	.byte	W01
	.byte		v036
	.byte	W01
	.byte		v036
	.byte	W02
	.byte		v037
	.byte	W01
	.byte		v037
	.byte	W01
	.byte		v037
	.byte	W01
	.byte		v038
	.byte	W01
	.byte		v038
	.byte	W02
	.byte		v039
	.byte	W01
	.byte		v039
	.byte	W01
	.byte		v040
	.byte	W01
	.byte		v040
	.byte	W01
	.byte		v040
	.byte	W02
	.byte		v041
	.byte	W01
	.byte		v041
	.byte	W01
	.byte		v042
	.byte	W01
	.byte		v042
	.byte	W09
	.byte		N24	, An3
	.byte	W24
	.byte			Bn3, v112
	.byte	W16
	.byte	VOL	, v041
	.byte	W01
	.byte		v040
	.byte	W01
	.byte		v038
	.byte	W01
	.byte		v037
	.byte	W01
	.byte		v036
	.byte	W01
	.byte		v034
	.byte	W01
	.byte		v032
	.byte	W01
	.byte		v032
	.byte	W01
	.byte		v031
	.byte		N48	, An3, v108
	.byte	W02
	.byte	VOL	, v031
	.byte	W02
	.byte		v032
	.byte	W01
	.byte		v032
	.byte	W01
	.byte		v032
	.byte	W02
	.byte		v033
	.byte	W01
	.byte		v033
	.byte	W01
	.byte		v034
	.byte	W02
	.byte		v034
	.byte	W01
	.byte		v035
	.byte	W01
	.byte		v035
	.byte	W02
	.byte		v035
	.byte	W01
	.byte		v036
	.byte	W01
	.byte		v036
	.byte	W02
	.byte		v037
	.byte	W01
	.byte		v037
	.byte	W01
	.byte		v037
	.byte	W02
	.byte		v038
	.byte	W01
	.byte		v038
	.byte	W02
	.byte		v039
	.byte	W01
	.byte		v039
	.byte	W01
	.byte		v040
	.byte	W02
	.byte		v040
	.byte	W02
	.byte		v040
	.byte	W01
	.byte		v040
	.byte	W01
	.byte		v039
	.byte	W01
	.byte		v039
	.byte	W01
	.byte		v038
	.byte	W01
	.byte		v038
	.byte	W01
	.byte		v037
	.byte	W01
	.byte		v037
	.byte	W01
	.byte		v036
	.byte	W01
	.byte		v036
	.byte	W01
	.byte		v035
	.byte	W01
	.byte		v035
	.byte	W01
	.byte		v035
	.byte	W01
	.byte		v034
	.byte	W01
	.byte		v034
	.byte	W01
	.byte		v033
	.byte		N48	, Fs3, v100
	.byte	W01
	.byte	VOL	, v034
	.byte	W01
	.byte		v034
	.byte	W02
	.byte		v035
	.byte	W01
	.byte		v035
	.byte	W02
	.byte		v035
	.byte	W01
	.byte		v036
	.byte	W01
	.byte		v036
	.byte	W02
	.byte		v037
	.byte	W01
	.byte		v037
	.byte	W02
	.byte		v037
	.byte	W01
	.byte		v038
	.byte	W01
	.byte		v038
	.byte	W02
	.byte		v039
	.byte	W01
	.byte		v039
	.byte	W02
	.byte		v040
	.byte	W01
	.byte		v040
	.byte	W01
	.byte		v040
	.byte	W02
	.byte		v041
	.byte	W01
	.byte		v041
	.byte	W02
	.byte		v042
	.byte	W01
	.byte		v042
	.byte	W02
	.byte		v042
	.byte	W01
	.byte		v041
	.byte	W01
	.byte		v041
	.byte	W01
	.byte		v040
	.byte	W01
	.byte		v040
	.byte	W01
	.byte		v039
	.byte	W01
	.byte		v039
	.byte	W01
	.byte		v038
	.byte	W01
	.byte		v038
	.byte	W01
	.byte		v037
	.byte	W01
	.byte		v037
	.byte	W01
	.byte		v037
	.byte	W01
	.byte		v036
	.byte	W01
	.byte		v036
	.byte	W01
	.byte		v035
	.byte	W01
	.byte		v035
	.byte	W01
	.byte		v034
	.byte	W01
	.byte		v034
	.byte		N48	, Bn3, v096
	.byte	W02
	.byte	VOL	, v034
	.byte	W02
	.byte		v035
	.byte	W01
	.byte		v035
	.byte	W02
	.byte		v035
	.byte	W01
	.byte		v036
	.byte	W01
	.byte		v036
	.byte	W02
	.byte		v037
	.byte	W01
	.byte		v037
	.byte	W02
	.byte		v037
	.byte	W01
	.byte		v038
	.byte	W02
	.byte		v038
	.byte	W01
	.byte		v039
	.byte	W01
	.byte		v039
	.byte	W02
	.byte		v040
	.byte	W01
	.byte		v040
	.byte	W02
	.byte		v040
	.byte	W01
	.byte		v041
	.byte	W23
	.byte		N24	, An3, v092
	.byte	W24
	.byte			Cn4, v100
	.byte	W17
	.byte	VOL	, v041
	.byte	W01
	.byte		v040
	.byte	W01
	.byte		v037
	.byte	W01
	.byte		v036
	.byte	W01
	.byte		v034
	.byte	W01
	.byte		v032
	.byte	W01
	.byte		v031
	.byte	W01
	.byte		v030
	.byte		N96	, Cn4, v112
	.byte	W03
	.byte	VOL	, v031
	.byte	W02
	.byte		v031
	.byte	W01
	.byte		v032
	.byte	W02
	.byte		v032
	.byte	W02
	.byte		v032
	.byte	W01
	.byte		v033
	.byte	W02
	.byte		v033
	.byte	W02
	.byte		v034
	.byte	W01
	.byte		v034
	.byte	W02
	.byte		v035
	.byte	W02
	.byte		v035
	.byte	W01
	.byte		v035
	.byte	W02
	.byte		v036
	.byte	W02
	.byte		v036
	.byte	W01
	.byte		v037
	.byte	W02
	.byte		v037
	.byte	W02
	.byte		v037
	.byte	W01
	.byte		v038
	.byte	W02
	.byte		v038
	.byte	W02
	.byte		v039
	.byte	W01
	.byte		v039
	.byte	W02
	.byte		v040
	.byte	W02
	.byte		v040
	.byte	W01
	.byte		v040
	.byte	W02
	.byte		v041
	.byte	W02
	.byte		v041
	.byte	W01
	.byte		v042
	.byte	W02
	.byte		v042
	.byte	W02
	.byte		v042
	.byte	W01
	.byte		v043
	.byte	W02
	.byte		v043
	.byte	W02
	.byte		v044
	.byte	W01
	.byte		v044
	.byte	W02
	.byte		v045
	.byte	W02
	.byte		v045
	.byte	W01
	.byte		v045
	.byte	W02
	.byte		v046
	.byte	W02
	.byte		v046
	.byte	W02
	.byte		v047
	.byte	W01
	.byte		v047
	.byte	W02
	.byte		v047
	.byte	W01
	.byte		v048
	.byte	W01
	.byte		v047
	.byte	W01
	.byte		v047
	.byte	W01
	.byte		v046
	.byte	W01
	.byte		v045
	.byte	W01
	.byte		v045
	.byte	W01
	.byte		v044
	.byte	W01
	.byte		v044
	.byte	W01
	.byte		v043
	.byte	W01
	.byte		v042
	.byte	W01
	.byte		v042
	.byte	W01
	.byte		v041
	.byte	W01
	.byte		v040
	.byte	W01
	.byte		v040
	.byte	W01
	.byte		v039
	.byte	W01
	.byte		v039
	.byte	W01
	.byte		v038
	.byte	W01
	.byte		v037
	.byte	W01
	.byte		v037
	.byte	W01
	.byte		v036
	.byte	W01
	.byte		v036
	.byte	W01
	.byte		v035
	.byte	W01
	.byte		v035
	.byte	W01
	.byte		v034
	.byte	W01
	.byte		v033
	.byte	W01
	.byte	TEMPO	, 33
	.byte		v033
	.byte		TIE	, Bn3, v104
	.byte	W05
	.byte	VOL	, v033
	.byte	W03
	.byte		v034
	.byte	W03
	.byte		v034
	.byte	W02
	.byte		v035
	.byte	W03
	.byte		v035
	.byte	W03
	.byte		v035
	.byte	W03
	.byte		v036
	.byte	W02
	.byte		v036
	.byte	W03
	.byte		v037
	.byte	W03
	.byte		v037
	.byte	W03
	.byte		v037
	.byte	W03
	.byte		v038
	.byte	W02
	.byte		v038
	.byte	W03
	.byte		v039
	.byte	W03
	.byte		v039
	.byte	W03
	.byte		v040
	.byte	W01
	.byte	TEMPO	, 31
	.byte	W01
	.byte		v040
	.byte	W03
	.byte		v040
	.byte	W03
	.byte		v041
	.byte	W03
	.byte		v041
	.byte	W03
	.byte		v042
	.byte	W32
	.byte	W03
	.byte	TEMPO	, 30
	.byte	W72
	.byte		v042
	.byte	W01
	.byte		v042
	.byte	W01
	.byte		v041
	.byte	W01
	.byte		v040
	.byte	W01
	.byte		v040
	.byte	W01
	.byte		v039
	.byte	W01
	.byte		v039
	.byte	W01
	.byte		v038
	.byte	W01
	.byte		v037
	.byte	W01
	.byte		v037
	.byte	W01
	.byte		v036
	.byte	W01
	.byte		v036
	.byte	W01
	.byte		v035
	.byte	W01
	.byte		v035
	.byte	W01
	.byte		v034
	.byte	W01
	.byte		v033
	.byte	W01
	.byte		v033
	.byte	W01
	.byte		v032
	.byte	W01
	.byte		v032
	.byte	W01
	.byte		v031
	.byte	W01
	.byte		v030
	.byte	W01
	.byte		v030
	.byte	W01
	.byte		v029
	.byte	W01
	.byte		v029
	.byte	W01
	.byte		EOT	
	.byte	TEMPO	, 28
	.byte	VOL	, v028
	.byte		TIE	, Bn3, v088
	.byte	W03
	.byte	VOL	, v029
	.byte	W02
	.byte		v029
	.byte	W02
	.byte		v030
	.byte	W02
	.byte		v030
	.byte	W02
	.byte		v030
	.byte	W02
	.byte		v031
	.byte	W02
	.byte		v031
	.byte	W01
	.byte		v032
	.byte	W02
	.byte		v032
	.byte	W02
	.byte		v032
	.byte	W02
	.byte		v033
	.byte	W02
	.byte		v033
	.byte	W02
	.byte		v034
	.byte	W02
	.byte		v034
	.byte	W02
	.byte		v035
	.byte	W01
	.byte		v035
	.byte	W02
	.byte		v035
	.byte	W02
	.byte		v036
	.byte	W02
	.byte		v036
	.byte	W02
	.byte		v037
	.byte	W02
	.byte		v037
	.byte	W02
	.byte		v037
	.byte	W02
	.byte		v038
	.byte	W01
	.byte		v038
	.byte	W02
	.byte		v039
	.byte	W02
	.byte		v039
	.byte	W02
	.byte		v040
	.byte	W02
	.byte		v040
	.byte	W02
	.byte		v040
	.byte	W02
	.byte		v041
	.byte	W02
	.byte		v041
	.byte	W01
	.byte		v042
	.byte	W02
	.byte		v042
	.byte	W02
	.byte		v042
	.byte	W02
	.byte		v043
	.byte	W02
	.byte		v043
	.byte	W02
	.byte		v044
	.byte	W02
	.byte		v044
	.byte	W02
	.byte		v045
	.byte	W01
	.byte		v045
	.byte	W02
	.byte		v045
	.byte	W02
	.byte		v046
	.byte	W02
	.byte		v046
	.byte	W02
	.byte		v047
	.byte	W02
	.byte		v047
	.byte	W01
	.byte		v047
	.byte	W01
	.byte		v047
	.byte	W02
	.byte		v046
	.byte	W01
	.byte		v045
	.byte	W01
	.byte		v045
	.byte	W01
	.byte		v045
	.byte	W01
	.byte		v044
	.byte	W01
	.byte		v043
	.byte	W01
	.byte		v043
	.byte	W01
	.byte		v042
	.byte	W01
	.byte		v042
	.byte	W01
	.byte		v041
	.byte	W01
	.byte		v040
	.byte	W01
	.byte		v040
	.byte	W01
	.byte		v039
	.byte	W01
	.byte		v038
	.byte	W01
	.byte		v037
	.byte	W01
	.byte		v037
	.byte	W01
	.byte		v036
	.byte	W01
	.byte		v035
	.byte	W01
	.byte		v034
	.byte	W01
	.byte		v033
	.byte	W01
	.byte		v032
	.byte	W01
	.byte		v032
	.byte	W01
	.byte		v030
	.byte	W01
	.byte		v030
	.byte	W01
	.byte		v028
	.byte	W01
	.byte		v027
	.byte	W01
	.byte		v026
	.byte	W01
	.byte		v025
	.byte	W01
	.byte		v024
	.byte	W01
	.byte		v022
	.byte	W01
	.byte		v021
	.byte	W01
	.byte		v020
	.byte	W01
	.byte		v018
	.byte	W01
	.byte		v017
	.byte	W01
	.byte		v015
	.byte	W01
	.byte		v013
	.byte	W01
	.byte		v011
	.byte	W01
	.byte		v009
	.byte	W01
	.byte		v007
	.byte	W01
	.byte		v005
	.byte	W01
	.byte		v002
	.byte	W01
	.byte		v001
	.byte	W01
	.byte		v000
	.byte	W12
	.byte		EOT	
	.byte	FINE

	@********************** Track  2 **********************@

	.global song062_2
song062_2:	@ 0x0857004D
	.byte	KEYSH	, 0
	.byte	VOICE	, 51
	.byte	VOL	, v044
	.byte	PAN	, c_v
	.byte		N96	, An2, v116
	.byte	W96
	.byte			Gs2
	.byte	W96
	.byte			Gn2, v108
	.byte	W96
	.byte			Fs2
	.byte	W96
	.byte			Fn2, v116
	.byte	W96
	.byte			Cn3
	.byte	W96
	.byte			En2
	.byte	W96
	.byte			En2, v104
	.byte	W96
	.byte		TIE	, An2, v088
	.byte	W92
	.byte	W01
	.byte	VOL	, v044
	.byte	W01
	.byte		v044
	.byte	W01
	.byte		v042
	.byte	W01
	.byte		v042
	.byte	W01
	.byte		v041
	.byte	W01
	.byte		v040
	.byte	W01
	.byte		v040
	.byte	W01
	.byte		v039
	.byte	W01
	.byte		v038
	.byte	W01
	.byte		v037
	.byte	W01
	.byte		v036
	.byte	W01
	.byte		v035
	.byte	W01
	.byte		v034
	.byte	W01
	.byte		v033
	.byte	W01
	.byte		v032
	.byte	W01
	.byte		v031
	.byte	W01
	.byte		v030
	.byte	W01
	.byte		v029
	.byte	W01
	.byte		v028
	.byte	W01
	.byte		v027
	.byte	W01
	.byte		v026
	.byte	W01
	.byte		v025
	.byte	W01
	.byte		v024
	.byte	W01
	.byte		v022
	.byte	W01
	.byte		v021
	.byte	W01
	.byte		v020
	.byte	W01
	.byte		v019
	.byte	W01
	.byte		v017
	.byte	W01
	.byte		v016
	.byte	W01
	.byte		v015
	.byte	W01
	.byte		v013
	.byte	W01
	.byte		v012
	.byte	W01
	.byte		v010
	.byte	W01
	.byte		v008
	.byte	W01
	.byte		v007
	.byte	W01
	.byte		v005
	.byte	W01
	.byte		v003
	.byte	W01
	.byte		v002
	.byte	W01
	.byte		v000
	.byte	W01
	.byte		v000
	.byte	W12
	.byte		EOT	
	.byte	FINE

	@********************** Track  3 **********************@

	.global song062_3
song062_3:	@ 0x085700C2
	.byte	KEYSH	, 0
	.byte	VOICE	, 6
	.byte	VOL	, v025
	.byte	PAN	, c_v-29
	.byte		N12	, En3, v096
	.byte	W12
	.byte			An2, v092
	.byte	W12
	.byte			Cn3, v096
	.byte	W12
	.byte			An2, v092
	.byte	W12
	.byte			En3, v096
	.byte	W12
	.byte			An2, v092
	.byte	W12
	.byte			Cn3, v096
	.byte	W12
	.byte			An2, v092
	.byte	W12
	.byte			En3, v096
	.byte	W12
	.byte			Gs2, v092
	.byte	W12
	.byte			Bn2, v096
	.byte	W12
	.byte			Gs2, v092
	.byte	W12
	.byte			En3, v096
	.byte	W12
	.byte			Gs2, v092
	.byte	W12
	.byte			Bn2, v096
	.byte	W12
	.byte			Gs2, v092
	.byte	W12
	.byte			Dn3, v096
	.byte	W12
	.byte			Gn2, v092
	.byte	W12
	.byte			Bn2, v096
	.byte	W12
	.byte			Gn2, v092
	.byte	W12
	.byte			Dn3, v096
	.byte	W12
	.byte			Gn2, v092
	.byte	W12
	.byte			Bn2, v096
	.byte	W12
	.byte			Gn2, v092
	.byte	W12
	.byte			Dn3, v096
	.byte	W12
	.byte			Fs2, v092
	.byte	W12
	.byte			An2, v096
	.byte	W12
	.byte			Fs2, v092
	.byte	W12
	.byte			Dn3, v096
	.byte	W12
	.byte			Fs2, v092
	.byte	W12
	.byte			An2, v096
	.byte	W12
	.byte			Fs2, v092
	.byte	W12
	.byte			Cn3, v096
	.byte	W12
	.byte			Fn2, v092
	.byte	W12
	.byte			An2, v096
	.byte	W12
	.byte			Fn2, v092
	.byte	W12
	.byte			Cn3, v096
	.byte	W12
	.byte			Fn2, v092
	.byte	W12
	.byte			An2, v096
	.byte	W12
	.byte			Fn2, v092
	.byte	W12
	.byte			Cn3, v096
	.byte	W12
	.byte			En2, v092
	.byte	W12
	.byte			Gn2, v096
	.byte	W12
	.byte			En2, v092
	.byte	W12
	.byte			Cn3, v096
	.byte	W12
	.byte			En2, v092
	.byte	W12
	.byte			Gn2, v096
	.byte	W12
	.byte			En2, v092
	.byte	W12
	.byte			Bn2, v096
	.byte	W12
	.byte			En2, v092
	.byte	W12
	.byte			An2, v096
	.byte	W12
	.byte			En2, v092
	.byte	W12
	.byte			Bn2, v096
	.byte	W12
	.byte			En2, v092
	.byte	W12
	.byte			An2, v096
	.byte	W12
	.byte			En2, v092
	.byte	W12
	.byte			Bn2
	.byte	W12
	.byte			En2, v084
	.byte	W12
	.byte			Gs2, v088
	.byte	W12
	.byte			En2, v084
	.byte	W12
	.byte			Bn2, v092
	.byte	W12
	.byte			En2, v080
	.byte	W12
	.byte			Gs2, v084
	.byte	W12
	.byte			En2, v080
	.byte	W12
	.byte	W96
	.byte	FINE

	@********************** Track  4 **********************@

	.global song062_4
song062_4:	@ 0x0857018C
	.byte	KEYSH	, 0
	.byte	VOICE	, 48
	.byte	VOL	, v015
	.byte	PAN	, c_v-24
	.byte		N96	, En3, v088
	.byte	W01
	.byte	VOL	, v016
	.byte	W01
	.byte		v016
	.byte	W01
	.byte		v017
	.byte	W01
	.byte		v017
	.byte	W01
	.byte		v018
	.byte	W01
	.byte		v019
	.byte	W01
	.byte		v020
	.byte	W01
	.byte		v020
	.byte	W01
	.byte		v021
	.byte	W01
	.byte		v022
	.byte	W01
	.byte		v022
	.byte	W01
	.byte		v023
	.byte	W01
	.byte		v024
	.byte	W01
	.byte		v024
	.byte	W01
	.byte		v025
	.byte	W01
	.byte		v026
	.byte	W01
	.byte		v026
	.byte	W01
	.byte		v027
	.byte	W01
	.byte		v027
	.byte	W01
	.byte		v028
	.byte	W01
	.byte		v029
	.byte	W01
	.byte		v030
	.byte	W01
	.byte		v030
	.byte	W01
	.byte		v031
	.byte	W01
	.byte		v032
	.byte	W01
	.byte		v032
	.byte	W01
	.byte		v033
	.byte	W01
	.byte		v034
	.byte	W01
	.byte		v034
	.byte	W01
	.byte		v035
	.byte	W01
	.byte		v036
	.byte	W02
	.byte		v037
	.byte	W01
	.byte		v037
	.byte	W01
	.byte		v038
	.byte	W01
	.byte		v039
	.byte	W01
	.byte		v039
	.byte	W01
	.byte		v040
	.byte	W01
	.byte		v040
	.byte	W01
	.byte		v042
	.byte	W56
	.byte		v014
	.byte		N96	, En3, v096
	.byte	W01
	.byte	VOL	, v015
	.byte	W01
	.byte		v015
	.byte	W01
	.byte		v016
	.byte	W01
	.byte		v016
	.byte	W01
	.byte		v017
	.byte	W01
	.byte		v018
	.byte	W01
	.byte		v018
	.byte	W01
	.byte		v019
	.byte	W01
	.byte		v020
	.byte	W01
	.byte		v020
	.byte	W01
	.byte		v021
	.byte	W01
	.byte		v022
	.byte	W01
	.byte		v022
	.byte	W01
	.byte		v023
	.byte	W01
	.byte		v024
	.byte	W01
	.byte		v025
	.byte	W01
	.byte		v025
	.byte	W01
	.byte		v026
	.byte	W01
	.byte		v026
	.byte	W01
	.byte		v027
	.byte	W01
	.byte		v027
	.byte	W01
	.byte		v028
	.byte	W01
	.byte		v029
	.byte	W01
	.byte		v029
	.byte	W01
	.byte		v030
	.byte	W01
	.byte		v031
	.byte	W01
	.byte		v031
	.byte	W01
	.byte		v032
	.byte	W01
	.byte		v032
	.byte	W01
	.byte		v033
	.byte	W01
	.byte		v034
	.byte	W01
	.byte		v035
	.byte	W01
	.byte		v035
	.byte	W01
	.byte		v036
	.byte	W01
	.byte		v037
	.byte	W01
	.byte		v037
	.byte	W01
	.byte		v038
	.byte	W01
	.byte		v039
	.byte	W01
	.byte		v039
	.byte	W01
	.byte		v040
	.byte	W01
	.byte		v040
	.byte	W01
	.byte		v041
	.byte	W01
	.byte		v042
	.byte	W52
	.byte		v024
	.byte	W01
	.byte		v014
	.byte		N96	, Dn3, v088
	.byte	W01
	.byte	VOL	, v015
	.byte	W01
	.byte		v015
	.byte	W01
	.byte		v016
	.byte	W01
	.byte		v017
	.byte	W01
	.byte		v017
	.byte	W01
	.byte		v018
	.byte	W01
	.byte		v019
	.byte	W01
	.byte		v020
	.byte	W01
	.byte		v021
	.byte	W01
	.byte		v021
	.byte	W01
	.byte		v022
	.byte	W01
	.byte		v023
	.byte	W01
	.byte		v024
	.byte	W01
	.byte		v025
	.byte	W01
	.byte		v025
	.byte	W01
	.byte		v026
	.byte	W01
	.byte		v027
	.byte	W01
	.byte		v027
	.byte	W01
	.byte		v028
	.byte	W01
	.byte		v029
	.byte	W02
	.byte		v030
	.byte	W01
	.byte		v031
	.byte	W01
	.byte		v032
	.byte	W01
	.byte		v032
	.byte	W01
	.byte		v033
	.byte	W01
	.byte		v034
	.byte	W01
	.byte		v035
	.byte	W01
	.byte		v035
	.byte	W01
	.byte		v036
	.byte	W01
	.byte		v037
	.byte	W01
	.byte		v037
	.byte	W01
	.byte		v038
	.byte	W01
	.byte		v039
	.byte	W01
	.byte		v040
	.byte	W01
	.byte		v041
	.byte	W01
	.byte		v042
	.byte	W01
	.byte		v042
	.byte	W56
	.byte	W02
	.byte		v022
	.byte		N48	, Fs3, v096
	.byte	W01
	.byte	VOL	, v022
	.byte	W01
	.byte		v023
	.byte	W01
	.byte		v024
	.byte	W01
	.byte		v025
	.byte	W01
	.byte		v026
	.byte	W01
	.byte		v027
	.byte	W01
	.byte		v027
	.byte	W01
	.byte		v028
	.byte	W01
	.byte		v029
	.byte	W01
	.byte		v030
	.byte	W01
	.byte		v031
	.byte	W01
	.byte		v032
	.byte	W01
	.byte		v032
	.byte	W01
	.byte		v033
	.byte	W01
	.byte		v034
	.byte	W01
	.byte		v035
	.byte	W01
	.byte		v036
	.byte	W01
	.byte		v037
	.byte	W01
	.byte		v037
	.byte	W01
	.byte		v038
	.byte	W01
	.byte		v039
	.byte	W01
	.byte		v040
	.byte	W01
	.byte		v040
	.byte	W01
	.byte		v042
	.byte	W24
	.byte		v024
	.byte		N48	, Dn3, v092
	.byte	W01
	.byte	VOL	, v025
	.byte	W01
	.byte		v026
	.byte	W01
	.byte		v027
	.byte	W01
	.byte		v028
	.byte	W01
	.byte		v029
	.byte	W01
	.byte		v030
	.byte	W01
	.byte		v031
	.byte	W01
	.byte		v032
	.byte	W01
	.byte		v033
	.byte	W01
	.byte		v035
	.byte	W01
	.byte		v035
	.byte	W01
	.byte		v037
	.byte	W01
	.byte		v037
	.byte	W01
	.byte		v039
	.byte	W01
	.byte		v040
	.byte	W01
	.byte		v041
	.byte	W01
	.byte		v042
	.byte	W30
	.byte	W01
	.byte		v021
	.byte		N96	, Fn3, v096
	.byte	W01
	.byte	VOL	, v022
	.byte	W01
	.byte		v022
	.byte	W01
	.byte		v022
	.byte	W01
	.byte		v023
	.byte	W01
	.byte		v024
	.byte	W01
	.byte		v024
	.byte	W01
	.byte		v025
	.byte	W01
	.byte		v025
	.byte	W01
	.byte		v026
	.byte	W01
	.byte		v026
	.byte	W01
	.byte		v027
	.byte	W01
	.byte		v027
	.byte	W01
	.byte		v028
	.byte	W01
	.byte		v028
	.byte	W01
	.byte		v029
	.byte	W01
	.byte		v030
	.byte	W01
	.byte		v030
	.byte	W01
	.byte		v030
	.byte	W01
	.byte		v031
	.byte	W01
	.byte		v032
	.byte	W01
	.byte		v032
	.byte	W01
	.byte		v032
	.byte	W01
	.byte		v033
	.byte	W01
	.byte		v034
	.byte	W01
	.byte		v034
	.byte	W01
	.byte		v035
	.byte	W01
	.byte		v035
	.byte	W01
	.byte		v035
	.byte	W01
	.byte		v036
	.byte	W01
	.byte		v036
	.byte	W01
	.byte		v037
	.byte	W01
	.byte		v037
	.byte	W01
	.byte		v038
	.byte	W01
	.byte		v038
	.byte	W01
	.byte		v039
	.byte	W01
	.byte		v040
	.byte	W01
	.byte		v040
	.byte	W01
	.byte		v040
	.byte	W01
	.byte		v041
	.byte	W01
	.byte		v042
	.byte	W01
	.byte		v042
	.byte	W01
	.byte		v042
	.byte	W54
	.byte		v023
	.byte		N48	, Gn3
	.byte	W01
	.byte	VOL	, v024
	.byte	W01
	.byte		v025
	.byte	W01
	.byte		v026
	.byte	W01
	.byte		v027
	.byte	W01
	.byte		v028
	.byte	W01
	.byte		v029
	.byte	W01
	.byte		v030
	.byte	W01
	.byte		v031
	.byte	W01
	.byte		v032
	.byte	W01
	.byte		v033
	.byte	W01
	.byte		v034
	.byte	W01
	.byte		v035
	.byte	W01
	.byte		v036
	.byte	W01
	.byte		v037
	.byte	W01
	.byte		v038
	.byte	W01
	.byte		v039
	.byte	W01
	.byte		v040
	.byte	W01
	.byte		v041
	.byte	W01
	.byte		v042
	.byte	W28
	.byte		v030
	.byte	W01
	.byte		v023
	.byte		N48	, En3, v088
	.byte	W01
	.byte	VOL	, v024
	.byte	W01
	.byte		v025
	.byte	W01
	.byte		v026
	.byte	W01
	.byte		v027
	.byte	W01
	.byte		v027
	.byte	W01
	.byte		v028
	.byte	W01
	.byte		v029
	.byte	W01
	.byte		v030
	.byte	W01
	.byte		v031
	.byte	W01
	.byte		v032
	.byte	W01
	.byte		v033
	.byte	W01
	.byte		v034
	.byte	W01
	.byte		v035
	.byte	W01
	.byte		v035
	.byte	W01
	.byte		v036
	.byte	W01
	.byte		v037
	.byte	W01
	.byte		v038
	.byte	W01
	.byte		v039
	.byte	W01
	.byte		v040
	.byte	W01
	.byte		v041
	.byte	W01
	.byte		v042
	.byte	W01
	.byte		v042
	.byte	W24
	.byte	W02
	.byte		v022
	.byte		N96	, An3, v096
	.byte	W01
	.byte	VOL	, v023
	.byte	W01
	.byte		v024
	.byte	W01
	.byte		v025
	.byte	W01
	.byte		v025
	.byte	W01
	.byte		v026
	.byte	W01
	.byte		v027
	.byte	W01
	.byte		v028
	.byte	W01
	.byte		v029
	.byte	W01
	.byte		v030
	.byte	W01
	.byte		v031
	.byte	W01
	.byte		v032
	.byte	W01
	.byte		v032
	.byte	W01
	.byte		v033
	.byte	W01
	.byte		v034
	.byte	W01
	.byte		v035
	.byte	W01
	.byte		v036
	.byte	W01
	.byte		v037
	.byte	W01
	.byte		v037
	.byte	W01
	.byte		v039
	.byte	W01
	.byte		v040
	.byte	W01
	.byte		v040
	.byte	W01
	.byte		v041
	.byte	W01
	.byte		v042
	.byte	W72
	.byte	W01
	.byte		v022
	.byte		N96	, Gs3, v092
	.byte	W01
	.byte	VOL	, v022
	.byte	W01
	.byte		v024
	.byte	W01
	.byte		v025
	.byte	W01
	.byte		v026
	.byte	W01
	.byte		v027
	.byte	W01
	.byte		v028
	.byte	W01
	.byte		v029
	.byte	W01
	.byte		v030
	.byte	W01
	.byte		v031
	.byte	W01
	.byte		v032
	.byte	W01
	.byte		v033
	.byte	W01
	.byte		v034
	.byte	W01
	.byte		v035
	.byte	W01
	.byte		v036
	.byte	W01
	.byte		v037
	.byte	W01
	.byte		v038
	.byte	W01
	.byte		v039
	.byte	W01
	.byte		v040
	.byte	W01
	.byte		v041
	.byte	W01
	.byte		v042
	.byte	W76
	.byte		v021
	.byte		TIE	, En3, v064
	.byte		TIE	, An3, v080
	.byte	W01
	.byte	VOL	, v022
	.byte	W01
	.byte		v023
	.byte	W01
	.byte		v024
	.byte	W01
	.byte		v025
	.byte	W01
	.byte		v026
	.byte	W01
	.byte		v027
	.byte	W01
	.byte		v028
	.byte	W01
	.byte		v030
	.byte	W01
	.byte		v030
	.byte	W01
	.byte		v032
	.byte	W01
	.byte		v032
	.byte	W01
	.byte		v033
	.byte	W01
	.byte		v034
	.byte	W01
	.byte		v035
	.byte	W01
	.byte		v036
	.byte	W01
	.byte		v037
	.byte	W01
	.byte		v038
	.byte	W01
	.byte		v040
	.byte	W01
	.byte		v040
	.byte	W01
	.byte		v042
	.byte	W01
	.byte		v042
	.byte	W24
	.byte	W01
	.byte		v042
	.byte	W24
	.byte	W01
	.byte		v042
	.byte	W24
	.byte	W01
	.byte		v041
	.byte	W01
	.byte		v040
	.byte	W01
	.byte		v040
	.byte	W01
	.byte		v040
	.byte	W01
	.byte		v039
	.byte	W01
	.byte		v038
	.byte	W01
	.byte		v038
	.byte	W01
	.byte		v037
	.byte	W01
	.byte		v037
	.byte	W01
	.byte		v036
	.byte	W01
	.byte		v035
	.byte	W01
	.byte		v035
	.byte	W01
	.byte		v034
	.byte	W01
	.byte		v033
	.byte	W01
	.byte		v032
	.byte	W01
	.byte		v031
	.byte	W01
	.byte		v030
	.byte	W01
	.byte		v030
	.byte	W01
	.byte		v028
	.byte	W01
	.byte		v027
	.byte	W01
	.byte		v027
	.byte	W01
	.byte		v025
	.byte	W01
	.byte		v024
	.byte	W01
	.byte		v023
	.byte	W01
	.byte		v022
	.byte	W01
	.byte		v020
	.byte	W01
	.byte		v019
	.byte	W01
	.byte		v017
	.byte	W01
	.byte		v015
	.byte	W01
	.byte		v014
	.byte	W01
	.byte		v012
	.byte	W01
	.byte		v010
	.byte	W01
	.byte		v007
	.byte	W01
	.byte		v005
	.byte	W01
	.byte		v003
	.byte	W01
	.byte		v000
	.byte	W01
	.byte		v000
	.byte	W12
	.byte		EOT	, En3
	.byte			An3
	.byte	FINE

	@********************** Track  5 **********************@

	.global song062_5
song062_5:	@ 0x0857049A
	.byte	KEYSH	, 0
	.byte	VOICE	, 52
	.byte	VOL	, v019
	.byte	PAN	, c_v+21
	.byte		N96	, Cn3, v080
	.byte	W01
	.byte	VOL	, v020
	.byte	W01
	.byte		v020
	.byte	W01
	.byte		v021
	.byte	W01
	.byte		v022
	.byte	W01
	.byte		v022
	.byte	W01
	.byte		v023
	.byte	W01
	.byte		v024
	.byte	W01
	.byte		v025
	.byte	W01
	.byte		v025
	.byte	W01
	.byte		v026
	.byte	W01
	.byte		v027
	.byte	W01
	.byte		v027
	.byte	W01
	.byte		v028
	.byte	W01
	.byte		v028
	.byte	W01
	.byte		v029
	.byte	W01
	.byte		v030
	.byte	W01
	.byte		v030
	.byte	W01
	.byte		v031
	.byte	W01
	.byte		v032
	.byte	W01
	.byte		v032
	.byte	W01
	.byte		v033
	.byte	W01
	.byte		v034
	.byte	W01
	.byte		v035
	.byte	W01
	.byte		v035
	.byte	W01
	.byte		v036
	.byte	W01
	.byte		v037
	.byte	W01
	.byte		v037
	.byte	W01
	.byte		v038
	.byte	W01
	.byte		v038
	.byte	W01
	.byte		v039
	.byte	W01
	.byte		v040
	.byte	W01
	.byte		v040
	.byte	W01
	.byte		v041
	.byte	W60
	.byte	W03
	.byte		v018
	.byte		N96	, Bn2, v096
	.byte	W01
	.byte	VOL	, v018
	.byte	W01
	.byte		v019
	.byte	W01
	.byte		v020
	.byte	W01
	.byte		v020
	.byte	W01
	.byte		v020
	.byte	W01
	.byte		v021
	.byte	W01
	.byte		v022
	.byte	W01
	.byte		v022
	.byte	W01
	.byte		v022
	.byte	W01
	.byte		v023
	.byte	W01
	.byte		v024
	.byte	W01
	.byte		v024
	.byte	W01
	.byte		v025
	.byte	W01
	.byte		v025
	.byte	W01
	.byte		v026
	.byte	W01
	.byte		v026
	.byte	W01
	.byte		v027
	.byte	W01
	.byte		v027
	.byte	W01
	.byte		v028
	.byte	W01
	.byte		v029
	.byte	W01
	.byte		v029
	.byte	W01
	.byte		v030
	.byte	W01
	.byte		v030
	.byte	W01
	.byte		v031
	.byte	W01
	.byte		v031
	.byte	W01
	.byte		v032
	.byte	W01
	.byte		v032
	.byte	W01
	.byte		v033
	.byte	W01
	.byte		v033
	.byte	W01
	.byte		v034
	.byte	W01
	.byte		v035
	.byte	W01
	.byte		v035
	.byte	W01
	.byte		v035
	.byte	W01
	.byte		v036
	.byte	W01
	.byte		v037
	.byte	W01
	.byte		v037
	.byte	W01
	.byte		v038
	.byte	W01
	.byte		v038
	.byte	W01
	.byte		v039
	.byte	W01
	.byte		v039
	.byte	W01
	.byte		v040
	.byte	W01
	.byte		v040
	.byte	W01
	.byte		v041
	.byte	W01
	.byte		v042
	.byte	W01
	.byte		v042
	.byte	W01
	.byte		v042
	.byte	W16
	.byte		v042
	.byte	W16
	.byte		v042
	.byte	W16
	.byte		v017
	.byte	W02
	.byte		v018
	.byte		N96	, Bn2, v088
	.byte	W01
	.byte	VOL	, v019
	.byte	W01
	.byte		v019
	.byte	W01
	.byte		v020
	.byte	W01
	.byte		v020
	.byte	W01
	.byte		v021
	.byte	W01
	.byte		v022
	.byte	W01
	.byte		v022
	.byte	W01
	.byte		v023
	.byte	W01
	.byte		v023
	.byte	W01
	.byte		v024
	.byte	W01
	.byte		v025
	.byte	W01
	.byte		v025
	.byte	W01
	.byte		v026
	.byte	W01
	.byte		v027
	.byte	W01
	.byte		v027
	.byte	W01
	.byte		v027
	.byte	W01
	.byte		v028
	.byte	W01
	.byte		v029
	.byte	W01
	.byte		v030
	.byte	W01
	.byte		v030
	.byte	W01
	.byte		v031
	.byte	W01
	.byte		v031
	.byte	W01
	.byte		v032
	.byte	W01
	.byte		v032
	.byte	W01
	.byte		v033
	.byte	W01
	.byte		v034
	.byte	W01
	.byte		v034
	.byte	W01
	.byte		v035
	.byte	W01
	.byte		v035
	.byte	W01
	.byte		v036
	.byte	W01
	.byte		v037
	.byte	W01
	.byte		v037
	.byte	W01
	.byte		v038
	.byte	W01
	.byte		v038
	.byte	W01
	.byte		v039
	.byte	W01
	.byte		v040
	.byte	W01
	.byte		v040
	.byte	W01
	.byte		v041
	.byte	W01
	.byte		v041
	.byte	W01
	.byte		v042
	.byte	W24
	.byte	W03
	.byte		v042
	.byte	W28
	.byte		v028
	.byte	W01
	.byte		v020
	.byte		N48	, Dn3, v096
	.byte	W01
	.byte	VOL	, v022
	.byte	W01
	.byte		v022
	.byte	W01
	.byte		v024
	.byte	W01
	.byte		v025
	.byte	W01
	.byte		v026
	.byte	W01
	.byte		v027
	.byte	W01
	.byte		v028
	.byte	W01
	.byte		v029
	.byte	W01
	.byte		v030
	.byte	W01
	.byte		v032
	.byte	W01
	.byte		v032
	.byte	W01
	.byte		v034
	.byte	W01
	.byte		v035
	.byte	W01
	.byte		v036
	.byte	W01
	.byte		v037
	.byte	W01
	.byte		v038
	.byte	W01
	.byte		v039
	.byte	W01
	.byte		v040
	.byte	W01
	.byte		v042
	.byte	W28
	.byte	W01
	.byte		v021
	.byte		N48	, An2, v088
	.byte	W01
	.byte	VOL	, v022
	.byte	W01
	.byte		v023
	.byte	W01
	.byte		v024
	.byte	W01
	.byte		v025
	.byte	W01
	.byte		v026
	.byte	W01
	.byte		v027
	.byte	W01
	.byte		v028
	.byte	W01
	.byte		v029
	.byte	W01
	.byte		v030
	.byte	W01
	.byte		v031
	.byte	W01
	.byte		v032
	.byte	W01
	.byte		v033
	.byte	W01
	.byte		v034
	.byte	W01
	.byte		v035
	.byte	W01
	.byte		v036
	.byte	W01
	.byte		v037
	.byte	W01
	.byte		v037
	.byte	W01
	.byte		v039
	.byte	W01
	.byte		v040
	.byte	W01
	.byte		v041
	.byte	W01
	.byte		v041
	.byte	W24
	.byte	W03
	.byte		v022
	.byte		N96	, An2, v092
	.byte	W01
	.byte	VOL	, v022
	.byte	W01
	.byte		v023
	.byte	W01
	.byte		v023
	.byte	W01
	.byte		v024
	.byte	W01
	.byte		v025
	.byte	W01
	.byte		v025
	.byte	W01
	.byte		v026
	.byte	W01
	.byte		v026
	.byte	W01
	.byte		v027
	.byte	W01
	.byte		v027
	.byte	W01
	.byte		v028
	.byte	W01
	.byte		v029
	.byte	W01
	.byte		v029
	.byte	W01
	.byte		v030
	.byte	W01
	.byte		v030
	.byte	W01
	.byte		v031
	.byte	W01
	.byte		v032
	.byte	W01
	.byte		v032
	.byte	W01
	.byte		v033
	.byte	W01
	.byte		v033
	.byte	W01
	.byte		v034
	.byte	W01
	.byte		v035
	.byte	W01
	.byte		v035
	.byte	W01
	.byte		v036
	.byte	W01
	.byte		v037
	.byte	W01
	.byte		v037
	.byte	W01
	.byte		v037
	.byte	W01
	.byte		v038
	.byte	W01
	.byte		v039
	.byte	W01
	.byte		v040
	.byte	W01
	.byte		v040
	.byte	W01
	.byte		v041
	.byte	W01
	.byte		v041
	.byte	W01
	.byte		v042
	.byte	W30
	.byte	W01
	.byte		v042
	.byte	W30
	.byte		v029
	.byte	W01
	.byte		v021
	.byte		N96	, Cn3, v088
	.byte	W01
	.byte	VOL	, v022
	.byte	W01
	.byte		v023
	.byte	W01
	.byte		v023
	.byte	W01
	.byte		v024
	.byte	W01
	.byte		v025
	.byte	W01
	.byte		v026
	.byte	W01
	.byte		v026
	.byte	W01
	.byte		v027
	.byte	W01
	.byte		v028
	.byte	W01
	.byte		v029
	.byte	W01
	.byte		v029
	.byte	W01
	.byte		v030
	.byte	W01
	.byte		v031
	.byte	W01
	.byte		v032
	.byte	W01
	.byte		v032
	.byte	W01
	.byte		v033
	.byte	W01
	.byte		v034
	.byte	W01
	.byte		v035
	.byte	W01
	.byte		v035
	.byte	W01
	.byte		v036
	.byte	W01
	.byte		v037
	.byte	W01
	.byte		v037
	.byte	W01
	.byte		v038
	.byte	W01
	.byte		v039
	.byte	W01
	.byte		v040
	.byte	W02
	.byte		v040
	.byte	W01
	.byte		v041
	.byte	W01
	.byte		v042
	.byte	W32
	.byte	W01
	.byte		v042
	.byte	W32
	.byte	W01
	.byte		v029
	.byte	W01
	.byte		v022
	.byte		TIE	, Bn2, v080
	.byte		TIE	, En3, v092
	.byte	W01
	.byte	VOL	, v022
	.byte	W01
	.byte		v022
	.byte	W01
	.byte		v023
	.byte	W01
	.byte		v024
	.byte	W01
	.byte		v024
	.byte	W01
	.byte		v025
	.byte	W01
	.byte		v025
	.byte	W01
	.byte		v026
	.byte	W01
	.byte		v026
	.byte	W01
	.byte		v027
	.byte	W01
	.byte		v027
	.byte	W01
	.byte		v028
	.byte	W01
	.byte		v029
	.byte	W01
	.byte		v029
	.byte	W01
	.byte		v030
	.byte	W01
	.byte		v030
	.byte	W01
	.byte		v031
	.byte	W01
	.byte		v031
	.byte	W01
	.byte		v032
	.byte	W01
	.byte		v032
	.byte	W01
	.byte		v033
	.byte	W01
	.byte		v033
	.byte	W01
	.byte		v034
	.byte	W01
	.byte		v035
	.byte	W01
	.byte		v035
	.byte	W01
	.byte		v035
	.byte	W01
	.byte		v036
	.byte	W01
	.byte		v037
	.byte	W01
	.byte		v037
	.byte	W02
	.byte		v038
	.byte	W01
	.byte		v038
	.byte	W01
	.byte		v039
	.byte	W01
	.byte		v040
	.byte	W01
	.byte		v040
	.byte	W01
	.byte		v040
	.byte	W01
	.byte		v041
	.byte	W01
	.byte		v042
	.byte	W01
	.byte		v042
	.byte	W56
	.byte	W01
	.byte	W88
	.byte	W01
	.byte		v029
	.byte	W01
	.byte		v021
	.byte	W01
	.byte		v022
	.byte	W01
	.byte		v022
	.byte	W01
	.byte		v023
	.byte	W01
	.byte		v023
	.byte	W01
	.byte		v024
	.byte	W01
	.byte		EOT	, Bn2
	.byte			En3
	.byte	VOL	, v025
	.byte		TIE	, An2, v068
	.byte		TIE	, Cn3, v088
	.byte	W01
	.byte	VOL	, v025
	.byte	W01
	.byte		v026
	.byte	W01
	.byte		v027
	.byte	W01
	.byte		v027
	.byte	W01
	.byte		v028
	.byte	W01
	.byte		v029
	.byte	W01
	.byte		v030
	.byte	W01
	.byte		v030
	.byte	W01
	.byte		v031
	.byte	W01
	.byte		v032
	.byte	W01
	.byte		v032
	.byte	W01
	.byte		v033
	.byte	W01
	.byte		v033
	.byte	W01
	.byte		v034
	.byte	W01
	.byte		v035
	.byte	W01
	.byte		v035
	.byte	W01
	.byte		v036
	.byte	W01
	.byte		v037
	.byte	W01
	.byte		v037
	.byte	W01
	.byte		v038
	.byte	W01
	.byte		v039
	.byte	W01
	.byte		v040
	.byte	W01
	.byte		v040
	.byte	W01
	.byte		v041
	.byte	W01
	.byte		v042
	.byte	W01
	.byte		v042
	.byte	W01
	.byte		v042
	.byte	W20
	.byte		v042
	.byte	W21
	.byte		v042
	.byte	W21
	.byte		v041
	.byte	W01
	.byte		v041
	.byte	W01
	.byte		v040
	.byte	W01
	.byte		v040
	.byte	W01
	.byte		v040
	.byte	W01
	.byte		v039
	.byte	W01
	.byte		v039
	.byte	W01
	.byte		v038
	.byte	W01
	.byte		v038
	.byte	W01
	.byte		v037
	.byte	W01
	.byte		v037
	.byte	W01
	.byte		v036
	.byte	W01
	.byte		v036
	.byte	W01
	.byte		v035
	.byte	W01
	.byte		v035
	.byte	W01
	.byte		v034
	.byte	W01
	.byte		v033
	.byte	W01
	.byte		v032
	.byte	W01
	.byte		v032
	.byte	W01
	.byte		v031
	.byte	W01
	.byte		v030
	.byte	W01
	.byte		v029
	.byte	W01
	.byte		v029
	.byte	W01
	.byte		v028
	.byte	W01
	.byte		v027
	.byte	W01
	.byte		v026
	.byte	W01
	.byte		v025
	.byte	W01
	.byte		v024
	.byte	W01
	.byte		v023
	.byte	W01
	.byte		v022
	.byte	W01
	.byte		v020
	.byte	W01
	.byte		v020
	.byte	W01
	.byte		v018
	.byte	W01
	.byte		v017
	.byte	W01
	.byte		v015
	.byte	W01
	.byte		v014
	.byte	W01
	.byte		v012
	.byte	W01
	.byte		v011
	.byte	W01
	.byte		v009
	.byte	W01
	.byte		v007
	.byte	W01
	.byte		v005
	.byte	W01
	.byte		v003
	.byte	W01
	.byte		v001
	.byte	W01
	.byte		v000
	.byte	W12
	.byte		EOT	, An2
	.byte			Cn3
	.byte	FINE

	.align 2
	.global song062
song062:	@ 0x085707A8
	.byte	5		@ trackCount
	.byte	0		@ blockCount
	.byte	10		@ priority
	.byte	148		@ reverb

	.word	voicegroup074		@ voicegroup/tone

	.word	song062_1		@ track
	.word	song062_2		@ track
	.word	song062_3		@ track
	.word	song062_4		@ track
	.word	song062_5		@ track
