	.include "MPlayDef.s"

	.section .rodata

	@********************** Track  1 **********************@

	.align 2
	.global song041_1
song041_1:	@ 0x085659E4
	.byte	KEYSH	, 0
song041_1_1:
	.byte	TEMPO	, 37
	.byte	VOICE	, 10
	.byte	VOL	, v052
	.byte	PAN	, c_v-30
	.byte		N12	, Dn4, v104
	.byte	W72
	.byte			As3, v120
	.byte	W12
	.byte			Fn4
	.byte	W12
	.byte		N12	
	.byte	W48
	.byte			Cn4, v108
	.byte	W48
	.byte			Dn4, v120
	.byte	W72
	.byte			As3
	.byte	W12
	.byte			Dn4
	.byte	W12
	.byte			Fn4
	.byte	W36
	.byte			Gn4
	.byte	W12
	.byte			Fn4
	.byte	W36
	.byte		N12	
	.byte	W12
	.byte			Fs4
	.byte	W60
	.byte			Cs4
	.byte	W12
	.byte			Gs4, v112
	.byte	W24
	.byte			Fn4, v120
	.byte	W60
	.byte			Cs4
	.byte	W12
	.byte			Gs3
	.byte	W24
	.byte			Cn4
	.byte	W96
	.byte			Fn4
	.byte	W96
	.byte	VOICE	, 99
	.byte		N60	, Fs3, v104
	.byte	W72
	.byte		N12	, As3
	.byte	W12
	.byte			Fs3
	.byte	W12
	.byte		N24	, Gs3
	.byte	W48
	.byte			As3
	.byte	W24
	.byte			Cn4
	.byte	W24
	.byte		N36	, Cs4
	.byte	W48
	.byte		N12	
	.byte	W12
	.byte			Cn4
	.byte	W12
	.byte		N24	, As3
	.byte	W24
	.byte		N36	, Cn4
	.byte	W48
	.byte			An3
	.byte	W48
	.byte		N72	, As3
	.byte	W72
	.byte		N12	, Cs4
	.byte	W12
	.byte			As3
	.byte	W12
	.byte		N36	, Cn4
	.byte	W48
	.byte			Ds4
	.byte	W48
	.byte		N72	, Cs4
	.byte	W72
	.byte		N24	, As3
	.byte	W24
	.byte			Fn4
	.byte	W48
	.byte		N12	
	.byte	W12
	.byte			Ds4
	.byte	W12
	.byte			Cn4
	.byte	W12
	.byte			Ds4
	.byte	W12
	.byte	GOTO	
		.word	song041_1_1
	.byte	FINE

	@********************** Track  2 **********************@

	.global song041_2
song041_2:	@ 0x08565A61
	.byte	KEYSH	, 0
song041_2_1:
	.byte	VOICE	, 49
	.byte	VOL	, v042
	.byte	PAN	, c_v
	.byte		N92	, As1, v127
	.byte	W96
	.byte			Gs1
	.byte	W96
	.byte			As1
	.byte	W96
	.byte			Gs1
	.byte	W96
	.byte			Fs1
	.byte	W96
	.byte			Gs1
	.byte	W96
	.byte			As1
	.byte	W96
	.byte			An1
	.byte	W96
	.byte			As1
	.byte	W96
	.byte			Cn2
	.byte	W96
	.byte			Gs1
	.byte	W96
	.byte			An1
	.byte	W96
	.byte			As1
	.byte	W96
	.byte			Cn2
	.byte	W96
	.byte		TIE	, As1
	.byte	W84
	.byte	W03
	.byte	VOL	, v042
	.byte	W05
	.byte		v041
	.byte	W04
	.byte	W01
	.byte		v041
	.byte	W03
	.byte		v040
	.byte	W03
	.byte		v040
	.byte	W03
	.byte		v039
	.byte	W03
	.byte		v039
	.byte	W03
	.byte		v038
	.byte	W03
	.byte		v038
	.byte	W03
	.byte		v037
	.byte	W04
	.byte		v037
	.byte	W01
	.byte		v036
	.byte	W03
	.byte		v036
	.byte	W03
	.byte		v036
	.byte	W02
	.byte		v035
	.byte	W03
	.byte		v035
	.byte	W01
	.byte		v034
	.byte	W02
	.byte		v034
	.byte	W03
	.byte		v033
	.byte	W02
	.byte		v033
	.byte	W01
	.byte		v032
	.byte	W02
	.byte		v032
	.byte	W01
	.byte		v031
	.byte	W02
	.byte		v031
	.byte	W03
	.byte		v031
	.byte	W02
	.byte		v030
	.byte	W01
	.byte		v030
	.byte	W02
	.byte		v029
	.byte	W01
	.byte		v028
	.byte	W02
	.byte		v028
	.byte	W01
	.byte		v027
	.byte	W02
	.byte		v027
	.byte	W01
	.byte		v026
	.byte	W02
	.byte		v026
	.byte	W01
	.byte		v025
	.byte	W02
	.byte		v025
	.byte	W02
	.byte		v024
	.byte	W01
	.byte		v023
	.byte	W02
	.byte		v022
	.byte	W01
	.byte		v022
	.byte	W02
	.byte		v021
	.byte	W01
	.byte		v020
	.byte	W02
	.byte		v020
	.byte	W01
	.byte		v019
	.byte	W02
	.byte		v018
	.byte	W02
	.byte		v017
	.byte	W01
	.byte		v016
	.byte	W02
	.byte		v015
	.byte	W01
	.byte		v014
	.byte	W01
	.byte		EOT	
	.byte	W01
	.byte	VOL	, v013
	.byte	W01
	.byte		v011
	.byte	W01
	.byte	GOTO	
		.word	song041_2_1
	.byte	FINE

	@********************** Track  3 **********************@

	.global song041_3
song041_3:	@ 0x08565AFC
	.byte	KEYSH	, 0
song041_3_1:
	.byte	VOICE	, 48
	.byte	VOL	, v027
	.byte	PAN	, c_v+6
	.byte		N90	, Fn2, v104
	.byte	W10
	.byte	VOL	, v027
	.byte	W03
	.byte		v028
	.byte	W01
	.byte		v028
	.byte	W01
	.byte		v029
	.byte	W02
	.byte		v029
	.byte	W01
	.byte		v030
	.byte	W01
	.byte		v030
	.byte	W01
	.byte		v031
	.byte	W02
	.byte		v031
	.byte	W01
	.byte		v031
	.byte	W01
	.byte		v032
	.byte	W02
	.byte		v032
	.byte	W01
	.byte		v033
	.byte	W01
	.byte		v033
	.byte	W02
	.byte		v034
	.byte	W01
	.byte		v034
	.byte	W01
	.byte		v035
	.byte	W01
	.byte		v035
	.byte	W02
	.byte		v036
	.byte	W01
	.byte		v036
	.byte	W01
	.byte		v036
	.byte	W02
	.byte		v037
	.byte	W01
	.byte		v037
	.byte	W01
	.byte		v038
	.byte	W02
	.byte		v038
	.byte	W01
	.byte		v039
	.byte	W01
	.byte		v039
	.byte	W01
	.byte		v040
	.byte	W02
	.byte		v040
	.byte	W01
	.byte		v041
	.byte	W01
	.byte		v041
	.byte	W02
	.byte		v042
	.byte	W01
	.byte		v042
	.byte	W01
	.byte		v042
	.byte	W02
	.byte		v043
	.byte	W01
	.byte		v043
	.byte	W01
	.byte		v044
	.byte	W01
	.byte		v044
	.byte	W02
	.byte		v045
	.byte	W01
	.byte		v045
	.byte	W01
	.byte		v046
	.byte	W02
	.byte		v046
	.byte	W01
	.byte		v047
	.byte	W01
	.byte		v047
	.byte	W01
	.byte		v047
	.byte	W28
	.byte		N21	
	.byte	W24
	.byte			Cn2
	.byte	W24
	.byte			Fn2
	.byte	W20
	.byte	VOL	, v047
	.byte	W01
	.byte		v047
	.byte	W01
	.byte		v047
	.byte	W01
	.byte		v046
	.byte	W01
	.byte		v045
	.byte		N21	, Gs2
	.byte	W01
	.byte	VOL	, v044
	.byte	W01
	.byte		v044
	.byte	W01
	.byte		v043
	.byte	W01
	.byte		v042
	.byte	W01
	.byte		v042
	.byte	W01
	.byte		v041
	.byte	W01
	.byte		v040
	.byte	W01
	.byte		v040
	.byte	W01
	.byte		v039
	.byte	W01
	.byte		v038
	.byte	W01
	.byte		v037
	.byte	W01
	.byte		v037
	.byte	W01
	.byte		v036
	.byte	W01
	.byte		v036
	.byte	W01
	.byte		v035
	.byte	W01
	.byte		v035
	.byte	W01
	.byte		v034
	.byte	W01
	.byte		v033
	.byte	W01
	.byte		v033
	.byte	W01
	.byte		v032
	.byte	W01
	.byte		v031
	.byte	W01
	.byte		v031
	.byte	W01
	.byte		v030
	.byte	W01
	.byte		v029
	.byte		N90	, Fn2
	.byte	W03
	.byte	VOL	, v030
	.byte	W02
	.byte		v030
	.byte	W02
	.byte		v031
	.byte	W01
	.byte		v031
	.byte	W02
	.byte		v031
	.byte	W01
	.byte		v032
	.byte	W02
	.byte		v032
	.byte	W02
	.byte		v033
	.byte	W01
	.byte		v033
	.byte	W02
	.byte		v034
	.byte	W02
	.byte		v034
	.byte	W01
	.byte		v035
	.byte	W02
	.byte		v035
	.byte	W02
	.byte		v036
	.byte	W01
	.byte		v036
	.byte	W02
	.byte		v036
	.byte	W02
	.byte		v037
	.byte	W01
	.byte		v037
	.byte	W02
	.byte		v038
	.byte	W02
	.byte		v038
	.byte	W01
	.byte		v039
	.byte	W02
	.byte		v039
	.byte	W02
	.byte		v040
	.byte	W01
	.byte		v040
	.byte	W02
	.byte		v041
	.byte	W01
	.byte		v041
	.byte	W02
	.byte		v042
	.byte	W02
	.byte		v042
	.byte	W01
	.byte		v042
	.byte	W02
	.byte		v043
	.byte	W02
	.byte		v043
	.byte	W01
	.byte		v044
	.byte	W02
	.byte		v044
	.byte	W02
	.byte		v045
	.byte	W01
	.byte		v045
	.byte	W02
	.byte		v046
	.byte	W02
	.byte		v046
	.byte	W01
	.byte		v047
	.byte	W02
	.byte		v047
	.byte	W30
	.byte		N48	
	.byte	W48
	.byte		N24	, Cn2
	.byte	W18
	.byte	VOL	, v047
	.byte	W02
	.byte		v047
	.byte	W01
	.byte		v046
	.byte	W01
	.byte		v046
	.byte	W01
	.byte		v045
	.byte	W01
	.byte		v045
	.byte		N24	, Fn2
	.byte	W01
	.byte	VOL	, v044
	.byte	W01
	.byte		v044
	.byte	W01
	.byte		v043
	.byte	W01
	.byte		v042
	.byte	W01
	.byte		v042
	.byte	W01
	.byte		v042
	.byte	W01
	.byte		v041
	.byte	W01
	.byte		v041
	.byte	W01
	.byte		v040
	.byte	W01
	.byte		v040
	.byte	W01
	.byte		v039
	.byte	W01
	.byte		v038
	.byte	W01
	.byte		v038
	.byte	W01
	.byte		v037
	.byte	W01
	.byte		v037
	.byte	W01
	.byte		v036
	.byte	W01
	.byte		v036
	.byte	W01
	.byte		v035
	.byte	W01
	.byte		v035
	.byte	W01
	.byte		v034
	.byte	W01
	.byte		v034
	.byte	W01
	.byte		v033
	.byte	W01
	.byte		v033
	.byte	W01
	.byte		v032
	.byte		N96	, Cs2
	.byte	W02
	.byte	VOL	, v033
	.byte	W01
	.byte		v033
	.byte	W02
	.byte		v034
	.byte	W01
	.byte		v034
	.byte	W01
	.byte		v035
	.byte	W02
	.byte		v035
	.byte	W01
	.byte		v036
	.byte	W01
	.byte		v036
	.byte	W02
	.byte		v036
	.byte	W01
	.byte		v037
	.byte	W01
	.byte		v037
	.byte	W02
	.byte		v038
	.byte	W01
	.byte		v038
	.byte	W01
	.byte		v039
	.byte	W02
	.byte		v039
	.byte	W01
	.byte		v040
	.byte	W01
	.byte		v040
	.byte	W02
	.byte		v041
	.byte	W01
	.byte		v041
	.byte	W01
	.byte		v042
	.byte	W02
	.byte		v042
	.byte	W01
	.byte		v042
	.byte	W01
	.byte		v043
	.byte	W02
	.byte		v043
	.byte	W01
	.byte		v044
	.byte	W01
	.byte		v044
	.byte	W02
	.byte		v045
	.byte	W01
	.byte		v045
	.byte	W01
	.byte		v046
	.byte	W02
	.byte		v046
	.byte	W01
	.byte		v047
	.byte	W01
	.byte		v047
	.byte	W01
	.byte		v047
	.byte	W52
	.byte		N92	, Fn2
	.byte	W28
	.byte	VOL	, v047
	.byte	W01
	.byte		v047
	.byte	W02
	.byte		v047
	.byte	W01
	.byte		v046
	.byte	W01
	.byte		v046
	.byte	W01
	.byte		v045
	.byte	W02
	.byte		v045
	.byte	W01
	.byte		v044
	.byte	W01
	.byte		v044
	.byte	W02
	.byte		v043
	.byte	W01
	.byte		v043
	.byte	W01
	.byte		v042
	.byte	W02
	.byte		v042
	.byte	W01
	.byte		v042
	.byte	W01
	.byte		v041
	.byte	W01
	.byte		v041
	.byte	W02
	.byte		v040
	.byte	W01
	.byte		v040
	.byte	W01
	.byte		v039
	.byte	W02
	.byte		v039
	.byte	W01
	.byte		v038
	.byte	W01
	.byte		v038
	.byte	W02
	.byte		v037
	.byte	W01
	.byte		v037
	.byte	W01
	.byte		v036
	.byte	W01
	.byte		v036
	.byte	W02
	.byte		v036
	.byte	W01
	.byte		v035
	.byte	W01
	.byte		v035
	.byte	W02
	.byte		v034
	.byte	W01
	.byte		v034
	.byte	W01
	.byte		v033
	.byte	W02
	.byte		v033
	.byte	W01
	.byte		v032
	.byte	W01
	.byte		v032
	.byte	W01
	.byte		v031
	.byte	W02
	.byte		v031
	.byte	W01
	.byte		v031
	.byte	W01
	.byte		v030
	.byte	W02
	.byte		v030
	.byte	W01
	.byte		v029
	.byte	W01
	.byte		v029
	.byte	W02
	.byte		v028
	.byte	W01
	.byte		v028
	.byte	W01
	.byte		v027
	.byte	W01
	.byte		v027
	.byte	W02
	.byte		v026
	.byte	W01
	.byte		v026
	.byte	W01
	.byte		v026
	.byte	W02
	.byte		v025
	.byte	W01
	.byte		v025
	.byte	W01
	.byte		v024
	.byte	W02
	.byte		v024
	.byte		N90	
	.byte	W02
	.byte	VOL	, v024
	.byte	W02
	.byte		v025
	.byte	W01
	.byte		v025
	.byte	W01
	.byte		v026
	.byte	W02
	.byte		v026
	.byte	W01
	.byte		v026
	.byte	W01
	.byte		v027
	.byte	W02
	.byte		v027
	.byte	W01
	.byte		v028
	.byte	W01
	.byte		v028
	.byte	W02
	.byte		v029
	.byte	W01
	.byte		v029
	.byte	W01
	.byte		v030
	.byte	W02
	.byte		v030
	.byte	W01
	.byte		v031
	.byte	W01
	.byte		v031
	.byte	W02
	.byte		v031
	.byte	W01
	.byte		v032
	.byte	W02
	.byte		v032
	.byte	W01
	.byte		v033
	.byte	W01
	.byte		v033
	.byte	W02
	.byte		v034
	.byte	W01
	.byte		v034
	.byte	W01
	.byte		v035
	.byte	W02
	.byte		v035
	.byte	W01
	.byte		v036
	.byte	W01
	.byte		v036
	.byte	W02
	.byte		v036
	.byte	W01
	.byte		v037
	.byte	W01
	.byte		v037
	.byte	W02
	.byte		v038
	.byte	W01
	.byte		v038
	.byte	W01
	.byte		v039
	.byte	W02
	.byte		v039
	.byte	W01
	.byte		v040
	.byte	W01
	.byte		v040
	.byte	W02
	.byte		v041
	.byte	W01
	.byte		v041
	.byte	W02
	.byte		v042
	.byte	W01
	.byte		v042
	.byte	W01
	.byte		v042
	.byte	W02
	.byte		v043
	.byte	W01
	.byte		v043
	.byte	W01
	.byte		v044
	.byte	W02
	.byte		v044
	.byte	W01
	.byte		v045
	.byte	W01
	.byte		v045
	.byte	W02
	.byte		v046
	.byte	W01
	.byte		v046
	.byte	W01
	.byte		v047
	.byte	W02
	.byte		v047
	.byte	W24
	.byte	W02
	.byte		N24	, Cn3
	.byte	W24
	.byte			An2
	.byte	W23
	.byte	VOL	, v047
	.byte	W01
	.byte		N24	, Fn2
	.byte	W01
	.byte	VOL	, v047
	.byte	W01
	.byte		v047
	.byte	W01
	.byte		v046
	.byte	W01
	.byte		v046
	.byte	W02
	.byte		v045
	.byte	W01
	.byte		v045
	.byte	W01
	.byte		v044
	.byte	W01
	.byte		v044
	.byte	W01
	.byte		v043
	.byte	W01
	.byte		v043
	.byte	W01
	.byte		v042
	.byte	W01
	.byte		v042
	.byte	W01
	.byte		v042
	.byte	W01
	.byte		v041
	.byte	W01
	.byte		v041
	.byte	W01
	.byte		v040
	.byte	W01
	.byte		v040
	.byte	W02
	.byte		v039
	.byte	W01
	.byte		v039
	.byte	W01
	.byte		v038
	.byte	W01
	.byte		v038
	.byte	W01
	.byte		v037
	.byte		N24	, Cn2
	.byte	W01
	.byte	VOL	, v037
	.byte	W01
	.byte		v036
	.byte	W01
	.byte		v036
	.byte	W01
	.byte		v036
	.byte	W01
	.byte		v035
	.byte	W01
	.byte		v035
	.byte	W01
	.byte		v034
	.byte	W01
	.byte		v034
	.byte	W02
	.byte		v033
	.byte	W01
	.byte		v033
	.byte	W01
	.byte		v032
	.byte	W01
	.byte		v032
	.byte	W01
	.byte		v031
	.byte	W01
	.byte		v031
	.byte	W01
	.byte		v031
	.byte	W01
	.byte		v030
	.byte	W01
	.byte		v030
	.byte	W01
	.byte		v029
	.byte	W01
	.byte		v029
	.byte	W01
	.byte		v028
	.byte	W01
	.byte		v028
	.byte	W01
	.byte		v027
	.byte	W01
	.byte		N96	, Fs2
	.byte	W02
	.byte	VOL	, v028
	.byte	W01
	.byte		v028
	.byte	W02
	.byte		v029
	.byte	W01
	.byte		v029
	.byte	W01
	.byte		v030
	.byte	W02
	.byte		v030
	.byte	W01
	.byte		v031
	.byte	W01
	.byte		v031
	.byte	W02
	.byte		v031
	.byte	W01
	.byte		v032
	.byte	W01
	.byte		v032
	.byte	W02
	.byte		v033
	.byte	W01
	.byte		v033
	.byte	W01
	.byte		v034
	.byte	W02
	.byte		v034
	.byte	W01
	.byte		v035
	.byte	W01
	.byte		v035
	.byte	W02
	.byte		v036
	.byte	W01
	.byte		v036
	.byte	W01
	.byte		v036
	.byte	W02
	.byte		v037
	.byte	W01
	.byte		v037
	.byte	W02
	.byte		v038
	.byte	W01
	.byte		v038
	.byte	W01
	.byte		v039
	.byte	W02
	.byte		v039
	.byte	W01
	.byte		v040
	.byte	W01
	.byte		v040
	.byte	W02
	.byte		v041
	.byte	W01
	.byte		v041
	.byte	W01
	.byte		v042
	.byte	W02
	.byte		v042
	.byte	W01
	.byte		v042
	.byte	W01
	.byte		v043
	.byte	W02
	.byte		v043
	.byte	W01
	.byte		v044
	.byte	W01
	.byte		v044
	.byte	W02
	.byte		v045
	.byte	W01
	.byte		v045
	.byte	W01
	.byte		v046
	.byte	W02
	.byte		v046
	.byte	W01
	.byte		v047
	.byte	W02
	.byte		v047
	.byte	W01
	.byte		v047
	.byte	W36
	.byte		N96	, Gs2
	.byte	W56
	.byte	W01
	.byte	VOL	, v047
	.byte	W02
	.byte		v047
	.byte	W01
	.byte		v047
	.byte	W01
	.byte		v046
	.byte	W01
	.byte		v046
	.byte	W01
	.byte		v045
	.byte	W01
	.byte		v045
	.byte	W01
	.byte		v044
	.byte	W01
	.byte		v044
	.byte	W01
	.byte		v043
	.byte	W01
	.byte		v043
	.byte	W01
	.byte		v042
	.byte	W01
	.byte		v042
	.byte	W01
	.byte		v041
	.byte	W01
	.byte		v041
	.byte	W01
	.byte		v040
	.byte	W01
	.byte		v040
	.byte	W01
	.byte		v039
	.byte	W01
	.byte		v039
	.byte	W01
	.byte		v038
	.byte	W01
	.byte		v038
	.byte	W01
	.byte		v037
	.byte	W01
	.byte		v037
	.byte	W01
	.byte		v036
	.byte	W01
	.byte		v036
	.byte	W01
	.byte		v036
	.byte	W01
	.byte		v035
	.byte	W01
	.byte		v035
	.byte	W01
	.byte		v034
	.byte	W01
	.byte		v034
	.byte	W01
	.byte		v033
	.byte	W01
	.byte		v032
	.byte	W01
	.byte		v032
	.byte	W01
	.byte		v031
	.byte	W01
	.byte		v031
	.byte	W01
	.byte		v031
	.byte	W01
	.byte		v030
	.byte	W01
	.byte		v030
	.byte	W01
	.byte		v029
	.byte		N60	, Fn2
	.byte	W01
	.byte	VOL	, v030
	.byte	W01
	.byte		v030
	.byte	W01
	.byte		v031
	.byte	W01
	.byte		v031
	.byte	W01
	.byte		v031
	.byte	W01
	.byte		v032
	.byte	W01
	.byte		v032
	.byte	W01
	.byte		v033
	.byte	W01
	.byte		v034
	.byte	W01
	.byte		v034
	.byte	W01
	.byte		v035
	.byte	W01
	.byte		v035
	.byte	W01
	.byte		v036
	.byte	W01
	.byte		v036
	.byte	W01
	.byte		v036
	.byte	W01
	.byte		v037
	.byte	W01
	.byte		v037
	.byte	W01
	.byte		v038
	.byte	W01
	.byte		v039
	.byte	W01
	.byte		v039
	.byte	W01
	.byte		v040
	.byte	W01
	.byte		v040
	.byte	W01
	.byte		v041
	.byte	W01
	.byte		v041
	.byte	W01
	.byte		v042
	.byte	W01
	.byte		v042
	.byte	W01
	.byte		v043
	.byte	W01
	.byte		v043
	.byte	W01
	.byte		v044
	.byte	W01
	.byte		v044
	.byte	W01
	.byte		v045
	.byte	W01
	.byte		v045
	.byte	W01
	.byte		v046
	.byte	W01
	.byte		v046
	.byte	W01
	.byte		v047
	.byte	W01
	.byte		v047
	.byte	W24
	.byte		N12	, Cs3
	.byte	W12
	.byte			Gs2
	.byte	W12
	.byte			Fn2
	.byte	W12
	.byte		N48	
	.byte	W48
	.byte	VOL	, v047
	.byte		N48	, Cn2
	.byte	W03
	.byte	VOL	, v047
	.byte	W01
	.byte		v047
	.byte	W01
	.byte		v046
	.byte	W01
	.byte		v046
	.byte	W01
	.byte		v045
	.byte	W02
	.byte		v045
	.byte	W01
	.byte		v044
	.byte	W01
	.byte		v044
	.byte	W01
	.byte		v043
	.byte	W01
	.byte		v043
	.byte	W01
	.byte		v042
	.byte	W02
	.byte		v042
	.byte	W01
	.byte		v042
	.byte	W01
	.byte		v041
	.byte	W01
	.byte		v041
	.byte	W01
	.byte		v040
	.byte	W01
	.byte		v040
	.byte	W02
	.byte		v039
	.byte	W01
	.byte		v039
	.byte	W01
	.byte		v038
	.byte	W01
	.byte		v038
	.byte	W01
	.byte		v037
	.byte	W02
	.byte		v037
	.byte	W01
	.byte		v036
	.byte	W01
	.byte		v036
	.byte	W01
	.byte		v036
	.byte	W01
	.byte		v035
	.byte	W01
	.byte		v035
	.byte	W02
	.byte		v034
	.byte	W01
	.byte		v034
	.byte	W01
	.byte		v033
	.byte	W01
	.byte		v033
	.byte	W01
	.byte		v032
	.byte	W01
	.byte		v032
	.byte	W02
	.byte		v031
	.byte	W01
	.byte		v031
	.byte	W01
	.byte		v031
	.byte	W01
	.byte		v030
	.byte	W01
	.byte		v030
	.byte	W01
	.byte		v029
	.byte		N24	, Fs2
	.byte	W01
	.byte	VOL	, v030
	.byte	W01
	.byte		v030
	.byte	W01
	.byte		v031
	.byte	W01
	.byte		v031
	.byte	W01
	.byte		v032
	.byte	W01
	.byte		v032
	.byte	W01
	.byte		v033
	.byte	W01
	.byte		v034
	.byte	W01
	.byte		v034
	.byte	W01
	.byte		v035
	.byte	W01
	.byte		v035
	.byte	W01
	.byte		v036
	.byte	W01
	.byte		v036
	.byte	W01
	.byte		v037
	.byte	W01
	.byte		v037
	.byte	W01
	.byte		v038
	.byte	W01
	.byte		v039
	.byte	W01
	.byte		v039
	.byte	W01
	.byte		v040
	.byte	W01
	.byte		v041
	.byte	W01
	.byte		v041
	.byte	W01
	.byte		v042
	.byte	W01
	.byte		v042
	.byte	W01
	.byte		v043
	.byte		N24	, Cs2
	.byte	W01
	.byte	VOL	, v043
	.byte	W01
	.byte		v044
	.byte	W01
	.byte		v044
	.byte	W01
	.byte		v045
	.byte	W01
	.byte		v046
	.byte	W01
	.byte		v046
	.byte	W01
	.byte		v047
	.byte	W01
	.byte		v047
	.byte	W16
	.byte		N24	, Fs2
	.byte	W24
	.byte			As2
	.byte	W24
	.byte		N96	, Gs2
	.byte	W96
	.byte		TIE	, Fn2
	.byte	W66
	.byte	W01
	.byte	VOL	, v047
	.byte	W04
	.byte		v047
	.byte	W04
	.byte		v047
	.byte	W03
	.byte		v046
	.byte	W03
	.byte		v046
	.byte	W03
	.byte		v045
	.byte	W04
	.byte		v045
	.byte	W03
	.byte		v044
	.byte	W03
	.byte		v044
	.byte	W02
	.byte	W01
	.byte		v043
	.byte	W03
	.byte		v043
	.byte	W02
	.byte		v042
	.byte	W02
	.byte		v042
	.byte	W03
	.byte		v042
	.byte	W02
	.byte		v041
	.byte	W03
	.byte		v041
	.byte	W03
	.byte		v040
	.byte	W01
	.byte		v040
	.byte	W03
	.byte		v039
	.byte	W01
	.byte		v039
	.byte	W02
	.byte		v038
	.byte	W03
	.byte		v038
	.byte	W01
	.byte		v037
	.byte	W02
	.byte		v037
	.byte	W03
	.byte		v036
	.byte	W01
	.byte		v036
	.byte	W01
	.byte		v036
	.byte	W02
	.byte		v035
	.byte	W01
	.byte		v035
	.byte	W02
	.byte		v034
	.byte	W01
	.byte		v034
	.byte	W02
	.byte		v033
	.byte	W01
	.byte		v033
	.byte	W02
	.byte		v032
	.byte	W01
	.byte		v032
	.byte	W01
	.byte		v031
	.byte	W02
	.byte		v031
	.byte	W01
	.byte		v031
	.byte	W02
	.byte		v030
	.byte	W01
	.byte		v030
	.byte	W02
	.byte		v029
	.byte	W01
	.byte		v028
	.byte	W02
	.byte		v028
	.byte	W01
	.byte		v027
	.byte	W02
	.byte		v026
	.byte	W01
	.byte		v026
	.byte	W01
	.byte		v026
	.byte	W02
	.byte		v025
	.byte	W01
	.byte		v024
	.byte	W02
	.byte		v023
	.byte	W01
	.byte		v023
	.byte	W02
	.byte		v022
	.byte	W01
	.byte		v021
	.byte	W02
	.byte		v021
	.byte	W01
	.byte		v020
	.byte	W01
	.byte		v019
	.byte	W02
	.byte		v018
	.byte	W01
	.byte		v017
	.byte	W02
	.byte		v016
	.byte	W01
	.byte		v015
	.byte	W02
	.byte		v014
	.byte	W01
	.byte		v013
	.byte	W02
	.byte		v012
	.byte	W01
	.byte		v011
	.byte	W01
	.byte		v010
	.byte	W04
	.byte		EOT	
	.byte	GOTO	
		.word	song041_3_1
	.byte	FINE

	@********************** Track  4 **********************@

	.global song041_4
song041_4:	@ 0x08565FF6
	.byte	KEYSH	, 0
song041_4_5:
	.byte	VOICE	, 46
	.byte	VOL	, v058
	.byte	PAN	, c_v-24
	.byte		N09	, As1, v120
	.byte	W12
	.byte			Dn2
	.byte	W12
	.byte			Fn2
	.byte	W12
	.byte			As2
	.byte	W12
	.byte			Dn3
	.byte	W12
	.byte			Fn3
	.byte	W12
	.byte			As3
	.byte	W12
	.byte			Dn4
	.byte	W12
song041_4_1:
	.byte		N09	, Gs1, v120
	.byte	W12
	.byte			Cn2
	.byte	W12
	.byte			Fn2
	.byte	W12
	.byte			Gs2
	.byte	W12
	.byte			Cn3
	.byte	W12
	.byte			Fn3
	.byte	W12
	.byte			Gs3
	.byte	W12
	.byte			Cn4
	.byte	W12
	.byte	PEND
	.byte			As1
	.byte	W12
	.byte			Dn2
	.byte	W12
	.byte			Fn2
	.byte	W12
	.byte			As2
	.byte	W12
	.byte			Dn3
	.byte	W12
	.byte			Fn3
	.byte	W12
	.byte			As3
	.byte	W12
	.byte			Dn4
	.byte	W12
	.byte	PATT	
		.word	song041_4_1
song041_4_2:
	.byte		N09	, Fs1, v120
	.byte	W12
	.byte			Cs2
	.byte	W12
	.byte			Fs2
	.byte	W12
	.byte			As2
	.byte	W12
	.byte			Cs3
	.byte	W12
	.byte			Fs3
	.byte	W12
	.byte			As3
	.byte	W12
	.byte			Cs4
	.byte	W12
	.byte	PEND
	.byte			Fn1
	.byte	W12
	.byte			Cs2
	.byte	W12
	.byte			Fn2
	.byte	W12
	.byte			Gs2
	.byte	W12
	.byte			Cs3
	.byte	W12
	.byte			Fn3
	.byte	W12
	.byte			Gs3
	.byte	W12
	.byte			Cs4
	.byte	W12
	.byte			Fn1
	.byte	W12
	.byte			Cn2
	.byte	W12
	.byte			Fn2
	.byte	W12
	.byte			As2
	.byte	W12
	.byte			Cn3
	.byte	W12
	.byte			Fn3
	.byte	W12
	.byte			As3
	.byte	W12
	.byte			Cn4
	.byte	W12
song041_4_3:
	.byte		N09	, Fn1, v120
	.byte	W12
	.byte			Cn2
	.byte	W12
	.byte			Fn2
	.byte	W12
	.byte			An2
	.byte	W12
	.byte			Cn3
	.byte	W12
	.byte			Fn3
	.byte	W12
	.byte			An3
	.byte	W12
	.byte			Cn4
	.byte	W12
	.byte	PEND
	.byte	PATT	
		.word	song041_4_2
song041_4_4:
	.byte		N09	, Gs1, v120
	.byte	W12
	.byte			Ds2
	.byte	W12
	.byte			Gs2
	.byte	W12
	.byte			Cn3
	.byte	W12
	.byte			Ds3
	.byte	W12
	.byte			Gs3
	.byte	W12
	.byte			Cn4
	.byte	W12
	.byte			Ds4
	.byte	W12
	.byte	PEND
	.byte			Cs2
	.byte	W12
	.byte			Gs2
	.byte	W12
	.byte			Cs3
	.byte	W12
	.byte			Fn3
	.byte	W12
	.byte			Gs3
	.byte	W12
	.byte			Cs4
	.byte	W12
	.byte			Fn4
	.byte	W12
	.byte			Gs4
	.byte	W12
	.byte	PATT	
		.word	song041_4_3
	.byte	PATT	
		.word	song041_4_2
	.byte	PATT	
		.word	song041_4_4
	.byte		N09	, As1, v120
	.byte	W12
	.byte			Fn2
	.byte	W12
	.byte			As2
	.byte	W12
	.byte			Cs3
	.byte	W12
	.byte			Fn3
	.byte	W12
	.byte			As3
	.byte	W12
	.byte			Cs4
	.byte	W12
	.byte			Fn4
	.byte	W12
	.byte			As1
	.byte	W12
	.byte			Fn2
	.byte	W12
	.byte			As2
	.byte	W12
	.byte			Cs3
	.byte	W12
	.byte			Fn3
	.byte	W12
	.byte			As3
	.byte	W12
	.byte			Cn4
	.byte	W12
	.byte			Ds4
	.byte	W12
	.byte	GOTO	
		.word	song041_4_5
	.byte	FINE

	@********************** Track  5 **********************@

	.global song041_5
song041_5:	@ 0x085660DD
	.byte	KEYSH	, 0
song041_5_1:
	.byte	VOICE	, 50
	.byte	VOL	, v024
	.byte	PAN	, c_v-29
	.byte		N96	, Dn3, v104
	.byte	W06
	.byte	VOL	, v024
	.byte	W01
	.byte		v024
	.byte	W01
	.byte		v025
	.byte	W01
	.byte		v025
	.byte	W01
	.byte		v026
	.byte	W01
	.byte		v026
	.byte	W01
	.byte		v027
	.byte	W01
	.byte		v027
	.byte	W01
	.byte		v028
	.byte	W01
	.byte		v029
	.byte	W01
	.byte		v029
	.byte	W01
	.byte		v030
	.byte	W01
	.byte		v030
	.byte	W01
	.byte		v031
	.byte	W01
	.byte		v031
	.byte	W01
	.byte		v032
	.byte	W01
	.byte		v032
	.byte	W01
	.byte		v033
	.byte	W01
	.byte		v034
	.byte	W01
	.byte		v034
	.byte	W01
	.byte		v035
	.byte	W01
	.byte		v036
	.byte	W01
	.byte		v036
	.byte	W01
	.byte		v036
	.byte	W01
	.byte		v037
	.byte	W01
	.byte		v038
	.byte	W01
	.byte		v038
	.byte	W01
	.byte		v039
	.byte	W01
	.byte		v039
	.byte	W01
	.byte		v040
	.byte	W01
	.byte		v041
	.byte	W01
	.byte		v041
	.byte	W01
	.byte		v042
	.byte	W01
	.byte		v042
	.byte	W01
	.byte		v043
	.byte	W01
	.byte		v043
	.byte	W01
	.byte		v044
	.byte	W01
	.byte		v045
	.byte	W01
	.byte		v045
	.byte	W01
	.byte		v046
	.byte	W01
	.byte		v047
	.byte	W48
	.byte	W02
	.byte		N72	, Cn3
	.byte	W60
	.byte	W02
	.byte	VOL	, v047
	.byte	W02
	.byte		v046
	.byte	W01
	.byte		v045
	.byte	W01
	.byte		v044
	.byte	W01
	.byte		v044
	.byte	W01
	.byte		v043
	.byte	W01
	.byte		v042
	.byte	W01
	.byte		v042
	.byte	W01
	.byte		v041
	.byte	W01
	.byte		v040
	.byte		N24	, Ds3
	.byte	W01
	.byte	VOL	, v039
	.byte	W01
	.byte		v039
	.byte	W01
	.byte		v038
	.byte	W01
	.byte		v037
	.byte	W01
	.byte		v036
	.byte	W01
	.byte		v036
	.byte	W01
	.byte		v035
	.byte	W01
	.byte		v035
	.byte	W01
	.byte		v034
	.byte	W01
	.byte		v033
	.byte	W01
	.byte		v032
	.byte	W01
	.byte		v031
	.byte	W01
	.byte		v031
	.byte	W01
	.byte		v030
	.byte	W01
	.byte		v030
	.byte	W01
	.byte		v029
	.byte	W01
	.byte		v028
	.byte	W01
	.byte		v027
	.byte	W01
	.byte		v027
	.byte	W01
	.byte		v026
	.byte	W01
	.byte		v026
	.byte	W01
	.byte		v025
	.byte	W01
	.byte		v024
	.byte	W01
	.byte		v023
	.byte		N24	, Dn3
	.byte	W03
	.byte	VOL	, v023
	.byte	W01
	.byte		v024
	.byte	W01
	.byte		v024
	.byte	W01
	.byte		v025
	.byte	W01
	.byte		v025
	.byte	W01
	.byte		v026
	.byte	W01
	.byte		v026
	.byte	W01
	.byte		v026
	.byte	W02
	.byte		v027
	.byte	W01
	.byte		v027
	.byte	W01
	.byte		v028
	.byte	W01
	.byte		v028
	.byte	W01
	.byte		v029
	.byte	W01
	.byte		v029
	.byte	W01
	.byte		v030
	.byte	W01
	.byte		v030
	.byte	W02
	.byte		v031
	.byte	W01
	.byte		v031
	.byte	W01
	.byte		v031
	.byte	W01
	.byte		v032
	.byte		N24	, As2
	.byte	W01
	.byte	VOL	, v032
	.byte	W01
	.byte		v033
	.byte	W01
	.byte		v033
	.byte	W01
	.byte		v034
	.byte	W02
	.byte		v034
	.byte	W01
	.byte		v035
	.byte	W01
	.byte		v035
	.byte	W01
	.byte		v036
	.byte	W01
	.byte		v036
	.byte	W01
	.byte		v036
	.byte	W01
	.byte		v037
	.byte	W01
	.byte		v037
	.byte	W02
	.byte		v038
	.byte	W01
	.byte		v038
	.byte	W01
	.byte		v039
	.byte	W01
	.byte		v039
	.byte	W01
	.byte		v040
	.byte	W01
	.byte		v040
	.byte	W01
	.byte		v041
	.byte	W01
	.byte		v041
	.byte	W02
	.byte		v042
	.byte		N24	, Fn2
	.byte	W01
	.byte	VOL	, v042
	.byte	W01
	.byte		v042
	.byte	W01
	.byte		v043
	.byte	W01
	.byte		v043
	.byte	W01
	.byte		v044
	.byte	W01
	.byte		v044
	.byte	W01
	.byte		v045
	.byte	W02
	.byte		v045
	.byte	W01
	.byte		v046
	.byte	W01
	.byte		v047
	.byte	W13
	.byte		N24	, Dn3
	.byte	W24
	.byte			Cn3
	.byte	W24
	.byte			Gs2
	.byte	W24
	.byte		N30	, Fn2
	.byte	W05
	.byte	VOL	, v047
	.byte	W01
	.byte		v046
	.byte	W01
	.byte		v044
	.byte	W01
	.byte		v043
	.byte	W01
	.byte		v042
	.byte	W01
	.byte		v041
	.byte	W01
	.byte		v039
	.byte	W01
	.byte		v038
	.byte	W01
	.byte		v037
	.byte	W01
	.byte		v036
	.byte	W01
	.byte		v035
	.byte	W01
	.byte		v033
	.byte	W01
	.byte		v032
	.byte	W01
	.byte		v031
	.byte	W01
	.byte		v030
	.byte	W01
	.byte		v028
	.byte	W01
	.byte		v027
	.byte	W01
	.byte		v026
	.byte	W01
	.byte		v025
	.byte	W01
	.byte		v024
	.byte	W12
	.byte		v031
	.byte		N06	, Dn3
	.byte	W01
	.byte	VOL	, v042
	.byte	W01
	.byte		v047
	.byte	W04
	.byte		N06	, Cn3
	.byte	W06
	.byte		N96	, As2
	.byte	W96
	.byte		N21	, Cs3
	.byte	W24
	.byte			Gs2
	.byte	W24
	.byte			Cs3
	.byte	W24
	.byte			As2
	.byte	W24
	.byte		N72	, Cn3
	.byte	W72
	.byte		N12	, An2
	.byte	W12
	.byte			Cn3
	.byte	W12
	.byte		N24	, Fn3
	.byte	W24
	.byte	VOL	, v047
	.byte		N24	, Cn3
	.byte	W03
	.byte	VOL	, v046
	.byte	W02
	.byte		v046
	.byte	W02
	.byte		v045
	.byte	W02
	.byte		v045
	.byte	W01
	.byte		v044
	.byte	W02
	.byte		v044
	.byte	W02
	.byte		v043
	.byte	W02
	.byte		v043
	.byte	W02
	.byte		v042
	.byte	W01
	.byte		v042
	.byte	W02
	.byte		v042
	.byte	W02
	.byte		v041
	.byte	W01
	.byte		N24	, An2
	.byte	W01
	.byte	VOL	, v041
	.byte	W02
	.byte		v040
	.byte	W01
	.byte		v040
	.byte	W02
	.byte		v039
	.byte	W02
	.byte		v039
	.byte	W02
	.byte		v038
	.byte	W02
	.byte		v038
	.byte	W01
	.byte		v037
	.byte	W02
	.byte		v037
	.byte	W02
	.byte		v036
	.byte	W02
	.byte		v036
	.byte	W02
	.byte		v036
	.byte	W01
	.byte		v035
	.byte	W02
	.byte		v035
	.byte		N24	, Fn2
	.byte	W02
	.byte	VOL	, v034
	.byte	W02
	.byte		v034
	.byte	W02
	.byte		v033
	.byte	W01
	.byte		v033
	.byte	W02
	.byte		v032
	.byte	W02
	.byte		v032
	.byte	W02
	.byte		v031
	.byte	W02
	.byte		v031
	.byte	W01
	.byte		v031
	.byte	W02
	.byte		v030
	.byte	W02
	.byte		v030
	.byte	W02
	.byte		v029
	.byte	W02
	.byte		v030
	.byte		N96	, Cs3
	.byte	W01
	.byte	VOL	, v030
	.byte	W01
	.byte		v031
	.byte	W01
	.byte		v031
	.byte	W01
	.byte		v031
	.byte	W01
	.byte		v032
	.byte	W01
	.byte		v033
	.byte	W01
	.byte		v033
	.byte	W01
	.byte		v034
	.byte	W01
	.byte		v034
	.byte	W01
	.byte		v035
	.byte	W01
	.byte		v035
	.byte	W01
	.byte		v036
	.byte	W01
	.byte		v036
	.byte	W01
	.byte		v037
	.byte	W01
	.byte		v037
	.byte	W01
	.byte		v038
	.byte	W01
	.byte		v039
	.byte	W01
	.byte		v039
	.byte	W01
	.byte		v040
	.byte	W01
	.byte		v040
	.byte	W01
	.byte		v041
	.byte	W01
	.byte		v041
	.byte	W01
	.byte		v042
	.byte	W01
	.byte		v042
	.byte	W01
	.byte		v043
	.byte	W01
	.byte		v043
	.byte	W01
	.byte		v044
	.byte	W01
	.byte		v044
	.byte	W01
	.byte		v045
	.byte	W01
	.byte		v046
	.byte	W01
	.byte		v046
	.byte	W01
	.byte		v047
	.byte	W64
	.byte		N96	, Ds3
	.byte	W56
	.byte	W02
	.byte	VOL	, v047
	.byte	W03
	.byte		v046
	.byte	W01
	.byte		v046
	.byte	W01
	.byte		v045
	.byte	W01
	.byte		v045
	.byte	W01
	.byte		v044
	.byte	W01
	.byte		v044
	.byte	W01
	.byte		v043
	.byte	W01
	.byte		v043
	.byte	W02
	.byte		v042
	.byte	W01
	.byte		v042
	.byte	W01
	.byte		v042
	.byte	W01
	.byte		v041
	.byte	W01
	.byte		v041
	.byte	W01
	.byte		v040
	.byte	W01
	.byte		v040
	.byte	W01
	.byte		v039
	.byte	W02
	.byte		v039
	.byte	W01
	.byte		v038
	.byte	W01
	.byte		v038
	.byte	W01
	.byte		v037
	.byte	W01
	.byte		v037
	.byte	W01
	.byte		v036
	.byte	W01
	.byte		v036
	.byte	W01
	.byte		v036
	.byte	W02
	.byte		v035
	.byte	W01
	.byte		v035
	.byte	W01
	.byte		v034
	.byte	W01
	.byte		v034
	.byte	W01
	.byte		v033
	.byte	W01
	.byte		v033
	.byte	W01
	.byte		v032
	.byte	W01
	.byte		v032
	.byte	W01
	.byte		v031
	.byte		N96	, Cs3
	.byte	W03
	.byte	VOL	, v032
	.byte	W02
	.byte		v032
	.byte	W02
	.byte		v033
	.byte	W02
	.byte		v033
	.byte	W02
	.byte		v034
	.byte	W02
	.byte		v034
	.byte	W02
	.byte		v035
	.byte	W02
	.byte		v035
	.byte	W02
	.byte		v036
	.byte	W02
	.byte		v036
	.byte	W02
	.byte		v036
	.byte	W02
	.byte		v037
	.byte	W02
	.byte		v037
	.byte	W02
	.byte		v038
	.byte	W02
	.byte		v038
	.byte	W02
	.byte		v039
	.byte	W02
	.byte		v039
	.byte	W02
	.byte		v040
	.byte	W02
	.byte		v040
	.byte	W02
	.byte		v041
	.byte	W02
	.byte		v041
	.byte	W02
	.byte		v042
	.byte	W02
	.byte		v042
	.byte	W02
	.byte		v042
	.byte	W02
	.byte		v043
	.byte	W02
	.byte		v043
	.byte	W02
	.byte		v044
	.byte	W02
	.byte		v044
	.byte	W02
	.byte		v045
	.byte	W02
	.byte		v045
	.byte	W02
	.byte		v046
	.byte	W02
	.byte		v047
	.byte	W30
	.byte	W01
	.byte		N48	, Cn3
	.byte	W60
	.byte		N12	, An2, v112
	.byte	W12
	.byte			As2
	.byte	W12
	.byte			Cn3
	.byte	W12
	.byte		N24	, Cs3
	.byte	W24
	.byte			As2
	.byte	W24
	.byte			Cs3
	.byte	W24
	.byte			Fs3
	.byte	W24
	.byte			Ds3
	.byte	W24
	.byte			Cn3
	.byte	W24
	.byte			Gs2
	.byte	W24
	.byte			Cn3
	.byte	W24
	.byte		TIE	, Cs3, v104
	.byte	W76
	.byte	VOL	, v047
	.byte	W04
	.byte		v046
	.byte	W03
	.byte		v046
	.byte	W02
	.byte		v045
	.byte	W03
	.byte		v045
	.byte	W03
	.byte		v044
	.byte	W03
	.byte		v044
	.byte	W02
	.byte		v043
	.byte	W03
	.byte		v043
	.byte	W03
	.byte		v042
	.byte	W03
	.byte		v042
	.byte	W01
	.byte		v042
	.byte	W03
	.byte		v041
	.byte	W02
	.byte		v041
	.byte	W02
	.byte		v040
	.byte	W03
	.byte		v040
	.byte	W01
	.byte		v039
	.byte	W01
	.byte		v039
	.byte	W03
	.byte		v038
	.byte	W01
	.byte		v038
	.byte	W02
	.byte		v037
	.byte	W03
	.byte		v037
	.byte	W01
	.byte		v036
	.byte	W01
	.byte		v036
	.byte	W02
	.byte		v036
	.byte	W01
	.byte		v035
	.byte	W01
	.byte		v035
	.byte	W02
	.byte		v034
	.byte	W01
	.byte		v034
	.byte	W02
	.byte		v033
	.byte	W01
	.byte		v033
	.byte	W01
	.byte		v032
	.byte	W02
	.byte		v032
	.byte	W01
	.byte		v031
	.byte	W01
	.byte		v031
	.byte	W02
	.byte		v031
	.byte	W01
	.byte		v030
	.byte	W02
	.byte		v029
	.byte	W01
	.byte		v029
	.byte	W01
	.byte		v028
	.byte	W02
	.byte		v028
	.byte	W01
	.byte		v027
	.byte	W01
	.byte		v026
	.byte	W02
	.byte		v026
	.byte	W01
	.byte		v025
	.byte	W02
	.byte		v024
	.byte	W01
	.byte		v024
	.byte	W01
	.byte		v023
	.byte	W02
	.byte		v022
	.byte	W01
	.byte		v021
	.byte	W01
	.byte		v021
	.byte	W02
	.byte		v020
	.byte	W01
	.byte		v019
	.byte	W02
	.byte		v018
	.byte	W01
	.byte		v017
	.byte	W01
	.byte		v016
	.byte	W02
	.byte		v015
	.byte	W01
	.byte		v014
	.byte	W01
	.byte		v013
	.byte	W15
	.byte		EOT	
	.byte	GOTO	
		.word	song041_5_1
	.byte	FINE

	@********************** Track  6 **********************@

	.global song041_6
song041_6:	@ 0x08566417
	.byte	KEYSH	, 0
song041_6_1:
	.byte	VOICE	, 10
	.byte	VOL	, v018
	.byte	PAN	, c_v+40
	.byte	W06
	.byte		N12	, Dn4, v060
	.byte	W72
	.byte			As3, v076
	.byte	W12
	.byte			Fn4
	.byte	W06
	.byte	W06
	.byte		N12	
	.byte	W48
	.byte			Cn4, v060
	.byte	W42
	.byte	W06
	.byte			Dn4, v076
	.byte	W72
	.byte			As3
	.byte	W12
	.byte			Dn4
	.byte	W06
	.byte	W06
	.byte			Fn4
	.byte	W36
	.byte			Gn4
	.byte	W12
	.byte			Fn4
	.byte	W36
	.byte		N12	
	.byte	W06
	.byte	W06
	.byte			Fs4
	.byte	W60
	.byte			Cs4
	.byte	W12
	.byte			Gs4, v068
	.byte	W18
	.byte	W06
	.byte			Fn4, v076
	.byte	W60
	.byte			Cs4
	.byte	W12
	.byte			Gs3
	.byte	W18
	.byte	W06
	.byte			Cn4
	.byte	W90
	.byte	W06
	.byte			Fn4
	.byte	W90
	.byte	VOICE	, 99
	.byte	W06
	.byte		N60	, Fs3, v060
	.byte	W72
	.byte		N12	, As3
	.byte	W12
	.byte			Fs3
	.byte	W06
	.byte	W06
	.byte		N24	, Gs3
	.byte	W48
	.byte			As3
	.byte	W24
	.byte			Cn4
	.byte	W18
	.byte	W06
	.byte		N36	, Cs4
	.byte	W48
	.byte		N12	
	.byte	W12
	.byte			Cn4
	.byte	W12
	.byte		N24	, As3
	.byte	W18
	.byte	W06
	.byte		N36	, Cn4
	.byte	W48
	.byte			An3
	.byte	W42
	.byte	W06
	.byte		N72	, As3
	.byte	W72
	.byte		N12	, Cs4
	.byte	W12
	.byte			As3
	.byte	W06
	.byte	W06
	.byte		N36	, Cn4
	.byte	W48
	.byte			Ds4
	.byte	W42
	.byte	W06
	.byte		N72	, Cs4
	.byte	W72
	.byte		N24	, As3
	.byte	W18
	.byte	W06
	.byte			Fn4
	.byte	W48
	.byte		N12	
	.byte	W12
	.byte			Ds4
	.byte	W12
	.byte			Cn4
	.byte	W12
	.byte			Ds4
	.byte	W06
	.byte	GOTO	
		.word	song041_6_1
	.byte	W06
	.byte	FINE

	.align 2
	.global song041
song041:	@ 0x085664A4
	.byte	6		@ trackCount
	.byte	0		@ blockCount
	.byte	10		@ priority
	.byte	148		@ reverb

	.word	voicegroup064		@ voicegroup/tone

	.word	song041_1		@ track
	.word	song041_2		@ track
	.word	song041_3		@ track
	.word	song041_4		@ track
	.word	song041_5		@ track
	.word	song041_6		@ track
