	.include "MPlayDef.s"

	.section .rodata

	@********************** Track  1 **********************@

	.align 2
	.global song017_1
song017_1:	@ 0x085543C0
	.byte	KEYSH	, 0
song017_1_3:
	.byte	TEMPO	, 57
	.byte	VOICE	, 48
	.byte	VOL	, v050
	.byte	PAN	, c_v-17
	.byte		N24	, Dn3, v084
	.byte	W24
	.byte			Gn3
	.byte	W24
	.byte			Fs3
	.byte	W24
	.byte	VOL	, v050
	.byte		N06	, En3
	.byte	W12
	.byte			Dn3
	.byte	W12
	.byte		N24	, En3
	.byte	W24
	.byte			Cs3, v088
	.byte	W24
	.byte			Dn3, v092
	.byte	W24
	.byte			Bn2, v100
	.byte	W24
	.byte	VOL	, v027
	.byte		N84	, Dn3, v108
	.byte	W02
	.byte	VOL	, v028
	.byte	W01
	.byte		v028
	.byte	W01
	.byte		v029
	.byte	W02
	.byte		v029
	.byte	W01
	.byte		v030
	.byte	W01
	.byte		v030
	.byte	W01
	.byte		v031
	.byte	W02
	.byte		v031
	.byte	W01
	.byte		v032
	.byte	W01
	.byte		v032
	.byte	W01
	.byte		v033
	.byte	W01
	.byte		v033
	.byte	W02
	.byte		v034
	.byte	W01
	.byte		v034
	.byte	W01
	.byte		v035
	.byte	W01
	.byte		v035
	.byte	W02
	.byte		v036
	.byte	W01
	.byte		v036
	.byte	W01
	.byte		v037
	.byte	W01
	.byte		v037
	.byte	W01
	.byte		v038
	.byte	W02
	.byte		v038
	.byte	W01
	.byte		v039
	.byte	W01
	.byte		v039
	.byte	W01
	.byte		v040
	.byte	W02
	.byte		v040
	.byte	W01
	.byte		v041
	.byte	W01
	.byte		v041
	.byte	W01
	.byte		v042
	.byte	W01
	.byte		v042
	.byte	W02
	.byte		v043
	.byte	W01
	.byte		v043
	.byte	W01
	.byte		v044
	.byte	W01
	.byte		v044
	.byte	W02
	.byte		v045
	.byte	W01
	.byte		v045
	.byte	W01
	.byte		v046
	.byte	W01
	.byte		v046
	.byte	W02
	.byte		v047
	.byte	W01
	.byte		v047
	.byte	W01
	.byte		v048
	.byte	W01
	.byte		v048
	.byte	W01
	.byte		v049
	.byte	W02
	.byte		v050
	.byte	W28
	.byte	W01
	.byte		N06	, En3, v100
	.byte	W06
	.byte			Dn3
	.byte	W06
	.byte		N48	, Cn3
	.byte	W48
	.byte			Gn2
	.byte	W12
	.byte	VOL	, v050
	.byte	W01
	.byte		v049
	.byte	W01
	.byte		v049
	.byte	W01
	.byte		v048
	.byte	W01
	.byte		v048
	.byte	W01
	.byte		v047
	.byte	W01
	.byte		v047
	.byte	W01
	.byte		v046
	.byte	W02
	.byte		v046
	.byte	W01
	.byte		v045
	.byte	W01
	.byte		v045
	.byte	W01
	.byte		v044
	.byte	W01
	.byte		v044
	.byte	W01
	.byte		v043
	.byte	W01
	.byte		v043
	.byte	W01
	.byte		v042
	.byte	W02
	.byte		v042
	.byte	W01
	.byte		v041
	.byte	W01
	.byte		v041
	.byte	W01
	.byte		v040
	.byte	W01
	.byte		v040
	.byte	W01
	.byte		v039
	.byte	W01
	.byte		v039
	.byte	W01
	.byte		v038
	.byte	W02
	.byte		v038
	.byte	W01
	.byte		v037
	.byte	W01
	.byte		v037
	.byte	W01
	.byte		v036
	.byte	W01
	.byte		v036
	.byte	W01
	.byte		v035
	.byte	W01
	.byte		v035
	.byte	W01
	.byte		v034
	.byte	W02
	.byte		v034
	.byte		N24	, En3
	.byte	W02
	.byte	VOL	, v034
	.byte	W01
	.byte		v035
	.byte	W01
	.byte		v035
	.byte	W01
	.byte		v036
	.byte	W01
	.byte		v036
	.byte	W02
	.byte		v037
	.byte	W01
	.byte		v037
	.byte	W01
	.byte		v038
	.byte	W01
	.byte		v038
	.byte	W01
	.byte		v039
	.byte	W01
	.byte		v039
	.byte	W01
	.byte		v040
	.byte	W02
	.byte		v040
	.byte	W01
	.byte		v041
	.byte	W01
	.byte		v041
	.byte	W01
	.byte		v042
	.byte	W01
	.byte		v042
	.byte	W01
	.byte		v043
	.byte	W02
	.byte		v043
	.byte	W01
	.byte		v044
	.byte		N24	, An3
	.byte	W01
	.byte	VOL	, v044
	.byte	W01
	.byte		v045
	.byte	W01
	.byte		v045
	.byte	W01
	.byte		v046
	.byte	W01
	.byte		v046
	.byte	W02
	.byte		v047
	.byte	W01
	.byte		v047
	.byte	W01
	.byte		v048
	.byte	W01
	.byte		v048
	.byte	W01
	.byte		v049
	.byte	W01
	.byte		v049
	.byte	W01
	.byte		v050
	.byte	W11
	.byte		N24	, Gn3
	.byte	W24
	.byte		N06	, Fs3
	.byte	W12
	.byte			En3
	.byte	W12
	.byte		N48	, Fs3
	.byte	W48
	.byte			Gn3
	.byte	W48
	.byte			En3
	.byte	W48
	.byte			Gn3
	.byte	W48
	.byte		N84	, Fs3
	.byte	W24
	.byte	W01
	.byte	VOL	, v050
	.byte	W03
	.byte		v049
	.byte	W01
	.byte		v049
	.byte	W01
	.byte		v048
	.byte	W01
	.byte		v048
	.byte	W01
	.byte		v047
	.byte	W01
	.byte		v047
	.byte	W01
	.byte		v046
	.byte	W01
	.byte		v046
	.byte	W01
	.byte		v045
	.byte	W01
	.byte		v045
	.byte	W02
	.byte		v044
	.byte	W01
	.byte		v044
	.byte	W01
	.byte		v043
	.byte	W01
	.byte		v043
	.byte	W01
	.byte		v042
	.byte	W01
	.byte		v042
	.byte	W01
	.byte		v041
	.byte	W01
	.byte		v041
	.byte	W01
	.byte		v040
	.byte	W01
	.byte		v040
	.byte	W02
	.byte		v039
	.byte	W01
	.byte		v039
	.byte	W01
	.byte		v038
	.byte	W01
	.byte		v038
	.byte	W01
	.byte		v037
	.byte	W01
	.byte		v037
	.byte	W01
	.byte		v036
	.byte	W01
	.byte		v036
	.byte	W01
	.byte		v035
	.byte	W01
	.byte		v035
	.byte	W02
	.byte		v034
	.byte	W01
	.byte		v034
	.byte	W01
	.byte		v033
	.byte	W01
	.byte		v033
	.byte	W01
	.byte		v032
	.byte	W01
	.byte		v032
	.byte	W01
	.byte		v031
	.byte	W01
	.byte		v031
	.byte	W01
	.byte		v030
	.byte	W01
	.byte		v030
	.byte	W02
	.byte		v029
	.byte	W01
	.byte		v029
	.byte	W01
	.byte		v028
	.byte	W01
	.byte		v028
	.byte	W01
	.byte		v027
	.byte	W01
	.byte		v027
	.byte	W01
	.byte		v026
	.byte	W01
	.byte		v026
	.byte	W01
	.byte		v025
	.byte	W01
	.byte		v025
	.byte	W02
	.byte		v024
	.byte	W01
	.byte		v024
	.byte	W01
	.byte		v023
	.byte	W01
	.byte		v023
	.byte	W01
	.byte		v022
	.byte	W01
	.byte		v022
	.byte	W01
	.byte		v021
	.byte	W01
	.byte		v021
	.byte	W01
	.byte		v020
	.byte	W01
	.byte		v020
	.byte	W02
	.byte		v019
	.byte	W02
	.byte	W96
	.byte	W96
	.byte	W96
	.byte	W96
	.byte	W96
	.byte	W96
	.byte	W96
	.byte	W96
	.byte	VOICE	, 19
	.byte	VOL	, v035
	.byte	PAN	, c_v-30
	.byte		N84	, Cn3
	.byte	W03
	.byte	VOL	, v036
	.byte	W02
	.byte		v036
	.byte	W01
	.byte		v037
	.byte	W02
	.byte		v037
	.byte	W02
	.byte		v038
	.byte	W01
	.byte		v038
	.byte	W02
	.byte		v039
	.byte	W02
	.byte		v039
	.byte	W01
	.byte		v040
	.byte	W02
	.byte		v040
	.byte	W02
	.byte		v041
	.byte	W01
	.byte		v041
	.byte	W02
	.byte		v042
	.byte	W02
	.byte		v042
	.byte	W01
	.byte		v043
	.byte	W02
	.byte		v043
	.byte	W02
	.byte		v044
	.byte	W01
	.byte		v044
	.byte	W02
	.byte		v045
	.byte	W02
	.byte		v045
	.byte	W01
	.byte		v046
	.byte	W02
	.byte		v046
	.byte	W02
	.byte		v047
	.byte	W01
	.byte		v047
	.byte	W02
	.byte		v048
	.byte	W02
	.byte		v048
	.byte	W01
	.byte		v049
	.byte	W02
	.byte		v049
	.byte	W02
	.byte		v050
	.byte	W01
	.byte		v050
	.byte	W02
	.byte		v051
	.byte	W02
	.byte		v051
	.byte	W01
	.byte		v052
	.byte	W02
	.byte		v052
	.byte	W02
	.byte		v053
	.byte	W01
	.byte		v053
	.byte	W02
	.byte		v054
	.byte	W02
	.byte		v054
	.byte	W02
	.byte		v055
	.byte	W01
	.byte		v055
	.byte	W02
	.byte		v056
	.byte	W02
	.byte		v056
	.byte	W01
	.byte		v057
	.byte	W02
	.byte		v057
	.byte	W02
	.byte		v058
	.byte	W01
	.byte		v058
	.byte	W02
	.byte		v059
	.byte	W02
	.byte		v059
	.byte	W01
	.byte		v060
	.byte	W01
	.byte		N06	, Dn3
	.byte	W01
	.byte	VOL	, v060
	.byte	W02
	.byte		v061
	.byte	W01
	.byte		v061
	.byte	W02
	.byte		v062
	.byte		N06	, Cn3
	.byte	W02
	.byte	VOL	, v062
	.byte	W01
	.byte		v063
	.byte	W01
	.byte		v064
	.byte	W02
	.byte		N96	, As2
	.byte	W01
	.byte	VOL	, v063
	.byte	W02
	.byte		v062
	.byte	W01
	.byte		v062
	.byte	W02
	.byte		v061
	.byte	W01
	.byte		v061
	.byte	W02
	.byte		v060
	.byte	W01
	.byte		v060
	.byte	W02
	.byte		v059
	.byte	W01
	.byte		v059
	.byte	W02
	.byte		v058
	.byte	W01
	.byte		v058
	.byte	W01
	.byte		v057
	.byte	W02
	.byte		v057
	.byte	W01
	.byte		v056
	.byte	W02
	.byte		v056
	.byte	W01
	.byte		v055
	.byte	W02
	.byte		v055
	.byte	W01
	.byte		v054
	.byte	W02
	.byte		v054
	.byte	W01
	.byte		v053
	.byte	W02
	.byte		v053
	.byte	W01
	.byte		v052
	.byte	W02
	.byte		v052
	.byte	W01
	.byte		v051
	.byte	W02
	.byte		v051
	.byte	W01
	.byte		v050
	.byte	W02
	.byte		v050
	.byte	W01
	.byte		v049
	.byte	W02
	.byte		v049
	.byte	W01
	.byte		v048
	.byte	W02
	.byte		v048
	.byte	W01
	.byte		v047
	.byte	W01
	.byte		v047
	.byte	W02
	.byte		v046
	.byte	W01
	.byte		v046
	.byte	W02
	.byte		v045
	.byte	W01
	.byte		v045
	.byte	W02
	.byte		v044
	.byte	W01
	.byte		v044
	.byte	W02
	.byte		v043
	.byte	W01
	.byte		v043
	.byte	W02
	.byte		v042
	.byte	W01
	.byte		v042
	.byte	W02
	.byte		v041
	.byte	W01
	.byte		v041
	.byte	W02
	.byte		v040
	.byte	W01
	.byte		v040
	.byte	W02
	.byte		v039
	.byte	W01
	.byte		v039
	.byte	W02
	.byte		v038
	.byte	W01
	.byte		v038
	.byte	W01
	.byte		v037
	.byte	W02
	.byte		v037
	.byte	W01
	.byte		v036
	.byte	W02
	.byte		v036
	.byte	W01
	.byte		v035
	.byte	W02
	.byte		v035
	.byte	W01
	.byte		v034
	.byte	W02
	.byte		v034
	.byte	W01
	.byte		v033
	.byte	W02
	.byte		v033
	.byte	W01
	.byte		v032
	.byte	W02
	.byte		v032
	.byte	W01
	.byte		v031
	.byte	W02
	.byte		N84	, Cn3
	.byte	W01
	.byte	VOL	, v031
	.byte	W02
	.byte		v032
	.byte	W01
	.byte		v032
	.byte	W02
	.byte		v033
	.byte	W01
	.byte		v033
	.byte	W02
	.byte		v034
	.byte	W01
	.byte		v034
	.byte	W02
	.byte		v035
	.byte	W01
	.byte		v035
	.byte	W02
	.byte		v036
	.byte	W01
	.byte		v036
	.byte	W01
	.byte		v037
	.byte	W02
	.byte		v037
	.byte	W01
	.byte		v038
	.byte	W02
	.byte		v038
	.byte	W01
	.byte		v039
	.byte	W02
	.byte		v039
	.byte	W01
	.byte		v040
	.byte	W02
	.byte		v040
	.byte	W01
	.byte		v041
	.byte	W02
	.byte		v041
	.byte	W01
	.byte		v042
	.byte	W02
	.byte		v042
	.byte	W01
	.byte		v043
	.byte	W02
	.byte		v043
	.byte	W01
	.byte		v044
	.byte	W02
	.byte		v044
	.byte	W01
	.byte		v045
	.byte	W02
	.byte		v045
	.byte	W01
	.byte		v046
	.byte	W02
	.byte		v046
	.byte	W01
	.byte		v047
	.byte	W01
	.byte		v047
	.byte	W02
	.byte		v048
	.byte	W01
	.byte		v048
	.byte	W02
	.byte		v049
	.byte	W01
	.byte		v049
	.byte	W02
	.byte		v050
	.byte	W01
	.byte		v050
	.byte	W02
	.byte		v051
	.byte	W01
	.byte		v051
	.byte	W02
	.byte		v052
	.byte	W01
	.byte		v052
	.byte	W02
	.byte		v053
	.byte	W01
	.byte		v053
	.byte	W02
	.byte		v054
	.byte	W01
	.byte		v054
	.byte	W02
	.byte		v055
	.byte	W01
	.byte		v055
	.byte	W02
	.byte		v056
	.byte	W01
	.byte		v056
	.byte	W01
	.byte		v057
	.byte	W02
	.byte		v057
	.byte	W01
	.byte		v058
	.byte	W02
	.byte		v058
	.byte	W01
	.byte		v059
	.byte	W02
	.byte		v059
	.byte		N06	, Dn3
	.byte	W01
	.byte	VOL	, v060
	.byte	W02
	.byte		v060
	.byte	W01
	.byte		v061
	.byte	W02
	.byte		v061
	.byte		N06	, Cn3
	.byte	W01
	.byte	VOL	, v062
	.byte	W02
	.byte		v062
	.byte	W01
	.byte		v063
	.byte	W02
song017_1_1:
	.byte	VOL	, v064
	.byte		N96	, As2, v100
	.byte	W03
	.byte	VOL	, v063
	.byte	W01
	.byte		v062
	.byte	W02
	.byte		v062
	.byte	W01
	.byte		v061
	.byte	W02
	.byte		v061
	.byte	W01
	.byte		v060
	.byte	W02
	.byte		v060
	.byte	W01
	.byte		v059
	.byte	W02
	.byte		v059
	.byte	W01
	.byte		v058
	.byte	W02
	.byte		v058
	.byte	W01
	.byte		v057
	.byte	W02
	.byte		v057
	.byte	W01
	.byte		v056
	.byte	W02
	.byte		v056
	.byte	W01
	.byte		v055
	.byte	W02
	.byte		v055
	.byte	W01
	.byte		v054
	.byte	W02
	.byte		v054
	.byte	W01
	.byte		v053
	.byte	W02
	.byte		v053
	.byte	W01
	.byte		v052
	.byte	W02
	.byte		v052
	.byte	W01
	.byte		v051
	.byte	W02
	.byte		v051
	.byte	W01
	.byte		v050
	.byte	W02
	.byte		v050
	.byte	W01
	.byte		v049
	.byte	W02
	.byte		v049
	.byte	W01
	.byte		v048
	.byte	W02
	.byte		v048
	.byte	W01
	.byte		v047
	.byte	W02
	.byte		v047
	.byte	W01
	.byte		v046
	.byte	W02
	.byte		v046
	.byte	W01
	.byte		v045
	.byte	W02
	.byte		v045
	.byte	W01
	.byte		v044
	.byte	W02
	.byte		v044
	.byte	W01
	.byte		v043
	.byte	W02
	.byte		v043
	.byte	W01
	.byte		v042
	.byte	W02
	.byte		v042
	.byte	W01
	.byte		v041
	.byte	W02
	.byte		v041
	.byte	W01
	.byte		v040
	.byte	W02
	.byte		v040
	.byte	W01
	.byte		v039
	.byte	W02
	.byte		v039
	.byte	W01
	.byte		v038
	.byte	W02
	.byte		v038
	.byte	W01
	.byte		v037
	.byte	W02
	.byte		v037
	.byte	W01
	.byte		v036
	.byte	W02
	.byte		v036
	.byte	W01
	.byte		v035
	.byte	W02
	.byte		v035
	.byte	W01
	.byte		v034
	.byte	W02
	.byte		v034
	.byte	W01
	.byte		v033
	.byte	W02
	.byte		v033
	.byte	W01
	.byte		v032
	.byte	W02
	.byte	PEND
	.byte		v032
	.byte		N96	, Cn3
	.byte	W03
	.byte	VOL	, v032
	.byte	W01
	.byte		v033
	.byte	W02
	.byte		v033
	.byte	W01
	.byte		v034
	.byte	W02
	.byte		v034
	.byte	W01
	.byte		v035
	.byte	W02
	.byte		v035
	.byte	W01
	.byte		v036
	.byte	W02
	.byte		v036
	.byte	W01
	.byte		v037
	.byte	W02
	.byte		v037
	.byte	W01
	.byte		v038
	.byte	W02
	.byte		v038
	.byte	W01
	.byte		v039
	.byte	W02
	.byte		v039
	.byte	W01
	.byte		v040
	.byte	W02
	.byte		v040
	.byte	W01
	.byte		v041
	.byte	W02
	.byte		v041
	.byte	W01
	.byte		v042
	.byte	W02
	.byte		v042
	.byte	W01
	.byte		v043
	.byte	W02
	.byte		v043
	.byte	W01
	.byte		v044
	.byte	W02
	.byte		v044
	.byte	W01
	.byte		v045
	.byte	W02
	.byte		v045
	.byte	W01
	.byte		v046
	.byte	W02
	.byte		v046
	.byte	W01
	.byte		v047
	.byte	W02
	.byte		v047
	.byte	W01
	.byte		v048
	.byte	W02
	.byte		v048
	.byte	W01
	.byte		v049
	.byte	W02
	.byte		v049
	.byte	W01
	.byte		v050
	.byte	W02
	.byte		v050
	.byte	W01
	.byte		v051
	.byte	W02
	.byte		v051
	.byte	W01
	.byte		v052
	.byte	W02
	.byte		v052
	.byte	W01
	.byte		v053
	.byte	W02
	.byte		v053
	.byte	W01
	.byte		v054
	.byte	W02
	.byte		v054
	.byte	W01
	.byte		v055
	.byte	W02
	.byte		v055
	.byte	W01
	.byte		v056
	.byte	W02
	.byte		v056
	.byte	W01
	.byte		v057
	.byte	W02
	.byte		v057
	.byte	W01
	.byte		v058
	.byte	W02
	.byte		v058
	.byte	W01
	.byte		v059
	.byte	W02
	.byte		v059
	.byte	W01
	.byte		v060
	.byte	W02
	.byte		v060
	.byte	W01
	.byte		v061
	.byte	W02
	.byte		v061
	.byte	W01
	.byte		v062
	.byte	W02
	.byte		v062
	.byte	W01
	.byte		v063
	.byte	W02
	.byte	PATT	
		.word	song017_1_1
	.byte	VOL	, v032
	.byte		N72	, Fn2, v100
	.byte	W04
	.byte	VOL	, v032
	.byte	W02
	.byte		v033
	.byte	W03
	.byte		v033
	.byte	W02
	.byte		v034
	.byte	W02
	.byte		v034
	.byte	W02
	.byte		v035
	.byte	W03
	.byte		v035
	.byte	W02
	.byte		v036
	.byte	W02
	.byte		v036
	.byte	W03
	.byte		v037
	.byte	W02
	.byte		v037
	.byte	W02
	.byte		v038
	.byte	W02
	.byte		v038
	.byte	W03
	.byte		v039
	.byte	W02
	.byte		v039
	.byte	W02
	.byte		v040
	.byte	W02
	.byte		v040
	.byte	W03
	.byte		v041
	.byte	W02
	.byte		v041
	.byte	W02
	.byte		v042
	.byte	W03
	.byte		v042
	.byte	W02
	.byte		v043
	.byte	W02
	.byte		v043
	.byte	W02
	.byte		v044
	.byte	W03
	.byte		v044
	.byte	W02
	.byte		v045
	.byte	W02
	.byte		v045
	.byte	W02
	.byte		v046
	.byte	W03
	.byte		v046
	.byte	W02
	.byte		v047
	.byte	W02
	.byte		v047
	.byte		N72	, Gn2
	.byte	W03
	.byte	VOL	, v048
	.byte	W02
	.byte		v048
	.byte	W02
	.byte		v049
	.byte	W02
	.byte		v049
	.byte	W03
	.byte		v050
	.byte	W02
	.byte		v050
	.byte	W02
	.byte		v051
	.byte	W03
	.byte		v051
	.byte	W02
	.byte		v052
	.byte	W02
	.byte		v052
	.byte	W01
	.byte	W01
	.byte		v053
	.byte	W03
	.byte		v053
	.byte	W02
	.byte		v054
	.byte	W02
	.byte		v054
	.byte	W02
	.byte		v055
	.byte	W03
	.byte		v055
	.byte	W02
	.byte		v056
	.byte	W02
	.byte		v056
	.byte	W03
	.byte		v057
	.byte	W02
	.byte		v057
	.byte	W02
	.byte		v058
	.byte	W02
	.byte		v058
	.byte	W03
	.byte		v059
	.byte	W02
	.byte		v059
	.byte	W02
	.byte		v060
	.byte	W02
	.byte		v060
	.byte	W03
	.byte		v061
	.byte	W02
	.byte		v061
	.byte	W02
	.byte		v062
	.byte	W03
	.byte		v062
	.byte	W02
	.byte		v063
	.byte	W01
	.byte		v064
	.byte		N72	, An2
	.byte	W02
	.byte	VOL	, v063
	.byte	W02
	.byte		v062
	.byte	W03
	.byte		v062
	.byte	W02
	.byte		v061
	.byte	W03
	.byte		v061
	.byte	W02
	.byte		v060
	.byte	W02
	.byte		v060
	.byte	W03
	.byte		v059
	.byte	W02
	.byte		v059
	.byte	W03
	.byte		v058
	.byte	W02
	.byte		v058
	.byte	W02
	.byte		v057
	.byte	W03
	.byte		v057
	.byte	W02
	.byte		v056
	.byte	W03
	.byte		v056
	.byte	W02
	.byte		v055
	.byte	W02
	.byte		v055
	.byte	W03
	.byte		v054
	.byte	W02
	.byte		v054
	.byte	W03
	.byte		v053
	.byte	W02
	.byte		v053
	.byte	W02
	.byte		v052
	.byte	W03
	.byte		v052
	.byte	W02
	.byte		v051
	.byte	W03
	.byte		v051
	.byte	W02
	.byte		v050
	.byte	W02
	.byte		v050
	.byte	W03
	.byte		v049
	.byte	W02
	.byte		v049
	.byte	W03
	.byte		v048
	.byte		N72	, Gs2
	.byte	W02
	.byte	VOL	, v048
	.byte	W02
	.byte		v047
	.byte	W03
	.byte		v047
	.byte	W02
	.byte		v046
	.byte	W03
	.byte		v046
	.byte	W02
	.byte		v045
	.byte	W02
	.byte		v045
	.byte	W03
	.byte		v044
	.byte	W02
	.byte		v044
	.byte	W03
	.byte		v043
	.byte	W02
	.byte		v043
	.byte	W02
	.byte		v042
	.byte	W03
	.byte		v042
	.byte	W02
	.byte		v041
	.byte	W03
	.byte		v041
	.byte	W02
	.byte		v040
	.byte	W02
	.byte		v040
	.byte	W03
	.byte		v039
	.byte	W02
	.byte		v039
	.byte	W03
	.byte		v038
	.byte	W02
	.byte		v038
	.byte	W02
	.byte		v037
	.byte	W03
	.byte		v037
	.byte	W02
	.byte		v036
	.byte	W03
	.byte		v036
	.byte	W02
	.byte		v035
	.byte	W02
	.byte		v035
	.byte	W03
	.byte		v034
	.byte	W02
	.byte		v034
	.byte	W03
	.byte		v033
	.byte		N72	, Gn2
	.byte	W02
	.byte	VOL	, v034
	.byte	W02
	.byte		v034
	.byte	W03
	.byte		v035
	.byte	W02
	.byte		v035
	.byte	W03
	.byte		v036
	.byte	W02
	.byte		v036
	.byte	W02
	.byte		v037
	.byte	W03
	.byte		v037
	.byte	W02
	.byte		v038
	.byte	W03
	.byte		v038
	.byte	W02
	.byte		v039
	.byte	W02
	.byte		v039
	.byte	W03
	.byte		v040
	.byte	W02
	.byte		v040
	.byte	W03
	.byte		v041
	.byte	W02
	.byte		v041
	.byte	W02
	.byte		v042
	.byte	W03
	.byte		v042
	.byte	W02
	.byte		v043
	.byte	W03
	.byte		v043
	.byte	W02
	.byte		v044
	.byte	W02
	.byte		v044
	.byte	W03
	.byte		v045
	.byte	W02
	.byte		v045
	.byte	W03
	.byte		v046
	.byte	W02
	.byte		v046
	.byte	W02
	.byte		v047
	.byte	W03
	.byte		v047
	.byte	W02
	.byte		v048
	.byte	W03
	.byte		v048
	.byte		N48	, Fs2
	.byte	W02
	.byte	VOL	, v049
	.byte	W02
	.byte		v049
	.byte	W03
	.byte		v050
	.byte	W02
	.byte		v050
	.byte	W03
	.byte		v051
	.byte	W02
	.byte		v051
	.byte	W02
	.byte		v052
	.byte	W03
	.byte		v052
	.byte	W02
	.byte		v053
	.byte	W03
	.byte		v053
	.byte	W02
	.byte		v054
	.byte	W02
	.byte		v054
	.byte	W03
	.byte		v055
	.byte	W02
	.byte		v055
	.byte	W03
	.byte		v056
	.byte	W02
	.byte		v056
	.byte	W02
	.byte		v057
	.byte	W03
	.byte		v057
	.byte	W02
	.byte		v058
	.byte	W03
	.byte		v058
	.byte		N12	, Gs2
	.byte	W02
	.byte	VOL	, v059
	.byte	W02
	.byte		v059
	.byte	W03
	.byte		v060
	.byte	W02
	.byte		v060
	.byte	W03
	.byte		v061
	.byte		N12	, Fs2
	.byte	W02
	.byte	VOL	, v061
	.byte	W02
	.byte		v062
	.byte	W03
	.byte		v062
	.byte	W02
	.byte		v063
	.byte	W03
	.byte		v064
	.byte		N72	, Fn2
	.byte	W04
	.byte	VOL	, v063
	.byte	W02
	.byte		v062
	.byte	W02
	.byte		v062
	.byte	W03
	.byte		v061
	.byte	W02
	.byte		v061
	.byte	W02
	.byte		v060
	.byte	W02
	.byte		v060
	.byte	W02
	.byte		v059
	.byte	W03
	.byte		v059
	.byte	W02
	.byte		v058
	.byte	W02
	.byte		v058
	.byte	W02
	.byte		v057
	.byte	W02
	.byte		v057
	.byte	W03
	.byte		v056
	.byte	W02
	.byte		v056
	.byte	W02
	.byte		v055
	.byte	W02
	.byte		v055
	.byte	W02
	.byte		v054
	.byte	W03
	.byte		v054
	.byte	W02
	.byte		v053
	.byte	W02
	.byte		v053
	.byte	W02
	.byte		v052
	.byte	W02
	.byte		v052
	.byte	W03
	.byte		v051
	.byte	W02
	.byte		v051
	.byte	W02
	.byte		v050
	.byte	W02
	.byte		v050
	.byte	W02
	.byte		v049
	.byte	W03
	.byte		v049
	.byte	W02
	.byte		v048
	.byte	W02
	.byte		v048
	.byte	W02
	.byte		v047
	.byte		N60	, En2
	.byte	W02
	.byte	VOL	, v047
	.byte	W03
	.byte		v046
	.byte	W02
	.byte		v046
	.byte	W02
	.byte		v045
	.byte	W02
	.byte		v045
	.byte	W02
	.byte		v044
	.byte	W03
	.byte		v044
	.byte	W02
	.byte		v043
	.byte	W02
	.byte		v043
	.byte	W02
	.byte		v042
	.byte	W02
	.byte		v042
	.byte	W03
	.byte		v041
	.byte	W02
	.byte		v041
	.byte	W02
	.byte		v040
	.byte	W02
	.byte		v040
	.byte	W02
	.byte		v039
	.byte	W03
	.byte		v039
	.byte	W02
	.byte		v038
	.byte	W02
	.byte		v038
	.byte	W02
	.byte		v037
	.byte	W02
	.byte		v037
	.byte	W03
	.byte		v036
	.byte	W02
	.byte		v036
	.byte	W02
	.byte		v035
	.byte	W02
	.byte		v035
	.byte	W02
	.byte		v034
	.byte	W03
	.byte		v034
	.byte	W02
	.byte		v033
	.byte	W02
	.byte		v033
	.byte	W02
	.byte		v032
	.byte	W02
	.byte		v032
	.byte	W03
	.byte		v031
	.byte	W01
	.byte		v050
	.byte		N48	, Gn2
	.byte	W48
	.byte		N24	, Bn2
	.byte	W24
	.byte		N06	, An2
	.byte	W12
	.byte			Gn2
	.byte	W12
	.byte		N48	, An2
	.byte	W48
	.byte			Bn2
	.byte	W48
	.byte			Gs2
	.byte	W48
	.byte		N24	, As2
	.byte	W24
	.byte		N06	, Gs2
	.byte	W12
	.byte			Gn2
	.byte	W12
	.byte		N48	, Gs2
	.byte	W48
	.byte			Ds2
	.byte	W48
	.byte		N48	
	.byte	W72
	.byte		N04	
	.byte	W08
	.byte		N04	
	.byte	W08
	.byte		N04	
	.byte	W08
	.byte		N48	, Fn2
	.byte	W72
	.byte		N04	
	.byte	W08
	.byte		N04	
	.byte	W08
	.byte		N04	
	.byte	W08
song017_1_2:
	.byte		N48	, Gn2, v100
	.byte	W72
	.byte		N04	
	.byte	W08
	.byte		N04	
	.byte	W08
	.byte		N04	
	.byte	W08
	.byte	PEND
	.byte		N24	, Gs2
	.byte	W24
	.byte			Fn2
	.byte	W24
	.byte			Gn2
	.byte	W24
	.byte			Dn2
	.byte	W24
	.byte	PATT	
		.word	song017_1_2
	.byte		N48	, Gs2, v100
	.byte	W72
	.byte		N04	
	.byte	W08
	.byte		N04	
	.byte	W08
	.byte		N04	
	.byte	W08
	.byte		N48	, As2
	.byte	W72
	.byte		N04	
	.byte	W08
	.byte		N04	
	.byte	W08
	.byte		N04	
	.byte	W08
	.byte		N24	
	.byte	W24
	.byte			Gn2
	.byte	W24
	.byte			Gs2
	.byte	W24
	.byte			Fn2
	.byte	W24
	.byte	W96
	.byte	W96
	.byte	W96
	.byte	W96
	.byte	GOTO	
		.word	song017_1_3
	.byte	FINE

	@********************** Track  2 **********************@

	.global song017_2
song017_2:	@ 0x08554A8C
	.byte	KEYSH	, 0
song017_2_5:
	.byte	VOICE	, 33
	.byte	VOL	, v064
	.byte	PAN	, c_v
	.byte		TIE	, Bn1, v127
	.byte	W96
	.byte	W92
	.byte	W01
	.byte		EOT	
	.byte	W03
	.byte		TIE	, Cn2
	.byte	W96
	.byte	W92
	.byte	W01
	.byte		EOT	
	.byte	W03
	.byte		TIE	, An1
	.byte	W96
	.byte	W92
	.byte	W01
	.byte		EOT	
	.byte	W03
	.byte		N44	, As1
	.byte	W48
	.byte			Fs1
	.byte	W48
	.byte			Cs2
	.byte	W48
	.byte			Fs1
	.byte	W48
song017_2_1:
	.byte		N44	, Bn1, v127
	.byte	W72
	.byte		N68	
	.byte	W24
	.byte	PEND
	.byte	W72
	.byte		N68	
	.byte	W24
	.byte	W72
	.byte		TIE	
	.byte	W24
	.byte	W92
	.byte	W01
	.byte		EOT	
	.byte	W03
	.byte	PATT	
		.word	song017_2_1
	.byte	W72
	.byte		N68	, Bn1, v127
	.byte	W24
	.byte	W72
	.byte		N92	
	.byte	W24
	.byte	W96
	.byte		TIE	, Gs1
	.byte	W96
	.byte	W44
	.byte	W01
	.byte		EOT	
	.byte	W03
	.byte		N44	, Fs1
	.byte	W48
	.byte		TIE	
	.byte	W96
	.byte	W44
	.byte	W01
	.byte		EOT	
	.byte	W03
	.byte		N44	, En1
	.byte	W48
	.byte		TIE	, An1
	.byte	W96
	.byte	W44
	.byte	W01
	.byte		EOT	
	.byte	W03
	.byte		N44	, As1
	.byte	W48
song017_2_2:
	.byte		N21	, Bn1, v127
	.byte	W48
	.byte		N21	
	.byte	W24
	.byte		N21	
	.byte	W24
	.byte	PEND
song017_2_3:
	.byte	W24
	.byte		N21	, Bn1, v127
	.byte	W24
	.byte		N21	
	.byte	W48
	.byte	PEND
song017_2_4:
	.byte		N21	, Bn1, v127
	.byte	W24
	.byte		N21	
	.byte	W48
	.byte		N21	
	.byte	W24
	.byte	PEND
	.byte	PATT	
		.word	song017_2_2
	.byte	PATT	
		.word	song017_2_3
	.byte	PATT	
		.word	song017_2_4
	.byte		TIE	, An1, v127
	.byte	W96
	.byte	W92
	.byte	W01
	.byte		EOT	
	.byte	W03
	.byte		TIE	, Gs1
	.byte	W96
	.byte	W92
	.byte	W01
	.byte		EOT	
	.byte	W03
	.byte		N44	, Cn2
	.byte	W72
	.byte		N68	
	.byte	W24
	.byte	W72
	.byte		N68	
	.byte	W24
	.byte	W72
	.byte		TIE	
	.byte	W24
	.byte	W92
	.byte	W01
	.byte		EOT	
	.byte	W03
	.byte		N68	, Gs1
	.byte	W72
	.byte		N68	
	.byte	W24
	.byte	W72
	.byte		N68	
	.byte	W24
	.byte	W72
	.byte		TIE	
	.byte	W24
	.byte	W92
	.byte	W01
	.byte		EOT	
	.byte	W03
	.byte		N92	, As1
	.byte	W96
	.byte			An1
	.byte	W96
	.byte			Gs1
	.byte	W96
	.byte			Gn1
	.byte	W96
	.byte	GOTO	
		.word	song017_2_5
	.byte	FINE

	@********************** Track  3 **********************@

	.global song017_3
song017_3:	@ 0x08554B54
	.byte	KEYSH	, 0
song017_3_4:
	.byte	VOICE	, 48
	.byte	VOL	, v050
	.byte	PAN	, c_v+19
	.byte		N24	, Bn2, v060
	.byte	W24
	.byte			En3
	.byte	W24
	.byte			Dn3
	.byte	W24
	.byte		N06	, Cs3
	.byte	W12
	.byte			Bn2
	.byte	W12
	.byte		N24	, Cs3, v064
	.byte	W24
	.byte			An2
	.byte	W24
	.byte			Bn2, v076
	.byte	W24
	.byte		N21	, Fs2
	.byte	W24
	.byte		N84	, As2, v084
	.byte	W84
	.byte		N06	, Cn3, v076
	.byte	W06
	.byte			As2
	.byte	W06
	.byte		N44	, Gn2
	.byte	W48
	.byte			En2
	.byte	W48
	.byte		N24	, Cn3
	.byte	W24
	.byte			En3
	.byte	W24
	.byte		N24	
	.byte	W24
	.byte		N06	, Dn3
	.byte	W12
	.byte			Cn3
	.byte	W12
	.byte		N48	, Dn3
	.byte	W48
	.byte			En3
	.byte	W48
	.byte		N96	, Cs3
	.byte	W96
	.byte		N96	
	.byte	W30
	.byte	VOL	, v050
	.byte	W02
	.byte		v049
	.byte	W01
	.byte		v049
	.byte	W01
	.byte		v048
	.byte	W02
	.byte		v048
	.byte	W01
	.byte		v047
	.byte	W01
	.byte		v047
	.byte	W01
	.byte		v046
	.byte	W01
	.byte		v046
	.byte	W01
	.byte		v045
	.byte	W01
	.byte		v045
	.byte	W02
	.byte		v044
	.byte	W01
	.byte		v044
	.byte	W01
	.byte		v043
	.byte	W01
	.byte		v043
	.byte	W01
	.byte		v042
	.byte	W01
	.byte		v042
	.byte	W02
	.byte		v041
	.byte	W01
	.byte		v041
	.byte	W01
	.byte		v040
	.byte	W01
	.byte		v040
	.byte	W01
	.byte		v039
	.byte	W01
	.byte		v039
	.byte	W01
	.byte		v038
	.byte	W02
	.byte		v038
	.byte	W01
	.byte		v037
	.byte	W01
	.byte		v037
	.byte	W01
	.byte		v036
	.byte	W01
	.byte		v036
	.byte	W01
	.byte		v035
	.byte	W01
	.byte		v035
	.byte	W02
	.byte		v034
	.byte	W01
	.byte		v034
	.byte	W01
	.byte		v033
	.byte	W01
	.byte		v033
	.byte	W01
	.byte		v032
	.byte	W01
	.byte		v032
	.byte	W02
	.byte		v031
	.byte	W01
	.byte		v031
	.byte	W01
	.byte		v030
	.byte	W01
	.byte		v030
	.byte	W01
	.byte		v029
	.byte	W01
	.byte		v029
	.byte	W01
	.byte		v028
	.byte	W02
	.byte		v028
	.byte	W01
	.byte		v027
	.byte	W01
	.byte		v027
	.byte	W01
	.byte		v026
	.byte	W01
	.byte		v026
	.byte	W01
	.byte		v025
	.byte	W03
	.byte		v025
	.byte	W01
	.byte		v024
	.byte	W01
	.byte		v024
	.byte	W01
	.byte		v023
	.byte	W01
	.byte		v023
	.byte	W01
	.byte		v022
	.byte	W01
	.byte		v050
	.byte		N48	, Bn2, v112
	.byte	W72
	.byte		N04	
	.byte	W08
	.byte		N04	
	.byte	W08
	.byte		N04	
	.byte	W08
song017_3_2:
	.byte		N48	, Cs3, v112
	.byte	W72
	.byte		N04	
	.byte	W08
	.byte		N04	
	.byte	W08
	.byte		N04	
	.byte	W08
	.byte	PEND
song017_3_1:
	.byte		N48	, Dn3, v112
	.byte	W72
	.byte		N04	
	.byte	W08
	.byte		N04	
	.byte	W08
	.byte		N04	
	.byte	W08
	.byte	PEND
	.byte		N24	, En3
	.byte	W24
	.byte			Cs3
	.byte	W24
	.byte			Dn3
	.byte	W24
	.byte			An2
	.byte	W24
	.byte	PATT	
		.word	song017_3_1
	.byte	PATT	
		.word	song017_3_2
	.byte		N48	, Bn2, v112
	.byte	W72
	.byte		N04	
	.byte	W08
	.byte		N04	
	.byte	W08
	.byte		N04	
	.byte	W08
	.byte		N24	, Cs3
	.byte	W24
	.byte			An2
	.byte	W24
	.byte			Bn2
	.byte	W24
	.byte			En2
	.byte	W23
	.byte	VOL	, v028
	.byte	W01
	.byte		TIE	
	.byte	W03
	.byte	VOL	, v029
	.byte	W01
	.byte		v029
	.byte	W02
	.byte		v030
	.byte	W02
	.byte		v030
	.byte	W01
	.byte		v031
	.byte	W02
	.byte		v031
	.byte	W02
	.byte		v032
	.byte	W02
	.byte		v032
	.byte	W01
	.byte		v033
	.byte	W02
	.byte		v033
	.byte	W02
	.byte		v034
	.byte	W01
	.byte		v034
	.byte	W02
	.byte		v035
	.byte	W02
	.byte		v035
	.byte	W01
	.byte		v036
	.byte	W02
	.byte		v036
	.byte	W02
	.byte		v037
	.byte	W02
	.byte		v037
	.byte	W01
	.byte		v038
	.byte	W02
	.byte		v038
	.byte	W02
	.byte		v039
	.byte	W01
	.byte		v039
	.byte	W02
	.byte		v040
	.byte	W02
	.byte		v040
	.byte	W01
	.byte		v041
	.byte	W02
	.byte		v041
	.byte	W02
	.byte		v042
	.byte	W02
	.byte		v042
	.byte	W01
	.byte		v043
	.byte	W02
	.byte		v043
	.byte	W02
	.byte		v044
	.byte	W01
	.byte		v044
	.byte	W02
	.byte		v045
	.byte	W02
	.byte		v045
	.byte	W01
	.byte		v046
	.byte	W02
	.byte		v046
	.byte	W02
	.byte		v047
	.byte	W02
	.byte		v047
	.byte	W01
	.byte		v048
	.byte	W02
	.byte		v048
	.byte	W02
	.byte		v049
	.byte	W01
	.byte		v049
	.byte	W02
	.byte		v050
	.byte	W02
	.byte		v050
	.byte	W01
	.byte		v051
	.byte	W02
	.byte		v051
	.byte	W02
	.byte		v052
	.byte	W02
	.byte		v052
	.byte	W01
	.byte		v053
	.byte	W02
	.byte		v053
	.byte	W02
	.byte		v054
	.byte	W01
	.byte		v054
	.byte	W02
	.byte		v055
	.byte	W02
	.byte		v055
	.byte	W01
	.byte		v056
	.byte	W01
	.byte		v056
	.byte	W01
	.byte	W03
	.byte		v056
	.byte	W01
	.byte		v055
	.byte	W02
	.byte		v055
	.byte	W02
	.byte		v054
	.byte	W01
	.byte		v054
	.byte	W02
	.byte		v053
	.byte	W02
	.byte		v053
	.byte	W01
	.byte		v052
	.byte	W02
	.byte		v052
	.byte	W02
	.byte		v051
	.byte	W01
	.byte		v051
	.byte	W02
	.byte		v050
	.byte	W02
	.byte		v050
	.byte	W01
	.byte		v049
	.byte	W02
	.byte		v049
	.byte	W02
	.byte		v048
	.byte	W01
	.byte		v048
	.byte	W02
	.byte		v047
	.byte	W02
	.byte		v047
	.byte	W01
	.byte		v046
	.byte	W02
	.byte		v046
	.byte	W02
	.byte		v045
	.byte	W01
	.byte		v045
	.byte	W02
	.byte		v044
	.byte	W02
	.byte		v044
	.byte	W01
	.byte		v043
	.byte	W02
	.byte		v043
	.byte	W02
	.byte		v042
	.byte	W01
	.byte		v042
	.byte	W02
	.byte		v041
	.byte	W02
	.byte		v041
	.byte	W01
	.byte		v040
	.byte	W02
	.byte		v040
	.byte	W02
	.byte		v039
	.byte	W02
	.byte		v039
	.byte	W01
	.byte		v038
	.byte	W02
	.byte		v038
	.byte	W02
	.byte		v037
	.byte	W01
	.byte		v037
	.byte	W02
	.byte		v036
	.byte	W02
	.byte		v036
	.byte	W01
	.byte		v035
	.byte	W02
	.byte		v035
	.byte	W02
	.byte		v034
	.byte	W01
	.byte		v034
	.byte	W02
	.byte		v033
	.byte	W02
	.byte		v033
	.byte	W01
	.byte		v032
	.byte	W02
	.byte		v032
	.byte	W02
	.byte		v031
	.byte	W01
	.byte		v031
	.byte	W02
	.byte		v030
	.byte	W02
	.byte		v030
	.byte	W01
	.byte		v029
	.byte	W02
	.byte		EOT	
	.byte	VOL	, v029
	.byte	W02
	.byte		v028
	.byte	W01
	.byte		v028
	.byte		TIE	
	.byte	W03
	.byte	VOL	, v028
	.byte	W02
	.byte		v029
	.byte	W02
	.byte		v029
	.byte	W02
	.byte		v030
	.byte	W02
	.byte		v030
	.byte	W01
	.byte		v031
	.byte	W02
	.byte		v031
	.byte	W02
	.byte		v032
	.byte	W02
	.byte		v032
	.byte	W02
	.byte		v033
	.byte	W01
	.byte		v033
	.byte	W02
	.byte		v034
	.byte	W02
	.byte		v034
	.byte	W02
	.byte		v035
	.byte	W02
	.byte		v035
	.byte	W01
	.byte		v036
	.byte	W02
	.byte		v036
	.byte	W02
	.byte		v037
	.byte	W02
	.byte		v037
	.byte	W02
	.byte		v038
	.byte	W01
	.byte		v038
	.byte	W02
	.byte		v039
	.byte	W02
	.byte		v039
	.byte	W02
	.byte		v040
	.byte	W02
	.byte		v040
	.byte	W01
	.byte		v041
	.byte	W02
	.byte		v041
	.byte	W02
	.byte		v042
	.byte	W02
	.byte		v042
	.byte	W02
	.byte		v043
	.byte	W01
	.byte		v043
	.byte	W02
	.byte		v044
	.byte	W02
	.byte		v044
	.byte	W02
	.byte		v045
	.byte	W02
	.byte		v045
	.byte	W01
	.byte		v046
	.byte	W02
	.byte		v046
	.byte	W02
	.byte		v047
	.byte	W02
	.byte		v047
	.byte	W02
	.byte		v048
	.byte	W01
	.byte		v048
	.byte	W02
	.byte		v049
	.byte	W02
	.byte		v049
	.byte	W02
	.byte		v050
	.byte	W02
	.byte		v050
	.byte	W01
	.byte		v051
	.byte	W02
	.byte		v051
	.byte	W02
	.byte		v052
	.byte	W02
	.byte		v052
	.byte	W02
	.byte		v053
	.byte	W01
	.byte		v053
	.byte	W02
	.byte		v054
	.byte	W01
	.byte		v054
	.byte	W03
	.byte		v054
	.byte	W02
	.byte		v053
	.byte	W02
	.byte		v053
	.byte	W01
	.byte		v052
	.byte	W02
	.byte		v052
	.byte	W02
	.byte		v051
	.byte	W02
	.byte		v051
	.byte	W01
	.byte		v050
	.byte	W02
	.byte		v050
	.byte	W02
	.byte		v049
	.byte	W02
	.byte		v049
	.byte	W02
	.byte		v048
	.byte	W01
	.byte		v048
	.byte	W02
	.byte		v047
	.byte	W02
	.byte		v047
	.byte	W02
	.byte		v046
	.byte	W01
	.byte		v046
	.byte	W02
	.byte		v045
	.byte	W02
	.byte		v045
	.byte	W02
	.byte		v044
	.byte	W02
	.byte		v044
	.byte	W01
	.byte		v043
	.byte	W02
	.byte		v043
	.byte	W02
	.byte		v042
	.byte	W02
	.byte		v042
	.byte	W01
	.byte		v041
	.byte	W02
	.byte		v041
	.byte	W02
	.byte		v040
	.byte	W02
	.byte		v040
	.byte	W02
	.byte		v039
	.byte	W01
	.byte		v039
	.byte	W02
	.byte		v038
	.byte	W02
	.byte		v038
	.byte	W02
	.byte		v037
	.byte	W01
	.byte		v037
	.byte	W02
	.byte		v036
	.byte	W02
	.byte		v036
	.byte	W02
	.byte		v035
	.byte	W02
	.byte		v035
	.byte	W01
	.byte		v034
	.byte	W02
	.byte		v034
	.byte	W02
	.byte		v033
	.byte	W02
	.byte		v033
	.byte	W01
	.byte		v032
	.byte	W02
	.byte		v032
	.byte	W02
	.byte		v031
	.byte	W02
	.byte		v031
	.byte	W01
	.byte		v030
	.byte	W02
	.byte		v030
	.byte	W02
	.byte		v029
	.byte	W02
	.byte		v029
	.byte	W01
	.byte		EOT	
	.byte	W01
	.byte	VOL	, v028
	.byte	W01
	.byte		v028
	.byte	W01
	.byte		v027
	.byte		TIE	
	.byte	W03
	.byte	VOL	, v028
	.byte	W02
	.byte		v028
	.byte	W01
	.byte		v029
	.byte	W02
	.byte		v029
	.byte	W02
	.byte		v030
	.byte	W01
	.byte		v030
	.byte	W02
	.byte		v031
	.byte	W02
	.byte		v031
	.byte	W02
	.byte		v032
	.byte	W01
	.byte		v032
	.byte	W02
	.byte		v033
	.byte	W02
	.byte		v033
	.byte	W01
	.byte		v034
	.byte	W02
	.byte		v034
	.byte	W02
	.byte		v035
	.byte	W01
	.byte		v035
	.byte	W02
	.byte		v036
	.byte	W02
	.byte		v036
	.byte	W02
	.byte		v037
	.byte	W01
	.byte		v037
	.byte	W02
	.byte		v038
	.byte	W02
	.byte		v038
	.byte	W01
	.byte		v039
	.byte	W02
	.byte		v039
	.byte	W02
	.byte		v040
	.byte	W01
	.byte		v040
	.byte	W02
	.byte		v041
	.byte	W02
	.byte		v041
	.byte	W02
	.byte		v042
	.byte	W01
	.byte		v042
	.byte	W02
	.byte		v043
	.byte	W02
	.byte		v043
	.byte	W01
	.byte		v044
	.byte	W02
	.byte		v044
	.byte	W02
	.byte		v045
	.byte	W01
	.byte		v045
	.byte	W02
	.byte		v046
	.byte	W02
	.byte		v046
	.byte	W02
	.byte		v047
	.byte	W01
	.byte		v047
	.byte	W02
	.byte		v048
	.byte	W02
	.byte		v048
	.byte	W01
	.byte		v049
	.byte	W02
	.byte		v049
	.byte	W02
	.byte		v050
	.byte	W01
	.byte		v050
	.byte	W02
	.byte		v051
	.byte	W02
	.byte		v051
	.byte	W02
	.byte		v052
	.byte	W01
	.byte		v052
	.byte	W02
	.byte		v053
	.byte	W02
	.byte		v053
	.byte	W01
	.byte		v054
	.byte	W02
	.byte		v054
	.byte	W02
	.byte		v055
	.byte	W01
	.byte		v055
	.byte	W03
	.byte		v055
	.byte	W01
	.byte		v054
	.byte	W02
	.byte		v054
	.byte	W01
	.byte		v053
	.byte	W02
	.byte		v053
	.byte	W02
	.byte		v052
	.byte	W01
	.byte		v052
	.byte	W02
	.byte		v051
	.byte	W01
	.byte		v051
	.byte	W02
	.byte		v050
	.byte	W01
	.byte		v050
	.byte	W02
	.byte		v049
	.byte	W02
	.byte		v049
	.byte	W01
	.byte		v048
	.byte	W02
	.byte		v048
	.byte	W01
	.byte		v047
	.byte	W02
	.byte		v047
	.byte	W01
	.byte		v046
	.byte	W02
	.byte		v046
	.byte	W02
	.byte		v045
	.byte	W01
	.byte		v045
	.byte	W02
	.byte		v044
	.byte	W01
	.byte		v044
	.byte	W02
	.byte		v043
	.byte	W01
	.byte		v043
	.byte	W02
	.byte		v042
	.byte	W02
	.byte		v042
	.byte	W01
	.byte		v041
	.byte	W02
	.byte		v041
	.byte	W01
	.byte		v040
	.byte	W02
	.byte		v040
	.byte	W01
	.byte		v039
	.byte	W02
	.byte		v039
	.byte	W02
	.byte		v038
	.byte	W01
	.byte		v038
	.byte	W02
	.byte		v037
	.byte	W01
	.byte		v037
	.byte	W02
	.byte		v036
	.byte	W02
	.byte		v036
	.byte	W01
	.byte		v035
	.byte	W02
	.byte		v035
	.byte	W01
	.byte		v034
	.byte	W02
	.byte		v034
	.byte	W01
	.byte		v033
	.byte	W02
	.byte		v033
	.byte	W02
	.byte		v032
	.byte	W01
	.byte		v032
	.byte	W02
	.byte		v031
	.byte	W01
	.byte		v031
	.byte	W02
	.byte		v030
	.byte	W01
	.byte		v030
	.byte	W02
	.byte		v029
	.byte	W02
	.byte		v029
	.byte	W01
	.byte		v028
	.byte	W02
	.byte		v028
	.byte	W01
	.byte		v027
	.byte	W02
	.byte		v027
	.byte	W01
	.byte		v026
	.byte	W01
	.byte		EOT	
	.byte	W01
	.byte	VOL	, v026
	.byte	W01
	.byte		v025
	.byte	W01
	.byte		N72	, Cs3
	.byte	W04
	.byte	VOL	, v026
	.byte	W03
	.byte		v026
	.byte	W02
	.byte		v027
	.byte	W03
	.byte		v027
	.byte	W02
	.byte		v028
	.byte	W03
	.byte		v028
	.byte	W02
	.byte		v029
	.byte	W02
	.byte		v029
	.byte	W03
	.byte		v030
	.byte	W02
	.byte		v030
	.byte	W03
	.byte		v031
	.byte	W02
	.byte		v031
	.byte	W03
	.byte		v032
	.byte	W02
	.byte		v032
	.byte	W03
	.byte		v033
	.byte	W02
	.byte		v033
	.byte	W03
	.byte		v034
	.byte	W02
	.byte		v034
	.byte	W03
	.byte		v035
	.byte	W02
	.byte		v035
	.byte	W03
	.byte		v036
	.byte	W02
	.byte		v036
	.byte	W03
	.byte		v037
	.byte	W02
	.byte		v037
	.byte	W03
	.byte		v038
	.byte	W02
	.byte		v038
	.byte	W03
	.byte		v039
	.byte	W02
	.byte		v039
	.byte	W01
	.byte		N72	, Dn3
	.byte	W01
	.byte	VOL	, v040
	.byte	W03
	.byte		v040
	.byte	W02
	.byte		v041
	.byte	W03
	.byte		v041
	.byte	W02
	.byte		v042
	.byte	W03
	.byte		v042
	.byte	W02
	.byte		v043
	.byte	W03
	.byte		v043
	.byte	W02
	.byte		v044
	.byte	W03
	.byte		v044
	.byte	W02
	.byte		v045
	.byte	W03
	.byte		v045
	.byte	W02
	.byte		v046
	.byte	W03
	.byte		v046
	.byte	W02
	.byte		v047
	.byte	W03
	.byte		v047
	.byte	W02
	.byte		v048
	.byte	W03
	.byte		v048
	.byte	W02
	.byte		v049
	.byte	W02
	.byte		v049
	.byte	W03
	.byte		v050
	.byte	W02
	.byte		v050
	.byte	W03
	.byte		v051
	.byte	W02
	.byte		v051
	.byte	W03
	.byte		v052
	.byte	W02
	.byte		v052
	.byte	W03
	.byte		v053
	.byte	W02
	.byte		v053
	.byte	W03
	.byte		v054
	.byte	W01
	.byte		v054
	.byte		N72	, En3
	.byte	W05
	.byte	VOL	, v054
	.byte	W02
	.byte		v053
	.byte	W03
	.byte		v053
	.byte	W03
	.byte		v052
	.byte	W02
	.byte		v052
	.byte	W03
	.byte		v051
	.byte	W03
	.byte		v051
	.byte	W02
	.byte		v050
	.byte	W03
	.byte		v050
	.byte	W03
	.byte		v049
	.byte	W02
	.byte		v049
	.byte	W03
	.byte		v048
	.byte	W03
	.byte		v048
	.byte	W02
	.byte		v047
	.byte	W03
	.byte		v047
	.byte	W03
	.byte		v046
	.byte	W02
	.byte		v046
	.byte	W01
	.byte	W02
	.byte		v045
	.byte	W03
	.byte		v045
	.byte	W02
	.byte		v044
	.byte	W03
	.byte		v044
	.byte	W02
	.byte		v043
	.byte	W03
	.byte		v043
	.byte	W03
	.byte		v042
	.byte	W02
	.byte		v042
	.byte	W03
	.byte		v041
	.byte	W01
	.byte		N72	, Ds3
	.byte	W02
	.byte	VOL	, v041
	.byte	W02
	.byte		v040
	.byte	W03
	.byte		v040
	.byte	W03
	.byte		v039
	.byte	W02
	.byte		v039
	.byte	W03
	.byte		v038
	.byte	W03
	.byte		v038
	.byte	W02
	.byte		v037
	.byte	W03
	.byte		v037
	.byte	W03
	.byte		v036
	.byte	W02
	.byte		v036
	.byte	W03
	.byte		v035
	.byte	W03
	.byte		v035
	.byte	W02
	.byte		v034
	.byte	W03
	.byte		v034
	.byte	W02
	.byte		v033
	.byte	W03
	.byte		v033
	.byte	W03
	.byte		v032
	.byte	W02
	.byte		v032
	.byte	W03
	.byte		v031
	.byte	W03
	.byte		v031
	.byte	W02
	.byte		v030
	.byte	W03
	.byte		v030
	.byte	W03
	.byte		v029
	.byte	W02
	.byte		v029
	.byte	W03
	.byte		v028
	.byte	W03
	.byte		v028
	.byte	W01
	.byte		v027
	.byte		N72	, Dn3
	.byte	W04
	.byte	VOL	, v028
	.byte	W02
	.byte		v028
	.byte	W03
	.byte		v029
	.byte	W02
	.byte		v029
	.byte	W02
	.byte		v030
	.byte	W02
	.byte		v030
	.byte	W03
	.byte		v031
	.byte	W02
	.byte		v031
	.byte	W02
	.byte		v032
	.byte	W03
	.byte		v032
	.byte	W02
	.byte		v033
	.byte	W02
	.byte		v033
	.byte	W02
	.byte		v034
	.byte	W03
	.byte		v034
	.byte	W02
	.byte		v035
	.byte	W02
	.byte		v035
	.byte	W02
	.byte		v036
	.byte	W03
	.byte		v036
	.byte	W02
	.byte		v037
	.byte	W02
	.byte		v037
	.byte	W03
	.byte		v038
	.byte	W02
	.byte		v038
	.byte	W02
	.byte		v039
	.byte	W02
	.byte		v039
	.byte	W03
	.byte		v040
	.byte	W02
	.byte		v040
	.byte	W02
	.byte		v041
	.byte	W02
	.byte		v041
	.byte	W03
	.byte		v042
	.byte	W02
	.byte		v042
	.byte	W02
	.byte		v043
	.byte		N48	, Cs3
	.byte	W03
	.byte	VOL	, v043
	.byte	W02
	.byte		v044
	.byte	W02
	.byte		v044
	.byte	W02
	.byte		v045
	.byte	W03
	.byte		v045
	.byte	W02
	.byte		v046
	.byte	W02
	.byte		v046
	.byte	W03
	.byte		v047
	.byte	W02
	.byte		v047
	.byte	W02
	.byte		v048
	.byte	W01
	.byte	W01
	.byte		v048
	.byte	W03
	.byte		v049
	.byte	W02
	.byte		v049
	.byte	W02
	.byte		v050
	.byte	W02
	.byte		v050
	.byte	W03
	.byte		v051
	.byte	W02
	.byte		v051
	.byte	W02
	.byte		v052
	.byte	W03
	.byte		v052
	.byte	W02
	.byte		v053
	.byte	W02
	.byte		v053
	.byte		N12	, Ds3
	.byte	W02
	.byte	VOL	, v054
	.byte	W03
	.byte		v054
	.byte	W02
	.byte		v055
	.byte	W02
	.byte		v055
	.byte	W02
	.byte		v056
	.byte	W01
	.byte		N12	, Cs3
	.byte	W02
	.byte	VOL	, v056
	.byte	W02
	.byte		v057
	.byte	W02
	.byte		v057
	.byte	W03
	.byte		v058
	.byte	W02
	.byte		v058
	.byte	W01
	.byte		v059
	.byte		N72	, Cn3
	.byte	W04
	.byte	VOL	, v058
	.byte	W03
	.byte		v058
	.byte	W02
	.byte		v057
	.byte	W02
	.byte		v057
	.byte	W03
	.byte		v056
	.byte	W02
	.byte		v056
	.byte	W02
	.byte		v055
	.byte	W03
	.byte		v055
	.byte	W02
	.byte		v054
	.byte	W02
	.byte		v054
	.byte	W02
	.byte		v053
	.byte	W03
	.byte		v053
	.byte	W02
	.byte		v052
	.byte	W02
	.byte		v052
	.byte	W03
	.byte		v051
	.byte	W02
	.byte		v051
	.byte	W02
	.byte		v050
	.byte	W03
	.byte		v050
	.byte	W02
	.byte		v049
	.byte	W02
	.byte		v049
	.byte	W02
	.byte		v048
	.byte	W03
	.byte		v048
	.byte	W02
	.byte		v047
	.byte	W02
	.byte		v047
	.byte	W03
	.byte		v046
	.byte	W02
	.byte		v046
	.byte	W02
	.byte		v045
	.byte	W03
	.byte		v045
	.byte	W02
	.byte		v044
	.byte	W02
	.byte		v044
	.byte	W01
	.byte		N60	, Bn2
	.byte	W01
	.byte	VOL	, v043
	.byte	W03
	.byte		v043
	.byte	W02
	.byte		v042
	.byte	W02
	.byte		v042
	.byte	W03
	.byte		v041
	.byte	W02
	.byte		v041
	.byte	W02
	.byte		v040
	.byte	W03
	.byte		v040
	.byte	W02
	.byte		v039
	.byte	W02
	.byte		v039
	.byte	W02
	.byte		v038
	.byte	W03
	.byte		v038
	.byte	W02
	.byte		v037
	.byte	W02
	.byte		v037
	.byte	W03
	.byte		v036
	.byte	W02
	.byte		v036
	.byte	W02
	.byte		v035
	.byte	W03
	.byte		v035
	.byte	W02
	.byte		v034
	.byte	W02
	.byte		v034
	.byte	W02
	.byte		v033
	.byte	W03
	.byte		v033
	.byte	W02
	.byte		v032
	.byte	W02
	.byte		v032
	.byte	W03
	.byte		v031
	.byte	W02
	.byte		v031
	.byte	W02
	.byte		v030
	.byte	W03
	.byte		v030
	.byte	W02
	.byte		v029
	.byte	W02
	.byte		v029
	.byte	W02
	.byte		v028
	.byte	W02
	.byte		v050
	.byte		N48	, En3
	.byte	W48
	.byte		N24	, Gn3
	.byte	W24
	.byte		N06	, Fs3
	.byte	W12
	.byte			En3
	.byte	W12
	.byte		N48	, Fs3
	.byte	W48
	.byte			Gn3
	.byte	W48
	.byte			Ds3
	.byte	W48
	.byte		N24	, Fn3
	.byte	W24
	.byte		N06	, Ds3
	.byte	W12
	.byte			Dn3
	.byte	W12
	.byte		N48	, Ds3
	.byte	W48
	.byte			Bn2
	.byte	W48
	.byte			Cn3
	.byte	W72
	.byte		N04	
	.byte	W08
	.byte		N04	
	.byte	W08
	.byte		N04	
	.byte	W08
	.byte	PATT	
		.word	song017_3_1
song017_3_3:
	.byte		N48	, Ds3, v112
	.byte	W72
	.byte		N04	
	.byte	W08
	.byte		N04	
	.byte	W08
	.byte		N04	
	.byte	W08
	.byte	PEND
	.byte		N24	, Fn3
	.byte	W24
	.byte			Dn3
	.byte	W24
	.byte			Ds3
	.byte	W24
	.byte			As2
	.byte	W24
	.byte	PATT	
		.word	song017_3_3
	.byte		N48	, Fn3, v112
	.byte	W72
	.byte		N04	
	.byte	W08
	.byte		N04	
	.byte	W08
	.byte		N04	
	.byte	W08
	.byte		N48	, Gn3
	.byte	W72
	.byte		N04	
	.byte	W08
	.byte		N04	
	.byte	W08
	.byte		N04	
	.byte	W08
	.byte		N24	
	.byte	W24
	.byte			Ds3
	.byte	W24
	.byte			Fn3
	.byte	W24
	.byte			Dn3
	.byte	W24
	.byte	VOICE	, 48
	.byte	VOL	, v035
	.byte	PAN	, c_v-24
	.byte		N96	, As2
	.byte	W04
	.byte	VOL	, v036
	.byte	W03
	.byte		v036
	.byte	W02
	.byte		v037
	.byte	W02
	.byte		v037
	.byte	W03
	.byte		v038
	.byte	W02
	.byte		v038
	.byte	W03
	.byte		v039
	.byte	W02
	.byte		v039
	.byte	W02
	.byte		v040
	.byte	W03
	.byte		v040
	.byte	W02
	.byte		v041
	.byte	W02
	.byte		v041
	.byte	W03
	.byte		v042
	.byte	W02
	.byte		v042
	.byte	W03
	.byte		v043
	.byte	W02
	.byte		v043
	.byte	W02
	.byte		v044
	.byte	W03
	.byte		v044
	.byte	W02
	.byte		v045
	.byte	W02
	.byte		v045
	.byte	W03
	.byte		v046
	.byte	W02
	.byte		v046
	.byte	W03
	.byte		v047
	.byte	W02
	.byte		v047
	.byte	W02
	.byte		v048
	.byte	W03
	.byte		v048
	.byte	W02
	.byte		v049
	.byte	W02
	.byte		v049
	.byte	W03
	.byte		v050
	.byte	W02
	.byte		v050
	.byte	W03
	.byte		v051
	.byte	W02
	.byte		v051
	.byte	W02
	.byte		v052
	.byte	W03
	.byte		v052
	.byte	W02
	.byte		v053
	.byte	W02
	.byte		v053
	.byte	W03
	.byte		v054
	.byte	W02
	.byte		v054
	.byte	W03
	.byte		v055
	.byte	W01
	.byte		N96	, Bn2
	.byte	W04
	.byte	VOL	, v055
	.byte	W02
	.byte		v054
	.byte	W02
	.byte		v054
	.byte	W02
	.byte		v053
	.byte	W02
	.byte		v053
	.byte	W02
	.byte		v052
	.byte	W03
	.byte		v052
	.byte	W02
	.byte		v051
	.byte	W02
	.byte		v051
	.byte	W02
	.byte		v050
	.byte	W02
	.byte		v050
	.byte	W02
	.byte		v049
	.byte	W03
	.byte		v049
	.byte	W02
	.byte		v048
	.byte	W02
	.byte		v048
	.byte	W02
	.byte		v047
	.byte	W02
	.byte		v047
	.byte	W03
	.byte		v046
	.byte	W02
	.byte		v046
	.byte	W02
	.byte		v045
	.byte	W02
	.byte		v045
	.byte	W02
	.byte		v044
	.byte	W02
	.byte		v044
	.byte	W03
	.byte		v043
	.byte	W02
	.byte		v043
	.byte	W02
	.byte		v042
	.byte	W02
	.byte		v042
	.byte	W02
	.byte		v041
	.byte	W02
	.byte		v041
	.byte	W03
	.byte		v040
	.byte	W02
	.byte		v040
	.byte	W02
	.byte		v039
	.byte	W02
	.byte		v039
	.byte	W02
	.byte		v038
	.byte	W03
	.byte		v038
	.byte	W02
	.byte		v037
	.byte	W02
	.byte		v037
	.byte	W02
	.byte		v036
	.byte	W02
	.byte		v036
	.byte	W02
	.byte		v035
	.byte	W03
	.byte		v035
	.byte	W02
	.byte		v034
	.byte	W02
	.byte		v033
	.byte	W01
	.byte		N96	, Cn3
	.byte	W03
	.byte	VOL	, v034
	.byte	W03
	.byte		v034
	.byte	W02
	.byte		v035
	.byte	W02
	.byte		v035
	.byte	W02
	.byte		v036
	.byte	W02
	.byte		v036
	.byte	W02
	.byte		v037
	.byte	W02
	.byte		v037
	.byte	W02
	.byte		v038
	.byte	W03
	.byte		v038
	.byte	W02
	.byte		v039
	.byte	W02
	.byte		v039
	.byte	W02
	.byte		v040
	.byte	W02
	.byte		v040
	.byte	W02
	.byte		v041
	.byte	W02
	.byte		v041
	.byte	W02
	.byte		v042
	.byte	W03
	.byte		v042
	.byte	W02
	.byte		v043
	.byte	W02
	.byte		v043
	.byte	W02
	.byte		v044
	.byte	W02
	.byte		v044
	.byte	W02
	.byte		v045
	.byte	W02
	.byte		v045
	.byte	W02
	.byte		v046
	.byte	W03
	.byte		v046
	.byte	W02
	.byte		v047
	.byte	W02
	.byte		v047
	.byte	W02
	.byte		v048
	.byte	W02
	.byte		v048
	.byte	W02
	.byte		v049
	.byte	W02
	.byte		v049
	.byte	W02
	.byte		v050
	.byte	W03
	.byte		v050
	.byte	W02
	.byte		v051
	.byte	W02
	.byte		v051
	.byte	W02
	.byte		v052
	.byte	W02
	.byte		v052
	.byte	W02
	.byte		v053
	.byte	W02
	.byte		v053
	.byte	W02
	.byte		v054
	.byte	W03
	.byte		v054
	.byte	W02
	.byte		v055
	.byte	W02
	.byte		v055
	.byte	W01
	.byte		v056
	.byte		N96	, Cs3
	.byte	W03
	.byte	VOL	, v055
	.byte	W02
	.byte		v055
	.byte	W02
	.byte		v054
	.byte	W02
	.byte		v054
	.byte	W02
	.byte		v053
	.byte	W02
	.byte		v053
	.byte	W02
	.byte		v052
	.byte	W02
	.byte		v052
	.byte	W02
	.byte		v051
	.byte	W01
	.byte		v051
	.byte	W02
	.byte		v050
	.byte	W02
	.byte		v050
	.byte	W02
	.byte		v049
	.byte	W02
	.byte		v049
	.byte	W02
	.byte		v048
	.byte	W02
	.byte		v048
	.byte	W02
	.byte		v047
	.byte	W02
	.byte		v047
	.byte	W02
	.byte		v046
	.byte	W01
	.byte		v046
	.byte	W02
	.byte		v045
	.byte	W02
	.byte		v045
	.byte	W02
	.byte		v044
	.byte	W02
	.byte		v044
	.byte	W02
	.byte		v043
	.byte	W02
	.byte		v043
	.byte	W02
	.byte		v042
	.byte	W02
	.byte		v042
	.byte	W02
	.byte		v041
	.byte	W01
	.byte		v041
	.byte	W02
	.byte		v040
	.byte	W02
	.byte		v040
	.byte	W02
	.byte		v039
	.byte	W02
	.byte		v039
	.byte	W02
	.byte		v038
	.byte	W02
	.byte		v038
	.byte	W02
	.byte		v037
	.byte	W02
	.byte		v037
	.byte	W02
	.byte		v036
	.byte	W01
	.byte		v036
	.byte	W02
	.byte		v035
	.byte	W02
	.byte		v035
	.byte	W02
	.byte		v034
	.byte	W02
	.byte		v034
	.byte	W02
	.byte		v033
	.byte	W02
	.byte		v033
	.byte	W02
	.byte		v032
	.byte	W02
	.byte		v032
	.byte	W02
	.byte		v031
	.byte	W01
	.byte	GOTO	
		.word	song017_3_4
	.byte	FINE

	@********************** Track  4 **********************@

	.global song017_4
song017_4:	@ 0x085552DE
	.byte	KEYSH	, 0
song017_4_5:
	.byte	VOICE	, 68
	.byte	VOL	, v050
	.byte	PAN	, c_v+21
	.byte	W96
	.byte	W48
	.byte		N42	, Fs3, v100
	.byte	W48
	.byte	W24
	.byte		N24	, Cn3, v096
	.byte	W24
	.byte			En3
	.byte	W24
	.byte			Gn3
	.byte	W24
	.byte		N48	, Cn4, v100
	.byte	W48
	.byte			Gn3
	.byte	W06
	.byte	VOL	, v050
	.byte	W01
	.byte		v049
	.byte	W01
	.byte		v048
	.byte	W01
	.byte		v048
	.byte	W01
	.byte		v047
	.byte	W01
	.byte		v047
	.byte	W01
	.byte		v046
	.byte	W01
	.byte		v046
	.byte	W01
	.byte		v045
	.byte	W01
	.byte		v044
	.byte	W01
	.byte		v044
	.byte	W01
	.byte		v043
	.byte	W01
	.byte		v042
	.byte	W01
	.byte		v042
	.byte	W01
	.byte		v041
	.byte	W01
	.byte		v040
	.byte	W01
	.byte		v040
	.byte	W01
	.byte		v039
	.byte	W01
	.byte		v038
	.byte	W01
	.byte		v037
	.byte	W01
	.byte		v036
	.byte	W01
	.byte		v036
	.byte	W01
	.byte		v035
	.byte	W01
	.byte		v034
	.byte	W01
	.byte		v033
	.byte	W01
	.byte		v032
	.byte	W01
	.byte		v031
	.byte	W01
	.byte		v030
	.byte	W01
	.byte		v029
	.byte	W01
	.byte		v028
	.byte	W01
	.byte		v027
	.byte	W01
	.byte		v026
	.byte	W01
	.byte		v025
	.byte	W01
	.byte		v023
	.byte	W01
	.byte		v022
	.byte	W01
	.byte		v021
	.byte	W01
	.byte		v020
	.byte	W01
	.byte		v019
	.byte	W01
	.byte		v017
	.byte	W01
	.byte		v015
	.byte	W01
	.byte		v014
	.byte	W01
	.byte		v012
	.byte	W01
	.byte		v011
	.byte	W01
	.byte		v009
	.byte	W01
	.byte		v008
	.byte	W01
	.byte		v006
	.byte	W01
	.byte		v004
	.byte	W01
	.byte		v001
	.byte	W01
	.byte		v000
	.byte	W36
	.byte		v055
	.byte	W54
	.byte	W48
	.byte		N48	, En3, v104
	.byte	W48
	.byte		TIE	, Fs3, v096
	.byte	W84
	.byte	W03
	.byte	VOL	, v055
	.byte	W01
	.byte		v054
	.byte	W01
	.byte		v054
	.byte	W01
	.byte		v053
	.byte	W01
	.byte		v053
	.byte	W01
	.byte		v052
	.byte	W01
	.byte		v052
	.byte	W01
	.byte		v051
	.byte	W01
	.byte		v051
	.byte	W01
	.byte		v050
	.byte	W01
	.byte		v050
	.byte	W01
	.byte		v049
	.byte	W01
	.byte		v049
	.byte	W01
	.byte		v048
	.byte	W01
	.byte		v048
	.byte	W01
	.byte		v047
	.byte	W01
	.byte		v047
	.byte	W01
	.byte		v046
	.byte	W01
	.byte		v046
	.byte	W01
	.byte		v045
	.byte	W01
	.byte		v045
	.byte	W01
	.byte		v044
	.byte	W01
	.byte		v044
	.byte	W01
	.byte		v043
	.byte	W01
	.byte		v043
	.byte	W01
	.byte		v042
	.byte	W01
	.byte		v042
	.byte	W01
	.byte		v041
	.byte	W01
	.byte		v041
	.byte	W01
	.byte		v040
	.byte	W01
	.byte		v040
	.byte	W01
	.byte		v039
	.byte	W01
	.byte		v039
	.byte	W01
	.byte		v038
	.byte	W01
	.byte		v038
	.byte	W01
	.byte		v037
	.byte	W01
	.byte		v037
	.byte	W01
	.byte		v036
	.byte	W01
	.byte		v036
	.byte	W01
	.byte		v035
	.byte	W01
	.byte		v034
	.byte	W01
	.byte		v034
	.byte	W01
	.byte		v033
	.byte	W01
	.byte		v033
	.byte	W01
	.byte		v032
	.byte	W01
	.byte		v032
	.byte	W01
	.byte		v031
	.byte	W01
	.byte		v031
	.byte	W01
	.byte		v030
	.byte	W01
	.byte		v030
	.byte	W01
	.byte		v029
	.byte	W01
	.byte		v029
	.byte	W01
	.byte		v028
	.byte	W01
	.byte		v028
	.byte	W01
	.byte		v027
	.byte	W01
	.byte		v027
	.byte	W01
	.byte		v026
	.byte	W01
	.byte		EOT	
	.byte	VOL	, v027
	.byte		N48	, Cs3, v104
	.byte	W01
	.byte	VOL	, v028
	.byte	W01
	.byte		v030
	.byte	W01
	.byte		v031
	.byte	W01
	.byte		v033
	.byte	W01
	.byte		v034
	.byte	W01
	.byte		v036
	.byte	W01
	.byte		v037
	.byte	W01
	.byte		v039
	.byte	W01
	.byte		v040
	.byte	W01
	.byte		v042
	.byte	W01
	.byte		v043
	.byte	W01
	.byte		v045
	.byte	W01
	.byte		v046
	.byte	W01
	.byte		v048
	.byte	W01
	.byte		v049
	.byte	W01
	.byte		v051
	.byte	W01
	.byte		v052
	.byte	W01
	.byte		v054
	.byte	W01
	.byte		v055
	.byte	W28
	.byte	W01
	.byte		v055
	.byte		N48	, Dn3, v100
	.byte	W48
	.byte		N06	, Dn3, v032
	.byte	W24
	.byte		N04	, Dn3, v100
	.byte	W08
	.byte		N04	
	.byte	W08
	.byte		N04	
	.byte	W08
song017_4_2:
	.byte		N48	, En3, v100
	.byte	W48
	.byte		N06	, En3, v032
	.byte	W24
	.byte		N04	, En3, v100
	.byte	W08
	.byte		N04	
	.byte	W08
	.byte		N04	
	.byte	W08
	.byte	PEND
song017_4_1:
	.byte		N48	, Fs3, v100
	.byte	W48
	.byte		N06	, Fs3, v032
	.byte	W24
	.byte		N04	, Fs3, v100
	.byte	W08
	.byte		N04	
	.byte	W08
	.byte		N04	
	.byte	W08
	.byte	PEND
	.byte		N24	, Gn3
	.byte	W24
	.byte			En3, v092
	.byte	W24
	.byte			Fs3, v096
	.byte	W24
	.byte			Cs3, v084
	.byte	W24
	.byte	PATT	
		.word	song017_4_1
	.byte	PATT	
		.word	song017_4_2
	.byte		N48	, Dn3, v100
	.byte	W48
	.byte		N06	, Dn3, v032
	.byte	W24
	.byte		N04	, Dn3, v100
	.byte	W08
	.byte		N04	
	.byte	W08
	.byte		N04	
	.byte	W08
	.byte		N24	, En3
	.byte	W24
	.byte			Cs3, v096
	.byte	W24
	.byte			Dn3, v100
	.byte	W24
	.byte			An2, v092
	.byte	W23
	.byte	VOL	, v055
	.byte	W01
	.byte	VOICE	, 102
	.byte	VOL	, v023
	.byte	PAN	, c_v-24
	.byte		TIE	, Gs3, v112
	.byte	W02
	.byte	VOL	, v024
	.byte	W01
	.byte		v024
	.byte	W02
	.byte		v025
	.byte	W01
	.byte		v025
	.byte	W01
	.byte		v026
	.byte	W02
	.byte		v026
	.byte	W01
	.byte		v027
	.byte	W01
	.byte		v027
	.byte	W02
	.byte		v028
	.byte	W01
	.byte		v028
	.byte	W01
	.byte		v029
	.byte	W02
	.byte		v029
	.byte	W01
	.byte		v030
	.byte	W01
	.byte		v030
	.byte	W02
	.byte		v031
	.byte	W01
	.byte		v031
	.byte	W01
	.byte		v032
	.byte	W02
	.byte		v032
	.byte	W01
	.byte		v033
	.byte	W01
	.byte		v033
	.byte	W02
	.byte		v034
	.byte	W01
	.byte		v034
	.byte	W01
	.byte		v035
	.byte	W02
	.byte		v035
	.byte	W01
	.byte		v036
	.byte	W01
	.byte		v036
	.byte	W02
	.byte		v037
	.byte	W01
	.byte		v037
	.byte	W01
	.byte		v038
	.byte	W02
	.byte		v038
	.byte	W01
	.byte		v039
	.byte	W01
	.byte		v039
	.byte	W02
	.byte		v040
	.byte	W01
	.byte		v040
	.byte	W01
	.byte		v041
	.byte	W02
	.byte		v041
	.byte	W01
	.byte		v042
	.byte	W01
	.byte		v042
	.byte	W02
	.byte		v043
	.byte	W01
	.byte		v043
	.byte	W01
	.byte		v044
	.byte	W01
	.byte		v044
	.byte	W02
	.byte		v045
	.byte	W01
	.byte		v045
	.byte	W01
	.byte		v046
	.byte	W02
	.byte		v046
	.byte	W01
	.byte		v047
	.byte	W01
	.byte		v047
	.byte	W02
	.byte		v048
	.byte	W01
	.byte		v048
	.byte	W01
	.byte		v049
	.byte	W02
	.byte		v049
	.byte	W01
	.byte		v050
	.byte	W01
	.byte		v050
	.byte	W02
	.byte		v051
	.byte	W01
	.byte		v051
	.byte	W01
	.byte		v052
	.byte	W02
	.byte		v052
	.byte	W01
	.byte		v053
	.byte	W01
	.byte		v053
	.byte	W02
	.byte		v054
	.byte	W01
	.byte		v054
	.byte	W01
	.byte		v055
	.byte	W02
	.byte		v055
	.byte	W01
	.byte		v056
	.byte	W01
	.byte		v056
	.byte	W02
	.byte		v057
	.byte	W01
	.byte		v057
	.byte	W01
	.byte		v058
	.byte	W02
	.byte		v058
	.byte	W01
	.byte		v059
	.byte	W01
	.byte		v059
	.byte	W02
	.byte		v059
	.byte	W01
	.byte		v058
	.byte	W01
	.byte		v058
	.byte	W01
	.byte		v057
	.byte	W01
	.byte		v057
	.byte	W01
	.byte		v056
	.byte	W02
	.byte		v056
	.byte	W01
	.byte		v055
	.byte	W01
	.byte		v055
	.byte	W01
	.byte		v054
	.byte	W01
	.byte		v054
	.byte	W01
	.byte		v053
	.byte	W01
	.byte		v053
	.byte	W01
	.byte		v052
	.byte	W02
	.byte		v052
	.byte	W01
	.byte		v051
	.byte	W01
	.byte		v051
	.byte	W01
	.byte		v050
	.byte	W01
	.byte		v050
	.byte	W01
	.byte		v049
	.byte	W01
	.byte		v049
	.byte	W01
	.byte		v048
	.byte	W02
	.byte		v048
	.byte	W01
	.byte		v047
	.byte	W01
	.byte		v047
	.byte	W01
	.byte		v046
	.byte	W01
	.byte		v046
	.byte	W01
	.byte		v045
	.byte	W01
	.byte		v045
	.byte	W01
	.byte		v044
	.byte	W02
	.byte		v044
	.byte	W01
	.byte		v043
	.byte	W01
	.byte		v043
	.byte	W01
	.byte		v042
	.byte	W01
	.byte		v042
	.byte	W01
	.byte		v041
	.byte	W01
	.byte		v041
	.byte	W01
	.byte		v040
	.byte	W02
	.byte		v040
	.byte	W01
	.byte		v039
	.byte	W01
	.byte		v039
	.byte	W01
	.byte		v038
	.byte	W01
	.byte		v038
	.byte	W01
	.byte		v037
	.byte	W01
	.byte		v037
	.byte	W01
	.byte		v036
	.byte	W02
	.byte		v036
	.byte	W01
	.byte		v035
	.byte	W01
	.byte		v035
	.byte	W01
	.byte		v034
	.byte	W01
	.byte		v034
	.byte	W01
	.byte		v033
	.byte	W01
	.byte		v033
	.byte	W01
	.byte		v032
	.byte	W02
	.byte		v032
	.byte	W01
	.byte		v031
	.byte	W01
	.byte		v031
	.byte	W01
	.byte		v030
	.byte	W01
	.byte		v030
	.byte	W01
	.byte		v029
	.byte	W01
	.byte		v029
	.byte	W01
	.byte		v028
	.byte	W02
	.byte		v028
	.byte	W01
	.byte		v027
	.byte	W01
	.byte		v027
	.byte	W01
	.byte		v026
	.byte	W01
	.byte		v026
	.byte	W01
	.byte		v025
	.byte	W01
	.byte		v025
	.byte	W01
	.byte		v024
	.byte	W02
	.byte		v024
	.byte	W01
	.byte		v023
	.byte	W01
	.byte		v023
	.byte	W01
	.byte		v022
	.byte	W01
	.byte		v022
	.byte	W01
	.byte		v021
	.byte	W01
	.byte		v021
	.byte	W01
	.byte		v020
	.byte	W02
	.byte		v020
	.byte	W01
	.byte		v019
	.byte	W01
	.byte		v019
	.byte	W01
	.byte		v018
	.byte	W01
	.byte		v018
	.byte	W01
	.byte		v017
	.byte	W01
	.byte		EOT	
	.byte	VOL	, v017
	.byte		TIE	, Fs3
	.byte	W02
	.byte	VOL	, v017
	.byte	W01
	.byte		v018
	.byte	W01
	.byte		v018
	.byte	W01
	.byte		v019
	.byte	W01
	.byte		v019
	.byte	W02
	.byte		v020
	.byte	W01
	.byte		v020
	.byte	W01
	.byte		v021
	.byte	W01
	.byte		v021
	.byte	W01
	.byte		v022
	.byte	W01
	.byte		v022
	.byte	W01
	.byte		v023
	.byte	W02
	.byte		v023
	.byte	W01
	.byte		v024
	.byte	W01
	.byte		v024
	.byte	W01
	.byte		v025
	.byte	W01
	.byte		v025
	.byte	W01
	.byte		v026
	.byte	W02
	.byte		v026
	.byte	W01
	.byte		v027
	.byte	W01
	.byte		v027
	.byte	W01
	.byte		v028
	.byte	W01
	.byte		v028
	.byte	W01
	.byte		v029
	.byte	W01
	.byte		v029
	.byte	W02
	.byte		v030
	.byte	W01
	.byte		v030
	.byte	W01
	.byte		v031
	.byte	W01
	.byte		v031
	.byte	W01
	.byte		v032
	.byte	W01
	.byte		v032
	.byte	W01
	.byte		v033
	.byte	W02
	.byte		v033
	.byte	W01
	.byte		v034
	.byte	W01
	.byte		v034
	.byte	W01
	.byte		v035
	.byte	W01
	.byte		v035
	.byte	W01
	.byte		v036
	.byte	W02
	.byte		v036
	.byte	W01
	.byte		v037
	.byte	W01
	.byte		v037
	.byte	W01
	.byte		v038
	.byte	W01
	.byte		v038
	.byte	W01
	.byte		v039
	.byte	W01
	.byte		v039
	.byte	W02
	.byte		v040
	.byte	W01
	.byte		v040
	.byte	W01
	.byte		v041
	.byte	W01
	.byte		v041
	.byte	W01
	.byte		v042
	.byte	W01
	.byte		v042
	.byte	W01
	.byte		v043
	.byte	W02
	.byte		v043
	.byte	W01
	.byte		v044
	.byte	W01
	.byte		v044
	.byte	W01
	.byte		v045
	.byte	W01
	.byte		v045
	.byte	W01
	.byte		v046
	.byte	W02
	.byte		v046
	.byte	W01
	.byte		v047
	.byte	W01
	.byte		v047
	.byte	W01
	.byte		v048
	.byte	W01
	.byte		v048
	.byte	W01
	.byte		v049
	.byte	W01
	.byte		v049
	.byte	W02
	.byte		v050
	.byte	W01
	.byte		v050
	.byte	W01
	.byte		v051
	.byte	W01
	.byte		v051
	.byte	W01
	.byte		v052
	.byte	W01
	.byte		v052
	.byte	W01
	.byte		v053
	.byte	W02
	.byte		v053
	.byte	W01
	.byte		v054
	.byte	W01
	.byte		v054
	.byte	W01
	.byte		v055
	.byte	W01
	.byte		v055
	.byte	W01
	.byte		v056
	.byte	W02
	.byte		v056
	.byte	W01
	.byte		v057
	.byte	W01
	.byte		v057
	.byte	W01
	.byte		v058
	.byte	W01
	.byte		v058
	.byte	W02
	.byte		v058
	.byte	W01
	.byte		v057
	.byte	W01
	.byte		v057
	.byte	W01
	.byte		v056
	.byte	W01
	.byte		v056
	.byte	W02
	.byte		v055
	.byte	W01
	.byte		v055
	.byte	W01
	.byte		v054
	.byte	W01
	.byte		v054
	.byte	W01
	.byte		v053
	.byte	W01
	.byte		v053
	.byte	W01
	.byte		v052
	.byte	W02
	.byte		v052
	.byte	W01
	.byte		v051
	.byte	W01
	.byte		v051
	.byte	W01
	.byte		v050
	.byte	W01
	.byte		v050
	.byte	W01
	.byte		v049
	.byte	W02
	.byte		v049
	.byte	W01
	.byte		v048
	.byte	W01
	.byte		v048
	.byte	W01
	.byte		v047
	.byte	W01
	.byte		v047
	.byte	W01
	.byte		v046
	.byte	W01
	.byte		v046
	.byte	W02
	.byte		v045
	.byte	W01
	.byte		v045
	.byte	W01
	.byte		v044
	.byte	W01
	.byte		v044
	.byte	W01
	.byte		v043
	.byte	W01
	.byte		v043
	.byte	W01
	.byte		v042
	.byte	W02
	.byte		v042
	.byte	W01
	.byte		v041
	.byte	W01
	.byte		v041
	.byte	W01
	.byte		v040
	.byte	W01
	.byte		v040
	.byte	W01
	.byte		v039
	.byte	W02
	.byte		v039
	.byte	W01
	.byte		v038
	.byte	W01
	.byte		v038
	.byte	W01
	.byte		v037
	.byte	W01
	.byte		v037
	.byte	W01
	.byte		v036
	.byte	W01
	.byte		v036
	.byte	W02
	.byte		v035
	.byte	W01
	.byte		v035
	.byte	W01
	.byte		v034
	.byte	W01
	.byte		v034
	.byte	W01
	.byte		v033
	.byte	W01
	.byte		v033
	.byte	W01
	.byte		v032
	.byte	W02
	.byte		v032
	.byte	W01
	.byte		v031
	.byte	W01
	.byte		v031
	.byte	W02
	.byte		v030
	.byte	W01
	.byte		v030
	.byte	W02
	.byte		v029
	.byte	W01
	.byte		v029
	.byte	W01
	.byte		v028
	.byte	W01
	.byte		v028
	.byte	W01
	.byte		v027
	.byte	W01
	.byte		v027
	.byte	W01
	.byte		v026
	.byte	W02
	.byte		v026
	.byte	W01
	.byte		v025
	.byte	W01
	.byte		v025
	.byte	W01
	.byte		v024
	.byte	W01
	.byte		v024
	.byte	W01
	.byte		v023
	.byte	W01
	.byte		v023
	.byte	W02
	.byte		v022
	.byte	W01
	.byte		v022
	.byte	W01
	.byte		v021
	.byte	W01
	.byte		v021
	.byte	W01
	.byte		v020
	.byte	W01
	.byte		v020
	.byte	W02
	.byte		v019
	.byte	W01
	.byte		v019
	.byte	W01
	.byte		v018
	.byte	W01
	.byte		v018
	.byte	W01
	.byte		EOT	
	.byte	VOL	, v017
	.byte		TIE	
	.byte	W02
	.byte	VOL	, v018
	.byte	W01
	.byte		v018
	.byte	W02
	.byte		v019
	.byte	W01
	.byte		v019
	.byte	W01
	.byte		v020
	.byte	W02
	.byte		v020
	.byte	W01
	.byte		v021
	.byte	W01
	.byte		v021
	.byte	W02
	.byte		v022
	.byte	W01
	.byte		v022
	.byte	W01
	.byte		v023
	.byte	W01
	.byte		v023
	.byte	W02
	.byte		v024
	.byte	W01
	.byte		v024
	.byte	W01
	.byte		v025
	.byte	W02
	.byte		v025
	.byte	W01
	.byte		v026
	.byte	W01
	.byte		v026
	.byte	W02
	.byte		v027
	.byte	W01
	.byte		v027
	.byte	W01
	.byte		v028
	.byte	W01
	.byte		v028
	.byte	W02
	.byte		v029
	.byte	W01
	.byte		v029
	.byte	W01
	.byte		v030
	.byte	W02
	.byte		v030
	.byte	W01
	.byte		v031
	.byte	W01
	.byte		v031
	.byte	W02
	.byte		v032
	.byte	W01
	.byte		v032
	.byte	W01
	.byte		v033
	.byte	W01
	.byte		v033
	.byte	W02
	.byte		v034
	.byte	W01
	.byte		v034
	.byte	W01
	.byte		v035
	.byte	W02
	.byte		v035
	.byte	W01
	.byte		v036
	.byte	W01
	.byte		v036
	.byte	W02
	.byte		v037
	.byte	W01
	.byte		v037
	.byte	W01
	.byte		v038
	.byte	W01
	.byte		v038
	.byte	W02
	.byte		v039
	.byte	W01
	.byte		v039
	.byte	W01
	.byte		v040
	.byte	W02
	.byte		v040
	.byte	W01
	.byte		v041
	.byte	W01
	.byte		v041
	.byte	W02
	.byte		v042
	.byte	W01
	.byte		v042
	.byte	W01
	.byte		v043
	.byte	W01
	.byte		v043
	.byte	W02
	.byte		v044
	.byte	W01
	.byte		v044
	.byte	W01
	.byte		v045
	.byte	W02
	.byte		v045
	.byte	W01
	.byte		v046
	.byte	W01
	.byte		v046
	.byte	W02
	.byte		v047
	.byte	W01
	.byte		v047
	.byte	W01
	.byte		v048
	.byte	W01
	.byte		v048
	.byte	W02
	.byte		v049
	.byte	W01
	.byte		v049
	.byte	W01
	.byte		v050
	.byte	W02
	.byte		v050
	.byte	W01
	.byte		v051
	.byte	W01
	.byte		v051
	.byte	W02
	.byte		v052
	.byte	W01
	.byte		v052
	.byte	W01
	.byte		v053
	.byte	W01
	.byte		v053
	.byte	W02
	.byte		v054
	.byte	W03
	.byte		v054
	.byte	W01
	.byte		v053
	.byte	W01
	.byte		v053
	.byte	W02
	.byte		v052
	.byte	W01
	.byte		v052
	.byte	W01
	.byte		v051
	.byte	W02
	.byte		v051
	.byte	W01
	.byte		v050
	.byte	W01
	.byte		v050
	.byte	W01
	.byte		v049
	.byte	W02
	.byte		v049
	.byte	W01
	.byte		v048
	.byte	W01
	.byte		v048
	.byte	W02
	.byte		v047
	.byte	W01
	.byte		v047
	.byte	W01
	.byte		v046
	.byte	W02
	.byte		v046
	.byte	W01
	.byte		v045
	.byte	W01
	.byte		v045
	.byte	W01
	.byte		v044
	.byte	W02
	.byte		v044
	.byte	W01
	.byte		v043
	.byte	W01
	.byte		v043
	.byte	W02
	.byte		v042
	.byte	W01
	.byte		v042
	.byte	W01
	.byte		v041
	.byte	W02
	.byte		v041
	.byte	W01
	.byte		v040
	.byte	W01
	.byte		v040
	.byte	W01
	.byte		v039
	.byte	W02
	.byte		v039
	.byte	W01
	.byte		v038
	.byte	W01
	.byte		v038
	.byte	W02
	.byte		v037
	.byte	W01
	.byte		v037
	.byte	W01
	.byte		v036
	.byte	W02
	.byte		v036
	.byte	W01
	.byte		v035
	.byte	W01
	.byte		v035
	.byte	W01
	.byte		v034
	.byte	W02
	.byte		v034
	.byte	W01
	.byte		v033
	.byte	W01
	.byte		v033
	.byte	W02
	.byte		v032
	.byte	W01
	.byte		v032
	.byte	W01
	.byte		v031
	.byte	W02
	.byte		v031
	.byte	W01
	.byte		v030
	.byte	W01
	.byte		v030
	.byte	W01
	.byte		v029
	.byte	W02
	.byte		v029
	.byte	W01
	.byte		v028
	.byte	W01
	.byte		v028
	.byte	W02
	.byte		v027
	.byte	W01
	.byte		v027
	.byte	W01
	.byte		v026
	.byte	W02
	.byte		v026
	.byte	W01
	.byte		v025
	.byte	W01
	.byte		v025
	.byte	W01
	.byte		v024
	.byte	W02
	.byte		v024
	.byte	W01
	.byte		v023
	.byte	W03
	.byte		v023
	.byte	W01
	.byte		v022
	.byte	W01
	.byte		v022
	.byte	W02
	.byte		v021
	.byte	W01
	.byte		v021
	.byte	W01
	.byte		v020
	.byte	W01
	.byte		v020
	.byte	W02
	.byte		v034
	.byte	W01
	.byte		v049
	.byte	W01
	.byte		EOT	
	.byte	VOICE	, 68
	.byte	VOL	, v055
	.byte	PAN	, c_v+21
	.byte	W48
	.byte		N06	, Fs3, v116
	.byte	W06
	.byte			Fs3, v032
	.byte	W06
	.byte			En3, v112
	.byte	W06
	.byte			En3, v032
	.byte	W06
	.byte		N24	, Dn3, v112
	.byte	W24
	.byte		N06	, Dn3, v032
	.byte	W96
	.byte			An3, v116
	.byte	W06
	.byte			An3, v032
	.byte	W06
	.byte			Gn3, v112
	.byte	W06
	.byte			Gn3, v032
	.byte	W06
	.byte		N24	, Fn3, v112
	.byte	W24
	.byte		N06	, Fn3, v032
	.byte	W48
	.byte	W48
	.byte			Fs3, v116
	.byte	W06
	.byte			Fs3, v032
	.byte	W06
	.byte			En3, v112
	.byte	W06
	.byte			En3, v032
	.byte	W06
	.byte		N24	, Dn3, v112
	.byte	W24
	.byte		N06	, Dn3, v032
	.byte	W96
	.byte			Dn3, v116
	.byte	W06
	.byte			Dn3, v032
	.byte	W06
	.byte			Cs3, v112
	.byte	W06
	.byte			Cs3, v032
	.byte	W06
	.byte		N24	, An2, v112
	.byte	W24
	.byte		N06	, An2, v032
	.byte	W48
	.byte		TIE	, An2, v112
	.byte	W96
	.byte	W15
	.byte		EOT	
	.byte	W09
	.byte		N21	
	.byte	W24
	.byte			Bn2
	.byte	W24
	.byte			Cn3
	.byte	W24
	.byte		N92	, Gs2
	.byte	W96
	.byte		N44	, As2
	.byte	W48
	.byte		N36	, Bn2
	.byte	W42
	.byte		N06	, Bn2, v032
	.byte	W06
song017_4_3:
	.byte		N48	, Ds3, v116
	.byte	W48
	.byte		N06	, Ds3, v032
	.byte	W24
	.byte			Ds3, v116
	.byte	W08
	.byte		N06	
	.byte	W08
	.byte		N06	
	.byte	W08
	.byte	PEND
song017_4_4:
	.byte		N48	, Dn3, v116
	.byte	W48
	.byte		N06	, Dn3, v032
	.byte	W24
	.byte			Gn3, v116
	.byte	W06
	.byte			Gn3, v032
	.byte	W06
	.byte			Fn3, v116
	.byte	W06
	.byte			Fn3, v032
	.byte	W06
	.byte	PEND
	.byte		N48	, Ds3, v116
	.byte	W48
	.byte		N06	, Ds3, v032
	.byte	W24
	.byte			Cn3, v116
	.byte	W08
	.byte		N06	
	.byte	W08
	.byte		N06	
	.byte	W08
	.byte		N84	
	.byte	W84
	.byte		N06	, Cn3, v032
	.byte	W12
	.byte	PATT	
		.word	song017_4_3
	.byte	PATT	
		.word	song017_4_4
	.byte	PATT	
		.word	song017_4_3
	.byte		N84	, Ds3, v116
	.byte	W32
	.byte	W03
	.byte	VOL	, v054
	.byte	W01
	.byte		v054
	.byte	W01
	.byte		v053
	.byte	W01
	.byte		v052
	.byte	W01
	.byte		v051
	.byte	W01
	.byte		v051
	.byte	W01
	.byte		v050
	.byte	W01
	.byte		v049
	.byte	W01
	.byte		v048
	.byte	W01
	.byte		v047
	.byte	W01
	.byte		v046
	.byte	W01
	.byte		v045
	.byte	W01
	.byte		v044
	.byte	W01
	.byte		v043
	.byte	W01
	.byte		v042
	.byte	W01
	.byte		v041
	.byte	W01
	.byte		v040
	.byte	W01
	.byte		v039
	.byte	W01
	.byte		v037
	.byte	W01
	.byte		v036
	.byte	W01
	.byte		v035
	.byte	W01
	.byte		v034
	.byte	W01
	.byte		v032
	.byte	W01
	.byte		v031
	.byte	W01
	.byte		v030
	.byte	W01
	.byte		v028
	.byte	W01
	.byte		v027
	.byte	W01
	.byte		v025
	.byte	W01
	.byte		v023
	.byte	W01
	.byte		v022
	.byte	W01
	.byte		v020
	.byte	W01
	.byte		v018
	.byte	W01
	.byte		v017
	.byte	W01
	.byte		v015
	.byte	W01
	.byte		v013
	.byte	W01
	.byte		v011
	.byte	W01
	.byte		v009
	.byte	W01
	.byte		v007
	.byte	W01
	.byte		v005
	.byte	W01
	.byte		v002
	.byte	W01
	.byte		v000
	.byte	W21
	.byte		v055
	.byte	PAN	, c_v
	.byte	W24
	.byte		N12	, Gn2, v100
	.byte	W12
	.byte		N06	, Gn2, v032
	.byte	W12
	.byte		N12	, An2, v100
	.byte	W12
	.byte		N06	, An2, v032
	.byte	W12
	.byte		N12	, As2, v100
	.byte	W12
	.byte		N06	, As2, v032
	.byte	W12
	.byte		N48	, Bn2, v100
	.byte	W48
	.byte			Cs3
	.byte	W48
	.byte		N06	, Cs3, v032
	.byte	W24
	.byte		N12	, Bn2, v100
	.byte	W12
	.byte		N06	, Bn2, v032
	.byte	W12
	.byte		N12	, Cn3, v100
	.byte	W12
	.byte		N06	, Cn3, v032
	.byte	W12
	.byte		N12	, Dn3, v100
	.byte	W12
	.byte		N06	, Dn3, v032
	.byte	W12
	.byte		N48	, En3, v100
	.byte	W48
	.byte			Fs3
	.byte	W48
	.byte	GOTO	
		.word	song017_4_5
	.byte	FINE

	@********************** Track  5 **********************@

	.global song017_5
song017_5:	@ 0x0855598B
	.byte	KEYSH	, 0
song017_5_5:
	.byte	W96
	.byte	W96
	.byte	W96
	.byte	W96
	.byte	W96
	.byte	W96
	.byte	W96
	.byte	W96
	.byte	VOICE	, 0
	.byte	VOL	, v030
	.byte	PAN	, c_v-29
	.byte		N12	, Bn2, v072
	.byte	W12
	.byte			Fs2
	.byte	W12
	.byte			Cs3
	.byte	W12
	.byte			Fs2
	.byte	W12
	.byte			Dn3
	.byte	W12
	.byte			Fs2
	.byte	W12
	.byte			En3
	.byte	W12
	.byte			Fs2
	.byte	W12
song017_5_2:
	.byte		N12	, Cs3, v072
	.byte	W12
	.byte			Fs2
	.byte	W12
	.byte			Dn3
	.byte	W12
	.byte			Fs2
	.byte	W12
	.byte			En3
	.byte	W12
	.byte			Fs2
	.byte	W12
	.byte			Cs3
	.byte	W12
	.byte			Fs2
	.byte	W12
	.byte	PEND
song017_5_1:
	.byte		N12	, Bn2, v072
	.byte	W12
	.byte			Fs2
	.byte	W12
	.byte			Cs3
	.byte	W12
	.byte			Fs2
	.byte	W12
	.byte			Dn3
	.byte	W12
	.byte			Fs2
	.byte	W12
	.byte			En3
	.byte	W12
	.byte			Fs2
	.byte	W12
	.byte	PEND
	.byte			Cs3
	.byte	W12
	.byte			Fs2
	.byte	W12
	.byte			Dn3
	.byte	W12
	.byte			Fs2
	.byte	W12
	.byte			En3
	.byte	W12
	.byte			Fs2
	.byte	W12
	.byte			Fs3
	.byte	W12
	.byte			Fs2
	.byte	W12
	.byte	PATT	
		.word	song017_5_1
	.byte	PATT	
		.word	song017_5_2
	.byte	PATT	
		.word	song017_5_1
	.byte		N12	, Dn3, v072
	.byte	W12
	.byte			Fs2
	.byte	W12
	.byte			Cs3
	.byte	W12
	.byte			Fs2
	.byte	W12
	.byte			Dn3
	.byte	W12
	.byte			Fs2
	.byte	W12
	.byte			En3
	.byte	W12
	.byte			Fs2
	.byte	W11
	.byte	VOL	, v042
	.byte	W01
	.byte	VOICE	, 48
	.byte	PAN	, c_v+36
	.byte	W08
	.byte	VOL	, v042
	.byte	W05
	.byte		v043
	.byte	W04
	.byte		v043
	.byte	W04
	.byte		v044
	.byte	W05
	.byte		v044
	.byte	W04
	.byte		v045
	.byte	W05
	.byte		v045
	.byte	W04
	.byte		v046
	.byte	W04
	.byte		v046
	.byte	W05
	.byte		v047
	.byte	W04
	.byte		v047
	.byte	W05
	.byte		v048
	.byte	W04
	.byte		v048
	.byte	W04
	.byte		v049
	.byte	W05
	.byte		v049
	.byte	W04
	.byte		v050
	.byte	W05
	.byte		v050
	.byte	W04
	.byte		v051
	.byte	W04
	.byte		v051
	.byte	W05
	.byte		v052
	.byte	W04
	.byte		v052
	.byte	W01
	.byte		v053
	.byte	W04
	.byte		v052
	.byte	W04
	.byte		v052
	.byte	W04
	.byte		v051
	.byte	W04
	.byte		v051
	.byte	W03
	.byte		v050
	.byte	W04
	.byte		v050
	.byte	W04
	.byte		v049
	.byte	W04
	.byte		v049
	.byte	W04
	.byte		v048
	.byte	W04
	.byte		v048
	.byte	W04
	.byte		v047
	.byte	W04
	.byte		v047
	.byte	W04
	.byte		v046
	.byte	W04
	.byte		v046
	.byte	W04
	.byte		v045
	.byte	W04
	.byte		v045
	.byte	W04
	.byte		v044
	.byte	W04
	.byte		v044
	.byte	W04
	.byte		v043
	.byte	W04
	.byte		v043
	.byte	W04
	.byte		v042
	.byte	W04
	.byte		v042
	.byte	W04
	.byte		v041
	.byte	W04
	.byte		v041
	.byte	W07
	.byte		v041
	.byte	W03
	.byte		v042
	.byte	W04
	.byte		v042
	.byte	W03
	.byte		v043
	.byte	W04
	.byte		v043
	.byte	W03
	.byte		v044
	.byte	W04
	.byte		v044
	.byte	W03
	.byte		v045
	.byte	W04
	.byte		v045
	.byte	W04
	.byte		v046
	.byte	W03
	.byte		v046
	.byte	W04
	.byte		v047
	.byte	W03
	.byte		v047
	.byte	W04
	.byte		v048
	.byte	W03
	.byte		v048
	.byte	W04
	.byte		v049
	.byte	W03
	.byte		v049
	.byte	W04
	.byte		v050
	.byte	W04
	.byte		v050
	.byte	W03
	.byte		v051
	.byte	W04
	.byte		v051
	.byte	W03
	.byte		v052
	.byte	W04
	.byte		v052
	.byte	W03
	.byte		v053
	.byte	W04
	.byte		v053
	.byte	W03
	.byte		v054
	.byte	W01
	.byte		v054
	.byte	W06
	.byte		v054
	.byte	W03
	.byte		v053
	.byte	W03
	.byte		v053
	.byte	W03
	.byte		v052
	.byte	W03
	.byte		v052
	.byte	W03
	.byte		v051
	.byte	W03
	.byte		v051
	.byte	W03
	.byte		v050
	.byte	W03
	.byte		v050
	.byte	W03
	.byte		v049
	.byte	W03
	.byte		v049
	.byte	W03
	.byte		v048
	.byte	W04
	.byte		v048
	.byte	W03
	.byte		v047
	.byte	W03
	.byte		v047
	.byte	W03
	.byte		v046
	.byte	W03
	.byte		v046
	.byte	W03
	.byte		v045
	.byte	W03
	.byte		v045
	.byte	W03
	.byte		v044
	.byte	W03
	.byte		v044
	.byte	W03
	.byte		v043
	.byte	W03
	.byte		v043
	.byte	W03
	.byte		v042
	.byte	W03
	.byte		v042
	.byte	W04
	.byte		v041
	.byte	W03
	.byte		v041
	.byte	W03
	.byte		v040
	.byte	W03
	.byte		v040
	.byte	W03
	.byte		v039
	.byte	W01
	.byte		v039
	.byte	W07
	.byte		v039
	.byte	W04
	.byte		v040
	.byte	W03
	.byte		v040
	.byte	W04
	.byte		v041
	.byte	W04
	.byte		v041
	.byte	W03
	.byte		v042
	.byte	W04
	.byte		v042
	.byte	W04
	.byte		v043
	.byte	W03
	.byte		v043
	.byte	W04
	.byte		v044
	.byte	W04
	.byte		v044
	.byte	W03
	.byte		v045
	.byte	W04
	.byte		v045
	.byte	W04
	.byte		v046
	.byte	W03
	.byte		v046
	.byte	W04
	.byte		v047
	.byte	W04
	.byte		v047
	.byte	W03
	.byte		v048
	.byte	W04
	.byte		v048
	.byte	W04
	.byte		v049
	.byte	W03
	.byte		v049
	.byte	W04
	.byte		v050
	.byte	W04
	.byte		v050
	.byte	W03
	.byte		v051
	.byte	W04
	.byte		v051
	.byte	W01
	.byte		v052
	.byte	W07
	.byte		v051
	.byte	W03
	.byte		v051
	.byte	W04
	.byte		v050
	.byte	W03
	.byte		v050
	.byte	W04
	.byte		v049
	.byte	W03
	.byte		v049
	.byte	W04
	.byte		v048
	.byte	W03
	.byte		v048
	.byte	W04
	.byte		v047
	.byte	W04
	.byte		v047
	.byte	W03
	.byte		v046
	.byte	W04
	.byte		v046
	.byte	W03
	.byte		v045
	.byte	W04
	.byte		v045
	.byte	W03
	.byte		v044
	.byte	W04
	.byte		v044
	.byte	W03
	.byte		v043
	.byte	W04
	.byte		v043
	.byte	W04
	.byte		v042
	.byte	W03
	.byte		v042
	.byte	W04
	.byte		v041
	.byte	W03
	.byte		v041
	.byte	W04
	.byte		v040
	.byte	W03
	.byte		v040
	.byte	W04
	.byte		v039
	.byte	W03
	.byte		v038
	.byte	W01
	.byte	VOICE	, 57
	.byte	VOL	, v054
	.byte	PAN	, c_v-29
	.byte	W48
	.byte		N06	, Dn3, v116
	.byte	W12
	.byte			Cs3, v112
	.byte	W12
	.byte		N24	, Bn2
	.byte	W24
	.byte	W96
	.byte		N06	, Fs3, v116
	.byte	W12
	.byte			Dn3, v112
	.byte	W12
	.byte		N24	
	.byte	W72
	.byte	W48
	.byte		N06	, Dn3, v116
	.byte	W12
	.byte			Cs3, v112
	.byte	W12
	.byte		N24	, Bn2
	.byte	W24
	.byte	W96
	.byte		N06	, Bn2, v116
	.byte	W12
	.byte			An2, v112
	.byte	W12
	.byte		N24	, Fs2
	.byte	W72
	.byte	VOICE	, 0
	.byte	VOL	, v030
	.byte	PAN	, c_v-29
	.byte		N12	, An2, v072
	.byte	W12
	.byte			En2
	.byte	W12
	.byte			Bn2
	.byte	W12
	.byte			En2
	.byte	W12
	.byte			Cn3
	.byte	W12
	.byte			En2
	.byte	W12
	.byte			Dn3
	.byte	W12
	.byte			En2
	.byte	W12
	.byte			Bn2
	.byte	W12
	.byte			En2
	.byte	W12
	.byte			Cn3
	.byte	W12
	.byte			En2
	.byte	W12
	.byte			Dn3
	.byte	W12
	.byte			En2
	.byte	W12
	.byte			Bn2
	.byte	W12
	.byte			En2
	.byte	W12
	.byte			Gs2
	.byte	W12
	.byte			Ds2
	.byte	W12
	.byte			As2
	.byte	W12
	.byte			Ds2
	.byte	W12
	.byte			Bn2
	.byte	W12
	.byte			Ds2
	.byte	W12
	.byte			As2
	.byte	W12
	.byte			Ds2
	.byte	W12
	.byte			Gs2
	.byte	W12
	.byte			Ds2
	.byte	W12
	.byte			As2
	.byte	W12
	.byte			Ds2
	.byte	W12
	.byte			Gs2
	.byte	W12
	.byte			Ds2
	.byte	W12
	.byte			Bn2
	.byte	W12
	.byte			Gn2
	.byte	W12
song017_5_3:
	.byte		N12	, Cn3, v072
	.byte	W12
	.byte			Gn2
	.byte	W12
	.byte			Dn3
	.byte	W12
	.byte			Gn2
	.byte	W12
	.byte			Ds3
	.byte	W12
	.byte			Gn2
	.byte	W12
	.byte			Fn3
	.byte	W12
	.byte			Gn2
	.byte	W12
	.byte	PEND
song017_5_4:
	.byte		N12	, Dn3, v072
	.byte	W12
	.byte			Gn2
	.byte	W12
	.byte			Ds3
	.byte	W12
	.byte			Gn2
	.byte	W12
	.byte			Fn3
	.byte	W12
	.byte			Gn2
	.byte	W12
	.byte			Dn3
	.byte	W12
	.byte			Gn2
	.byte	W12
	.byte	PEND
	.byte	PATT	
		.word	song017_5_3
	.byte		N12	, Ds3, v072
	.byte	W12
	.byte			Gn2
	.byte	W12
	.byte			Dn3
	.byte	W12
	.byte			Gn2
	.byte	W12
	.byte			Ds3
	.byte	W12
	.byte			Gn2
	.byte	W12
	.byte			Fn3
	.byte	W12
	.byte			Gn2
	.byte	W12
	.byte	PATT	
		.word	song017_5_3
	.byte	PATT	
		.word	song017_5_4
	.byte	PATT	
		.word	song017_5_3
	.byte		N12	, Ds3, v072
	.byte	W12
	.byte			Gn2
	.byte	W12
	.byte			Dn3
	.byte	W12
	.byte			Gn2
	.byte	W12
	.byte			Ds3
	.byte	W12
	.byte			Gn2
	.byte	W12
	.byte			Fn3
	.byte	W12
	.byte			Gn2
	.byte	W11
	.byte	VOL	, v042
	.byte	W01
	.byte	VOICE	, 48
	.byte	PAN	, c_v+36
	.byte		N96	, Gn2, v112
	.byte	W08
	.byte	VOL	, v042
	.byte	W05
	.byte		v043
	.byte	W04
	.byte		v043
	.byte	W05
	.byte		v044
	.byte	W04
	.byte		v044
	.byte	W05
	.byte		v045
	.byte	W04
	.byte		v045
	.byte	W04
	.byte		v046
	.byte	W05
	.byte		v046
	.byte	W04
	.byte		v047
	.byte	W05
	.byte		v047
	.byte	W04
	.byte		v048
	.byte	W05
	.byte		v048
	.byte	W04
	.byte		v049
	.byte	W05
	.byte		v049
	.byte	W04
	.byte		v050
	.byte	W05
	.byte		v050
	.byte	W04
	.byte		v051
	.byte	W04
	.byte		v051
	.byte	W05
	.byte		v052
	.byte	W03
	.byte		N96	, Fs2
	.byte	W01
	.byte	VOL	, v052
	.byte	W05
	.byte		v053
	.byte	W04
	.byte		v053
	.byte	W05
	.byte		v054
	.byte	W04
	.byte		v054
	.byte	W05
	.byte		v055
	.byte	W04
	.byte		v055
	.byte	W04
	.byte		v056
	.byte	W05
	.byte		v056
	.byte	W04
	.byte		v057
	.byte	W05
	.byte		v057
	.byte	W04
	.byte		v058
	.byte	W05
	.byte		v058
	.byte	W04
	.byte		v059
	.byte	W05
	.byte		v059
	.byte	W04
	.byte		v060
	.byte	W05
	.byte		v060
	.byte	W04
	.byte		v061
	.byte	W04
	.byte		v061
	.byte	W05
	.byte		v062
	.byte	W04
	.byte		v062
	.byte	W05
	.byte		v064
	.byte	W01
	.byte		N96	, Fn2
	.byte	W07
	.byte	VOL	, v063
	.byte	W04
	.byte		v062
	.byte	W04
	.byte		v062
	.byte	W03
	.byte		v061
	.byte	W04
	.byte		v061
	.byte	W04
	.byte		v060
	.byte	W04
	.byte		v060
	.byte	W04
	.byte		v059
	.byte	W03
	.byte		v059
	.byte	W04
	.byte		v058
	.byte	W04
	.byte		v058
	.byte	W04
	.byte		v057
	.byte	W04
	.byte		v057
	.byte	W04
	.byte		v056
	.byte	W03
	.byte		v056
	.byte	W04
	.byte		v055
	.byte	W04
	.byte		v055
	.byte	W04
	.byte		v054
	.byte	W04
	.byte		v054
	.byte	W04
	.byte		v053
	.byte	W03
	.byte		v053
	.byte	W04
	.byte		v052
	.byte	W04
	.byte		v052
	.byte	W04
	.byte		v051
	.byte	W01
	.byte		N96	, En2
	.byte	W03
	.byte	VOL	, v051
	.byte	W03
	.byte		v050
	.byte	W04
	.byte		v050
	.byte	W04
	.byte		v049
	.byte	W04
	.byte		v049
	.byte	W04
	.byte		v048
	.byte	W04
	.byte		v048
	.byte	W03
	.byte		v047
	.byte	W04
	.byte		v047
	.byte	W04
	.byte		v046
	.byte	W04
	.byte		v046
	.byte	W04
	.byte		v045
	.byte	W04
	.byte		v045
	.byte	W03
	.byte		v044
	.byte	W04
	.byte		v044
	.byte	W04
	.byte		v043
	.byte	W04
	.byte		v043
	.byte	W04
	.byte		v042
	.byte	W04
	.byte		v042
	.byte	W03
	.byte		v041
	.byte	W04
	.byte		v041
	.byte	W04
	.byte		v040
	.byte	W04
	.byte		v040
	.byte	W04
	.byte		v039
	.byte	W03
	.byte		v039
	.byte	W02
	.byte	GOTO	
		.word	song017_5_5
	.byte	FINE

	@********************** Track  6 **********************@

	.global song017_6
song017_6:	@ 0x08555CF0
	.byte	KEYSH	, 0
song017_6_1:
	.byte	VOICE	, 127
	.byte	VOL	, v050
	.byte	PAN	, c_v
	.byte		N44	, Dn2, v100
	.byte	W72
	.byte			Dn2, v096
	.byte	W24
	.byte	W24
	.byte			Dn2, v092
	.byte	W48
	.byte		N11	
	.byte	W12
	.byte		N11	
	.byte	W12
	.byte		N44	, Dn2, v088
	.byte	W72
	.byte		N44	
	.byte	W24
	.byte	W24
	.byte		N23	, Dn2, v080
	.byte	W24
	.byte			Dn2, v092
	.byte	W24
	.byte		N05	
	.byte	W06
	.byte			Dn2, v096
	.byte	W06
	.byte			Dn2, v092
	.byte	W06
	.byte			Dn2, v096
	.byte	W06
	.byte		N44	
	.byte	W72
	.byte			Dn2, v100
	.byte	W24
	.byte	W24
	.byte		N44	
	.byte	W48
	.byte		N23	
	.byte	W24
	.byte		N44	, Dn2, v092
	.byte	W84
	.byte		N11	, Dn2, v096
	.byte	W12
	.byte		N44	, Dn2, v100
	.byte	W72
	.byte		N05	, Dn2, v092
	.byte	W06
	.byte			Dn2, v096
	.byte	W06
	.byte			Dn2, v092
	.byte	W06
	.byte			Dn2, v096
	.byte	W06
	.byte			Fs1, v032
	.byte	W24
	.byte			Fs1, v036
	.byte	W24
	.byte		N06	, Fs1, v028
	.byte	W24
	.byte		N07	, Fs1, v032
	.byte	W24
	.byte		N06	, Fs1, v036
	.byte	W24
	.byte		N05	
	.byte	W24
	.byte			Fs1, v044
	.byte	W24
	.byte		N04	, Fs1, v036
	.byte	W12
	.byte		N10	, As1, v032
	.byte	W12
	.byte		N07	, Fs1, v044
	.byte	W24
	.byte		N06	, Fs1, v040
	.byte	W24
	.byte		N05	, Fs1, v044
	.byte	W24
	.byte		N05	
	.byte	W24
	.byte		N07	, Fs1, v040
	.byte	W24
	.byte		N06	, Fs1, v036
	.byte	W24
	.byte			Fs1, v040
	.byte	W24
	.byte		N04	, Fs1, v044
	.byte	W12
	.byte		N11	, As1, v028
	.byte	W12
	.byte		N07	, Fs1, v044
	.byte	W24
	.byte		N06	, Fs1, v048
	.byte	W24
	.byte		N08	, Fs1, v044
	.byte	W24
	.byte		N07	, Fs1, v036
	.byte	W24
	.byte		N08	, Fs1, v040
	.byte	W24
	.byte		N09	, Fs1, v024
	.byte	W24
	.byte		N06	, Fs1, v040
	.byte	W24
	.byte		N02	, Fs1, v044
	.byte	W06
	.byte		N06	, Fs1, v032
	.byte	W06
	.byte		N12	, As1, v024
	.byte	W12
	.byte		N06	, Fs1, v036
	.byte	W24
	.byte		N04	
	.byte	W24
	.byte		N06	, Fs1, v032
	.byte	W24
	.byte		N05	, Fs1, v036
	.byte	W24
	.byte		N05	
	.byte	W24
	.byte		N04	, Fs1, v040
	.byte	W24
	.byte		N05	
	.byte	W24
	.byte		N03	, Fs1, v036
	.byte	W12
	.byte			Fs1, v040
	.byte	W12
	.byte	W96
	.byte	W96
	.byte	W96
	.byte	W96
	.byte	W96
	.byte	W96
	.byte		N23	, Dn2, v060
	.byte	W24
	.byte		N23	
	.byte	W24
	.byte			Dn2, v068
	.byte	W24
	.byte		N23	
	.byte	W24
	.byte		N11	, Dn2, v064
	.byte	W12
	.byte			Dn2, v068
	.byte	W12
	.byte		N23	
	.byte	W24
	.byte			Dn2, v072
	.byte	W24
	.byte			Dn2, v064
	.byte	W24
	.byte		N23	
	.byte	W24
	.byte		N23	
	.byte	W24
	.byte		N11	
	.byte	W12
	.byte			Dn2, v068
	.byte	W12
	.byte		N11	
	.byte	W12
	.byte			Dn2, v072
	.byte	W12
	.byte		N23	
	.byte	W24
	.byte			Dn2, v064
	.byte	W24
	.byte			Dn2, v068
	.byte	W24
	.byte			Dn2, v064
	.byte	W24
	.byte		N23	
	.byte	W24
	.byte		N11	, Dn2, v068
	.byte	W12
	.byte		N11	
	.byte	W12
	.byte		N23	, Dn2, v072
	.byte	W24
	.byte			Dn2, v060
	.byte	W24
	.byte			Dn2, v068
	.byte	W24
	.byte			Dn2, v072
	.byte	W24
	.byte		N11	, Dn2, v068
	.byte	W12
	.byte			Dn2, v072
	.byte	W12
	.byte			Dn2, v068
	.byte	W12
	.byte			Dn2, v072
	.byte	W12
	.byte		N06	, Fs1, v044
	.byte	W24
	.byte			Fs1, v024
	.byte	W24
	.byte		N06	
	.byte	W24
	.byte			Fs1, v028
	.byte	W24
	.byte			Fs1, v044
	.byte	W24
	.byte			Fs1, v036
	.byte	W24
	.byte			Fs1, v028
	.byte	W24
	.byte		N06	
	.byte	W12
	.byte		N11	, As1, v032
	.byte	W12
	.byte		N06	, Fs1, v036
	.byte	W24
	.byte			Fs1, v028
	.byte	W24
	.byte			Fs1, v052
	.byte	W24
	.byte			Fs1, v036
	.byte	W24
	.byte			Fs1, v044
	.byte	W24
	.byte			Fs1, v040
	.byte	W24
	.byte			Fs1, v044
	.byte	W24
	.byte			Fs1, v040
	.byte	W24
	.byte		N06	
	.byte	W24
	.byte		N06	
	.byte	W24
	.byte			Fs1, v036
	.byte	W24
	.byte			Fs1, v040
	.byte	W12
	.byte		N06	
	.byte	W12
	.byte		N06	
	.byte	W24
	.byte			Fs1, v044
	.byte	W24
	.byte			Fs1, v036
	.byte	W24
	.byte			Fs1, v044
	.byte	W12
	.byte		N06	
	.byte	W12
	.byte		N06	
	.byte	W24
	.byte			Fs1, v040
	.byte	W24
	.byte		N06	
	.byte	W24
	.byte		N06	
	.byte	W12
	.byte		N06	
	.byte	W12
	.byte		N06	
	.byte	W24
	.byte		N06	
	.byte	W24
	.byte			Fs1, v036
	.byte	W24
	.byte			Fs1, v040
	.byte	W12
	.byte		N11	, As1, v036
	.byte	W12
	.byte		N06	, Fs1, v040
	.byte	W24
	.byte		N06	
	.byte	W24
	.byte			Fs1, v048
	.byte	W24
	.byte			Fs1, v036
	.byte	W12
	.byte			Fs1, v040
	.byte	W12
	.byte		N06	
	.byte	W24
	.byte			Fs1, v036
	.byte	W24
	.byte			Fs1, v040
	.byte	W24
	.byte			Fs1, v044
	.byte	W24
	.byte			Fs1, v028
	.byte	W24
	.byte			Fs1, v044
	.byte	W24
	.byte			Fs1, v032
	.byte	W24
	.byte			Fs1, v044
	.byte	W24
	.byte		N06	
	.byte	W24
	.byte		N06	
	.byte	W24
	.byte			Fs1, v040
	.byte	W24
	.byte			Fs1, v044
	.byte	W24
	.byte		N44	, Dn2, v080
	.byte	W84
	.byte		N11	, Dn2, v084
	.byte	W12
	.byte		N44	, Dn2, v080
	.byte	W96
	.byte			Dn2, v076
	.byte	W72
	.byte			Dn2, v080
	.byte	W24
	.byte	W24
	.byte		N44	
	.byte	W48
	.byte		N23	
	.byte	W24
	.byte	GOTO	
		.word	song017_6_1
	.byte	FINE

	.align 2
	.global song017
song017:	@ 0x08555ED8
	.byte	6		@ trackCount
	.byte	0		@ blockCount
	.byte	10		@ priority
	.byte	148		@ reverb

	.word	voicegroup046		@ voicegroup/tone

	.word	song017_1		@ track
	.word	song017_2		@ track
	.word	song017_3		@ track
	.word	song017_4		@ track
	.word	song017_5		@ track
	.word	song017_6		@ track
