	.include "MPlayDef.s"

	.section .rodata

	@********************** Track  1 **********************@

	.align 2
	.global song045_1
song045_1:	@ 0x08568B4C
	.byte	KEYSH	, 0
song045_1_1:
	.byte	TEMPO	, 36
	.byte	VOICE	, 48
	.byte	VOL	, v061
	.byte	PAN	, c_v
	.byte		N36	, Gn2, v096
	.byte	W36
	.byte		N12	, An2
	.byte	W12
	.byte			As2
	.byte	W12
	.byte			Gn2
	.byte	W12
	.byte		N68	, An2
	.byte	W72
	.byte		N48	, As2
	.byte	W48
	.byte		N12	, An2
	.byte	W12
	.byte			As2
	.byte	W12
	.byte		N42	, Cn3
	.byte	W48
	.byte		N24	, Cs3
	.byte	W24
	.byte	VOL	, v028
	.byte		N72	, Dn3
	.byte	W03
	.byte	VOL	, v029
	.byte	W03
	.byte		v029
	.byte	W02
	.byte		v030
	.byte	W02
	.byte		v030
	.byte	W02
	.byte		v031
	.byte	W02
	.byte		v031
	.byte	W02
	.byte		v032
	.byte	W02
	.byte		v032
	.byte	W03
	.byte		v033
	.byte	W02
	.byte		v033
	.byte	W02
	.byte		v034
	.byte	W01
	.byte		v034
	.byte	W02
	.byte		v035
	.byte	W01
	.byte		v035
	.byte	W02
	.byte		v036
	.byte	W01
	.byte		v036
	.byte	W02
	.byte		v036
	.byte	W01
	.byte		v037
	.byte	W01
	.byte		v037
	.byte	W02
	.byte		v038
	.byte	W01
	.byte		v038
	.byte	W01
	.byte		v039
	.byte	W02
	.byte		v039
	.byte	W01
	.byte		v040
	.byte	W01
	.byte		v040
	.byte	W01
	.byte		v041
	.byte	W01
	.byte		v041
	.byte	W01
	.byte		v042
	.byte	W01
	.byte		v042
	.byte	W01
	.byte		v043
	.byte	W01
	.byte		v043
	.byte	W01
	.byte		v044
	.byte	W01
	.byte		v045
	.byte	W01
	.byte		v045
	.byte	W01
	.byte		v046
	.byte	W01
	.byte		v046
	.byte	W01
	.byte		v047
	.byte	W01
	.byte		v048
	.byte	W01
	.byte		v048
	.byte	W01
	.byte		v049
	.byte	W01
	.byte		v050
	.byte	W01
	.byte		v051
	.byte	W02
	.byte		v051
	.byte	W01
	.byte		v052
	.byte	W01
	.byte		v053
	.byte	W01
	.byte		v054
	.byte	W01
	.byte		v055
	.byte	W01
	.byte		v056
	.byte	W01
	.byte		v057
	.byte	W01
	.byte		v059
	.byte	W01
	.byte		v060
	.byte	W01
	.byte		v061
	.byte		N72	, An2
	.byte	W01
	.byte	VOL	, v060
	.byte	W02
	.byte		v060
	.byte	W02
	.byte		v059
	.byte	W01
	.byte		v059
	.byte	W02
	.byte		v058
	.byte	W02
	.byte		v058
	.byte	W01
	.byte		v057
	.byte	W01
	.byte		v057
	.byte	W02
	.byte		v056
	.byte	W01
	.byte		v056
	.byte	W02
	.byte		v055
	.byte	W01
	.byte		v055
	.byte	W01
	.byte		v054
	.byte	W02
	.byte		v054
	.byte	W01
	.byte		v053
	.byte	W02
	.byte		v052
	.byte	W01
	.byte		v052
	.byte	W02
	.byte		v051
	.byte	W01
	.byte		v050
	.byte	W02
	.byte		v050
	.byte	W01
	.byte		v049
	.byte	W01
	.byte		v049
	.byte	W01
	.byte		v048
	.byte	W01
	.byte		v048
	.byte	W01
	.byte		v048
	.byte	W01
	.byte		v047
	.byte	W01
	.byte		v047
	.byte	W01
	.byte		v046
	.byte	W01
	.byte		v045
	.byte	W01
	.byte		v045
	.byte	W01
	.byte		v044
	.byte	W01
	.byte		v044
	.byte	W01
	.byte		v043
	.byte	W01
	.byte		v043
	.byte	W01
	.byte		v042
	.byte	W01
	.byte		v041
	.byte	W01
	.byte		v041
	.byte	W01
	.byte		v040
	.byte	W01
	.byte		v039
	.byte	W01
	.byte		v039
	.byte	W01
	.byte		v038
	.byte	W01
	.byte		v037
	.byte	W01
	.byte		v036
	.byte	W01
	.byte		v036
	.byte	W01
	.byte		v036
	.byte	W01
	.byte		v034
	.byte	W01
	.byte		v034
	.byte	W01
	.byte		v033
	.byte	W01
	.byte		v032
	.byte	W01
	.byte		v031
	.byte	W01
	.byte		v031
	.byte	W01
	.byte		v029
	.byte	W01
	.byte		v028
	.byte	W01
	.byte		v028
	.byte	W01
	.byte		v027
	.byte	W01
	.byte		v026
	.byte	W01
	.byte		v025
	.byte	W01
	.byte		v024
	.byte	W01
	.byte		v023
	.byte	W01
	.byte		v022
	.byte	W01
	.byte		v020
	.byte	W01
	.byte		N72	, Dn3
	.byte	W02
	.byte	VOL	, v021
	.byte	W02
	.byte		v021
	.byte	W02
	.byte		v022
	.byte	W03
	.byte		v022
	.byte	W01
	.byte		v023
	.byte	W03
	.byte		v023
	.byte	W02
	.byte		v024
	.byte	W01
	.byte		v024
	.byte	W02
	.byte		v024
	.byte	W02
	.byte		v025
	.byte	W01
	.byte		v025
	.byte	W02
	.byte		v026
	.byte	W01
	.byte		v026
	.byte	W02
	.byte		v027
	.byte	W01
	.byte		v027
	.byte	W01
	.byte		v028
	.byte	W02
	.byte		v028
	.byte	W01
	.byte		v029
	.byte	W01
	.byte		v029
	.byte	W01
	.byte		v030
	.byte	W02
	.byte		v030
	.byte	W01
	.byte		v031
	.byte	W01
	.byte		v032
	.byte	W02
	.byte		v032
	.byte	W01
	.byte		v033
	.byte	W01
	.byte		v033
	.byte	W01
	.byte		v034
	.byte	W01
	.byte		v035
	.byte	W01
	.byte		v035
	.byte	W01
	.byte		v036
	.byte	W01
	.byte		v036
	.byte	W01
	.byte		v036
	.byte	W01
	.byte		v037
	.byte	W01
	.byte		v038
	.byte	W01
	.byte		v038
	.byte	W01
	.byte		v039
	.byte	W01
	.byte		v040
	.byte	W01
	.byte		v040
	.byte	W01
	.byte		v042
	.byte	W01
	.byte		v042
	.byte	W01
	.byte		v043
	.byte	W01
	.byte		v044
	.byte	W01
	.byte		v044
	.byte	W01
	.byte		v045
	.byte	W01
	.byte		v047
	.byte	W01
	.byte		v048
	.byte	W01
	.byte		v048
	.byte	W01
	.byte		v049
	.byte	W01
	.byte		v050
	.byte	W01
	.byte		v051
	.byte	W01
	.byte		v053
	.byte	W01
	.byte		v054
	.byte	W01
	.byte		v055
	.byte	W01
	.byte		v057
	.byte	W01
	.byte		v058
	.byte	W01
	.byte		v060
	.byte	W01
	.byte		v061
	.byte		N72	, An2
	.byte	W03
	.byte	VOL	, v060
	.byte	W02
	.byte		v060
	.byte	W02
	.byte		v059
	.byte	W02
	.byte		v059
	.byte	W03
	.byte		v058
	.byte	W02
	.byte		v058
	.byte	W02
	.byte		v057
	.byte	W02
	.byte		v057
	.byte	W02
	.byte		v056
	.byte	W02
	.byte		v056
	.byte	W02
	.byte		v055
	.byte	W02
	.byte		v055
	.byte	W01
	.byte		v054
	.byte	W01
	.byte		v054
	.byte	W02
	.byte		v053
	.byte	W01
	.byte		v053
	.byte	W03
	.byte		v052
	.byte	W01
	.byte		v052
	.byte	W01
	.byte		v051
	.byte	W01
	.byte		v051
	.byte	W01
	.byte		v050
	.byte	W02
	.byte		v050
	.byte	W01
	.byte		v049
	.byte	W01
	.byte		v049
	.byte	W02
	.byte		v048
	.byte	W01
	.byte		v048
	.byte	W01
	.byte		v048
	.byte	W01
	.byte		v047
	.byte	W01
	.byte		v047
	.byte	W01
	.byte		v046
	.byte	W01
	.byte		v045
	.byte	W01
	.byte		v045
	.byte	W01
	.byte		v044
	.byte	W01
	.byte		v044
	.byte	W02
	.byte		v043
	.byte	W01
	.byte		v042
	.byte	W01
	.byte		v041
	.byte	W01
	.byte		v041
	.byte	W01
	.byte		v040
	.byte	W01
	.byte		v039
	.byte	W01
	.byte		v038
	.byte	W01
	.byte		v038
	.byte	W01
	.byte		v037
	.byte	W01
	.byte		v036
	.byte	W02
	.byte		v035
	.byte	W01
	.byte		v034
	.byte	W01
	.byte		v033
	.byte	W01
	.byte		v032
	.byte	W01
	.byte		v031
	.byte	W01
	.byte		v030
	.byte	W01
	.byte		v029
	.byte		N68	, Gn2, v084
	.byte	W09
	.byte	VOL	, v029
	.byte	W01
	.byte		v030
	.byte	W02
	.byte		v030
	.byte	W01
	.byte		v031
	.byte	W01
	.byte		v031
	.byte	W01
	.byte		v032
	.byte	W02
	.byte		v033
	.byte	W02
	.byte		v033
	.byte	W01
	.byte		v034
	.byte	W02
	.byte		v035
	.byte	W01
	.byte		v035
	.byte	W01
	.byte		v036
	.byte	W01
	.byte		v036
	.byte	W01
	.byte		v037
	.byte	W01
	.byte		v037
	.byte	W01
	.byte		v038
	.byte	W01
	.byte		v039
	.byte	W01
	.byte		v039
	.byte	W01
	.byte		v040
	.byte	W01
	.byte		v041
	.byte	W01
	.byte		v041
	.byte	W01
	.byte		v042
	.byte	W01
	.byte		v043
	.byte	W01
	.byte		v044
	.byte	W01
	.byte		v045
	.byte	W01
	.byte		v046
	.byte	W01
	.byte		v047
	.byte	W01
	.byte		v048
	.byte	W01
	.byte		v048
	.byte	W01
	.byte		v050
	.byte	W01
	.byte		v050
	.byte	W01
	.byte		v052
	.byte	W01
	.byte		v054
	.byte	W01
	.byte		v054
	.byte	W01
	.byte		v056
	.byte	W01
	.byte		v057
	.byte	W01
	.byte		v059
	.byte	W01
	.byte		v061
	.byte	W10
	.byte		v061
	.byte	W01
	.byte		v060
	.byte	W01
	.byte		v059
	.byte	W01
	.byte		v058
	.byte	W01
	.byte		v057
	.byte	W01
	.byte		v056
	.byte	W01
	.byte		v055
	.byte	W01
	.byte		v053
	.byte	W01
	.byte		v051
	.byte	W01
	.byte		v049
	.byte	W01
	.byte		v048
	.byte	W01
	.byte		v045
	.byte	W01
	.byte		v044
	.byte		N23	, Fn3
	.byte	W03
	.byte	VOL	, v044
	.byte	W02
	.byte		v045
	.byte	W01
	.byte		v045
	.byte	W02
	.byte		v046
	.byte	W02
	.byte		v046
	.byte	W01
	.byte		v047
	.byte	W02
	.byte		v047
	.byte	W02
	.byte		v048
	.byte	W02
	.byte		v048
	.byte	W01
	.byte		v048
	.byte	W02
	.byte		v049
	.byte	W02
	.byte		v049
	.byte	W01
	.byte		v050
	.byte	W01
	.byte		N23	, En3
	.byte	W01
	.byte	VOL	, v050
	.byte	W02
	.byte		v051
	.byte	W01
	.byte		v051
	.byte	W02
	.byte		v052
	.byte	W02
	.byte		v052
	.byte	W02
	.byte		v053
	.byte	W01
	.byte		v053
	.byte	W02
	.byte		v054
	.byte	W02
	.byte		v054
	.byte	W01
	.byte		v055
	.byte	W02
	.byte		v055
	.byte	W02
	.byte		v056
	.byte	W01
	.byte		v056
	.byte	W02
	.byte		v057
	.byte	W01
	.byte		N23	, Dn3
	.byte	W01
	.byte	VOL	, v057
	.byte	W02
	.byte		v058
	.byte	W01
	.byte		v058
	.byte	W02
	.byte		v059
	.byte	W02
	.byte		v059
	.byte	W01
	.byte		v060
	.byte	W02
	.byte		v061
	.byte	W13
	.byte		N32	, Cs3
	.byte	W48
	.byte		N11	
	.byte	W12
	.byte			Dn3
	.byte	W12
	.byte		N23	, En3
	.byte	W24
	.byte			Ds3
	.byte	W24
	.byte		N11	, Cs3
	.byte	W12
	.byte			Ds3
	.byte	W12
	.byte	VOL	, v040
	.byte		N56	, En3
	.byte	W04
	.byte	VOL	, v040
	.byte	W05
	.byte		v041
	.byte	W04
	.byte		v041
	.byte	W05
	.byte		v042
	.byte	W04
	.byte		v042
	.byte	W03
	.byte		v043
	.byte	W04
	.byte		v043
	.byte	W02
	.byte		v044
	.byte	W03
	.byte		v044
	.byte	W04
	.byte		v045
	.byte	W02
	.byte		v045
	.byte	W03
	.byte		v046
	.byte	W04
	.byte		v046
	.byte	W03
	.byte		v047
	.byte	W02
	.byte		v047
	.byte	W02
	.byte		v048
	.byte	W02
	.byte		v048
	.byte	W03
	.byte		v048
	.byte	W01
	.byte		N11	, Fs3
	.byte	W01
	.byte	VOL	, v049
	.byte	W02
	.byte		v049
	.byte	W02
	.byte		v050
	.byte	W03
	.byte		v050
	.byte	W02
	.byte		v051
	.byte	W02
	.byte		v052
	.byte		N68	, Gn3
	.byte	W03
	.byte	VOL	, v052
	.byte	W02
	.byte		v053
	.byte	W02
	.byte		v054
	.byte	W02
	.byte		v054
	.byte	W03
	.byte		v055
	.byte	W02
	.byte		v056
	.byte	W02
	.byte		v057
	.byte	W03
	.byte		v057
	.byte	W02
	.byte		v058
	.byte	W02
	.byte		v059
	.byte	W02
	.byte		v060
	.byte	W01
	.byte		v061
	.byte	W04
	.byte		v060
	.byte	W02
	.byte		v060
	.byte	W02
	.byte		v059
	.byte	W03
	.byte		v059
	.byte	W02
	.byte		v058
	.byte	W02
	.byte		v058
	.byte	W02
	.byte		v057
	.byte	W01
	.byte		v057
	.byte	W03
	.byte		v056
	.byte	W01
	.byte		v056
	.byte	W01
	.byte		v055
	.byte	W01
	.byte		v055
	.byte	W03
	.byte		v054
	.byte	W01
	.byte		v054
	.byte	W01
	.byte		v053
	.byte	W02
	.byte		v052
	.byte	W01
	.byte		v052
	.byte	W01
	.byte		v051
	.byte	W01
	.byte		v051
	.byte	W01
	.byte		v050
	.byte	W02
	.byte		v049
	.byte	W01
	.byte		v049
	.byte	W01
	.byte		v048
	.byte	W01
	.byte		v047
	.byte	W02
	.byte		v046
	.byte	W01
	.byte		v045
	.byte	W01
	.byte		v044
	.byte	W01
	.byte		v043
	.byte	W01
	.byte		v043
	.byte		TIE	, En3
	.byte	W07
	.byte	VOL	, v043
	.byte	W04
	.byte		v044
	.byte	W06
	.byte		v044
	.byte	W04
	.byte		v045
	.byte	W04
	.byte		v045
	.byte	W03
	.byte		v046
	.byte	W02
	.byte		v046
	.byte	W04
	.byte		v047
	.byte	W02
	.byte		v047
	.byte	W04
	.byte		v048
	.byte	W02
	.byte		v048
	.byte	W02
	.byte		v048
	.byte	W02
	.byte		v049
	.byte	W02
	.byte		v049
	.byte	W02
	.byte		v050
	.byte	W01
	.byte		v050
	.byte	W02
	.byte		v051
	.byte	W02
	.byte		v052
	.byte	W02
	.byte		v052
	.byte	W02
	.byte		v053
	.byte	W02
	.byte		v054
	.byte	W02
	.byte		v055
	.byte	W02
	.byte		v056
	.byte	W02
	.byte		v057
	.byte	W02
	.byte		v058
	.byte	W02
	.byte		v060
	.byte	W01
	.byte		v061
	.byte	W36
	.byte	W03
	.byte		v060
	.byte	W01
	.byte		v059
	.byte	W01
	.byte		v059
	.byte	W01
	.byte		v058
	.byte	W01
	.byte		v056
	.byte	W01
	.byte		v056
	.byte	W01
	.byte		v054
	.byte	W01
	.byte		v053
	.byte	W01
	.byte		v052
	.byte	W01
	.byte		v051
	.byte	W01
	.byte		v049
	.byte	W01
	.byte		v048
	.byte	W01
	.byte		v047
	.byte	W01
	.byte		v045
	.byte	W01
	.byte		v044
	.byte	W01
	.byte		v042
	.byte	W01
	.byte		v040
	.byte	W01
	.byte		v039
	.byte	W01
	.byte		v037
	.byte	W01
	.byte		v035
	.byte	W01
	.byte		v033
	.byte	W01
	.byte		v030
	.byte	W01
	.byte		v028
	.byte	W01
	.byte		v025
	.byte	W01
	.byte		v023
	.byte	W01
	.byte		v019
	.byte	W01
	.byte		v017
	.byte	W01
	.byte		v013
	.byte	W01
	.byte		v009
	.byte	W01
	.byte		v005
	.byte	W01
	.byte		v000
	.byte	W02
	.byte		EOT	
	.byte	W01
	.byte	W21
	.byte	VOL	, v061
	.byte	W03
	.byte		N21	, Cn3, v076
	.byte		N24	, Fs3, v100
	.byte	W24
	.byte		N21	, Bn2, v076
	.byte		N48	, Cs3, v100
	.byte	W24
	.byte		N21	, An2, v076
	.byte	W24
	.byte			Gs2
	.byte		N24	, Cn3, v100
	.byte	W24
	.byte		N21	, Fs2, v076
	.byte		N24	, Cs3, v100
	.byte	W24
	.byte	W24
	.byte		N68	, Cs3, v076
	.byte		N48	, En3, v100
	.byte	W48
	.byte		N24	, Fs3
	.byte	W24
	.byte		N44	, En3, v076
	.byte		N48	, Gn3, v100
	.byte	W48
	.byte	W72
	.byte	W72
	.byte	W72
	.byte	W72
	.byte	GOTO	
		.word	song045_1_1
	.byte	FINE

	@********************** Track  2 **********************@

	.global song045_2
song045_2:	@ 0x08568F4D
	.byte	KEYSH	, 0
song045_2_1:
	.byte	VOICE	, 51
	.byte	VOL	, v061
	.byte	PAN	, c_v
	.byte		TIE	, Gn0, v116
	.byte	W72
	.byte	W72
	.byte	W72
	.byte	W72
	.byte		EOT	
	.byte	W72
	.byte	W72
	.byte	W72
	.byte	W72
	.byte		TIE	
	.byte	W72
	.byte	W72
	.byte	W72
	.byte	W68
	.byte	W01
	.byte		EOT	
	.byte	W03
	.byte		TIE	
	.byte	W72
	.byte	W72
	.byte		EOT	
	.byte		TIE	, Gs0
	.byte	W72
	.byte	W66
	.byte		EOT	
	.byte	W06
	.byte	W24
	.byte		TIE	, An0
	.byte	W48
	.byte	W72
	.byte		EOT	
	.byte	W24
	.byte		TIE	, Gn0
	.byte	W48
	.byte	W72
	.byte		EOT	
	.byte		TIE	, Fs0
	.byte	W72
	.byte	W72
	.byte	W72
	.byte	W72
	.byte		EOT	
	.byte	GOTO	
		.word	song045_2_1
	.byte	FINE

	@********************** Track  3 **********************@

	.global song045_3
song045_3:	@ 0x08568F8C
	.byte	KEYSH	, 0
song045_3_3:
	.byte	VOICE	, 45
	.byte	VOL	, v048
	.byte	PAN	, c_v-53
	.byte		N12	, Gn4, v116
	.byte	W12
	.byte			Dn4
	.byte	W12
	.byte			As3
	.byte	W12
	.byte			Gn3
	.byte	W12
	.byte			Dn3
	.byte	W12
	.byte			As2
	.byte	W12
	.byte			Gn4
	.byte	W12
	.byte			Cs4
	.byte	W12
	.byte			As3
	.byte	W12
	.byte			Gn3
	.byte	W12
	.byte			Cs3
	.byte	W12
	.byte			As2
	.byte	W12
	.byte			Gn4
	.byte	W12
	.byte			En4
	.byte	W12
	.byte			Cs4
	.byte	W12
	.byte			As3
	.byte	W12
	.byte			Gn3
	.byte	W12
	.byte			En3
	.byte	W12
	.byte			Cn3
	.byte	W12
	.byte			As2
	.byte	W12
	.byte			Fs2
	.byte	W12
	.byte			As2
	.byte	W12
	.byte			Cs3
	.byte	W12
	.byte			En3
	.byte	W12
	.byte	VOICE	, 14
	.byte	VOL	, v061
	.byte	PAN	, c_v+20
	.byte	W24
	.byte		N24	, Dn3, v127
	.byte	W24
	.byte			An2, v116
	.byte	W24
song045_3_1:
	.byte		N24	, Dn3, v092
	.byte	W24
	.byte			An2, v072
	.byte	W24
	.byte			Dn3, v036
	.byte	W24
	.byte	PEND
	.byte	W24
	.byte			Dn3, v127
	.byte	W24
	.byte			An2, v116
	.byte	W24
	.byte	PATT	
		.word	song045_3_1
	.byte	W72
	.byte	W72
	.byte	W72
	.byte	W72
	.byte	W24
	.byte		N24	, Gn3, v116
	.byte	W24
	.byte			Cs3, v096
	.byte	W24
	.byte	W72
	.byte	W24
	.byte			Gs3, v116
	.byte	W24
	.byte			En3, v096
	.byte	W24
	.byte	W24
	.byte			Gs3, v076
	.byte	W24
	.byte			En3, v056
	.byte	W24
	.byte		N48	, An2, v116
	.byte	W72
	.byte	W72
	.byte			Gn2
	.byte	W72
	.byte	W72
	.byte	W24
	.byte		N24	, Fs3, v127
	.byte	W24
	.byte			Cs3, v116
	.byte	W24
song045_3_2:
	.byte		N24	, Fs3, v092
	.byte	W24
	.byte			Cs3, v072
	.byte	W24
	.byte			Fs3, v036
	.byte	W24
	.byte	PEND
	.byte			Cs3, v012
	.byte	W24
	.byte			Fs3, v127
	.byte	W24
	.byte			Cs3, v116
	.byte	W24
	.byte	PATT	
		.word	song045_3_2
	.byte	GOTO	
		.word	song045_3_3
	.byte	FINE

	@********************** Track  4 **********************@

	.global song045_4
song045_4:	@ 0x08569035
	.byte	KEYSH	, 0
song045_4_1:
	.byte	W72
	.byte	W72
	.byte	VOICE	, 47
	.byte	VOL	, v061
	.byte	PAN	, c_v
	.byte	W72
	.byte	W60
	.byte		N03	, Dn3, v120
	.byte	W03
	.byte			Dn3, v127
	.byte	W03
	.byte		N03	
	.byte	W03
	.byte		N03	
	.byte	W03
	.byte	W72
	.byte	W60
	.byte			An2, v120
	.byte	W03
	.byte			An2, v127
	.byte	W03
	.byte		N03	
	.byte	W03
	.byte		N03	
	.byte	W03
	.byte	W72
	.byte	VOICE	, 19
	.byte	VOL	, v056
	.byte	PAN	, c_v-14
	.byte	W72
	.byte		N92	, Dn2, v116
	.byte	W72
	.byte	W24
	.byte			Gn2, v100
	.byte	W48
	.byte	W48
	.byte		N23	, Fn2, v104
	.byte	W24
	.byte			En2, v108
	.byte	W24
	.byte			Ds2, v104
	.byte	W24
	.byte		N11	, Cs2, v112
	.byte	W12
	.byte			Ds2
	.byte	W12
	.byte		N44	, En2, v104
	.byte	W48
	.byte		N24	, Fs2
	.byte	W24
	.byte	W24
	.byte		N44	, Gn2
	.byte	W48
	.byte		N23	, Gs2
	.byte	W24
	.byte		N68	, En2
	.byte	W48
	.byte	W24
	.byte		N44	, Cn2
	.byte	W48
	.byte	VOICE	, 49
	.byte	VOL	, v061
	.byte	PAN	, c_v
	.byte	W24
	.byte		TIE	, Fs2, v088
	.byte	W48
	.byte		N66	, Cs2
	.byte	W66
	.byte		EOT	, Fs2
	.byte	W06
	.byte	W24
	.byte		N36	, Cs2
	.byte		N36	, Gn2
	.byte	W36
	.byte		N12	, Dn2
	.byte		N12	, An2
	.byte	W12
	.byte		N66	, En2
	.byte		N66	, As2
	.byte	W32
	.byte	W01
	.byte	VOL	, v061
	.byte	W02
	.byte		v060
	.byte	W01
	.byte		v060
	.byte	W01
	.byte		v059
	.byte	W01
	.byte		v058
	.byte	W01
	.byte		v058
	.byte	W01
	.byte		v057
	.byte	W01
	.byte		v056
	.byte	W01
	.byte		v056
	.byte	W01
	.byte		v055
	.byte	W01
	.byte		v055
	.byte	W01
	.byte		v054
	.byte	W01
	.byte		v053
	.byte	W01
	.byte		v053
	.byte	W01
	.byte		v052
	.byte	W01
	.byte		v051
	.byte	W01
	.byte		v051
	.byte	W01
	.byte		v050
	.byte	W01
	.byte		v050
	.byte	W01
	.byte		v049
	.byte	W01
	.byte		v048
	.byte	W01
	.byte		v048
	.byte	W01
	.byte		v048
	.byte	W01
	.byte		v047
	.byte	W01
	.byte		v046
	.byte	W01
	.byte		v046
	.byte	W01
	.byte		v045
	.byte	W01
	.byte		v044
	.byte	W01
	.byte		v044
	.byte	W01
	.byte		v043
	.byte	W01
	.byte		v043
	.byte	W01
	.byte		v042
	.byte	W01
	.byte		v041
	.byte	W01
	.byte		v041
	.byte	W01
	.byte		v040
	.byte	W01
	.byte		v039
	.byte	W01
	.byte		v039
	.byte	W01
	.byte		v038
	.byte	W01
	.byte		v038
	.byte		N72	, Fs2, v100
	.byte	W06
	.byte	VOL	, v038
	.byte	W03
	.byte		v039
	.byte	W03
	.byte		v039
	.byte	W03
	.byte		v040
	.byte	W03
	.byte		v040
	.byte	W03
	.byte		v041
	.byte	W03
	.byte		v041
	.byte	W03
	.byte		v042
	.byte	W03
	.byte		v042
	.byte	W03
	.byte		v043
	.byte	W03
	.byte		v043
	.byte	W03
	.byte		v044
	.byte	W03
	.byte		v044
	.byte	W03
	.byte		v045
	.byte	W03
	.byte		v045
	.byte	W03
	.byte		v046
	.byte	W03
	.byte		v046
	.byte	W03
	.byte		v047
	.byte	W03
	.byte		v047
	.byte	W03
	.byte		v048
	.byte	W03
	.byte		v048
	.byte	W03
	.byte		v048
	.byte	W03
	.byte		v049
	.byte		N72	, Cs2, v116
	.byte	W03
	.byte	VOL	, v049
	.byte	W03
	.byte		v050
	.byte	W03
	.byte		v050
	.byte	W03
	.byte		v051
	.byte	W03
	.byte		v051
	.byte	W03
	.byte		v052
	.byte	W03
	.byte		v052
	.byte	W03
	.byte		v053
	.byte	W03
	.byte		v053
	.byte	W03
	.byte		v054
	.byte	W03
	.byte		v054
	.byte	W03
	.byte		v055
	.byte	W03
	.byte		v055
	.byte	W03
	.byte		v056
	.byte	W03
	.byte		v056
	.byte	W04
	.byte		v057
	.byte	W03
	.byte		v057
	.byte	W03
	.byte		v058
	.byte	W03
	.byte		v058
	.byte	W03
	.byte		v059
	.byte	W03
	.byte		v059
	.byte	W03
	.byte		v060
	.byte	W03
	.byte		v060
	.byte	W01
	.byte		v061
	.byte	W01
	.byte		N72	, Dn2, v127
	.byte	W68
	.byte	W02
	.byte	VOL	, v061
	.byte	W02
	.byte		N72	, Gs1, v112
	.byte	W01
	.byte	VOL	, v060
	.byte	W01
	.byte		v060
	.byte	W01
	.byte		v059
	.byte	W02
	.byte		v059
	.byte	W01
	.byte		v058
	.byte	W01
	.byte		v058
	.byte	W02
	.byte		v057
	.byte	W01
	.byte		v057
	.byte	W01
	.byte		v056
	.byte	W01
	.byte		v056
	.byte	W02
	.byte		v055
	.byte	W01
	.byte		v055
	.byte	W01
	.byte		v054
	.byte	W01
	.byte		v054
	.byte	W02
	.byte		v053
	.byte	W01
	.byte		v053
	.byte	W01
	.byte		v052
	.byte	W02
	.byte		v052
	.byte	W01
	.byte		v051
	.byte	W01
	.byte		v051
	.byte	W01
	.byte		v050
	.byte	W02
	.byte		v050
	.byte	W01
	.byte		v049
	.byte	W01
	.byte		v049
	.byte	W01
	.byte		v048
	.byte	W02
	.byte		v048
	.byte	W01
	.byte		v048
	.byte	W01
	.byte		v047
	.byte	W02
	.byte		v047
	.byte	W01
	.byte		v046
	.byte	W01
	.byte		v046
	.byte	W01
	.byte		v045
	.byte	W02
	.byte		v045
	.byte	W01
	.byte		v044
	.byte	W01
	.byte		v044
	.byte	W01
	.byte		v043
	.byte	W02
	.byte		v043
	.byte	W01
	.byte		v042
	.byte	W01
	.byte		v042
	.byte	W02
	.byte		v041
	.byte	W01
	.byte		v041
	.byte	W01
	.byte		v040
	.byte	W01
	.byte		v040
	.byte	W02
	.byte		v039
	.byte	W01
	.byte		v039
	.byte	W01
	.byte		v038
	.byte	W02
	.byte		v038
	.byte	W01
	.byte		v037
	.byte	W01
	.byte		v037
	.byte	W01
	.byte		v036
	.byte	W02
	.byte		v036
	.byte	W01
	.byte		v036
	.byte	W01
	.byte		v035
	.byte	W01
	.byte		v035
	.byte	W02
	.byte		v034
	.byte	W01
	.byte		v034
	.byte	W01
	.byte	GOTO	
		.word	song045_4_1
	.byte	FINE

	@********************** Track  5 **********************@

	.global song045_5
song045_5:	@ 0x085691E8
	.byte	KEYSH	, 0
song045_5_2:
	.byte	VOICE	, 49
	.byte	VOL	, v061
	.byte	PAN	, c_v
	.byte		N66	, Gn1, v116
	.byte	W72
	.byte	VOL	, v043
	.byte		N48	, Cs2
	.byte	W04
	.byte	VOL	, v043
	.byte	W02
	.byte		v044
	.byte	W01
	.byte		v044
	.byte	W02
	.byte		v045
	.byte	W02
	.byte		v045
	.byte	W02
	.byte		v046
	.byte	W02
	.byte		v046
	.byte	W02
	.byte		v047
	.byte	W02
	.byte		v047
	.byte	W02
	.byte		v048
	.byte	W02
	.byte		v048
	.byte	W02
	.byte		v048
	.byte	W01
	.byte		v049
	.byte	W02
	.byte		v049
	.byte	W02
	.byte		v050
	.byte	W02
	.byte		v050
	.byte	W02
	.byte		v051
	.byte	W02
	.byte		v051
	.byte	W02
	.byte		v052
	.byte	W02
	.byte		v052
	.byte	W02
	.byte		v053
	.byte	W02
	.byte		v053
	.byte	W01
	.byte		v054
	.byte	W02
	.byte		v054
	.byte	W01
	.byte		N24	, Ds2
	.byte	W01
	.byte	VOL	, v055
	.byte	W02
	.byte		v055
	.byte	W02
	.byte		v056
	.byte	W02
	.byte		v056
	.byte	W02
	.byte		v057
	.byte	W02
	.byte		v057
	.byte	W02
	.byte		v058
	.byte	W02
	.byte		v058
	.byte	W01
	.byte		v059
	.byte	W02
	.byte		v059
	.byte	W02
	.byte		v060
	.byte	W02
	.byte		v061
	.byte	W02
	.byte		N44	, En2
	.byte	W48
	.byte		N21	, Fn2
	.byte	W24
	.byte		N44	, Fs2
	.byte	W48
	.byte		N12	, Gn2
	.byte	W12
	.byte			An2
	.byte	W12
	.byte	VOL	, v029
	.byte		N72	, Fs2
	.byte		N72	, As2
	.byte	W02
	.byte	VOL	, v029
	.byte	W02
	.byte		v030
	.byte	W02
	.byte		v030
	.byte	W01
	.byte		v031
	.byte	W02
	.byte		v031
	.byte	W02
	.byte		v032
	.byte	W01
	.byte		v032
	.byte	W03
	.byte		v033
	.byte	W01
	.byte		v033
	.byte	W02
	.byte		v034
	.byte	W01
	.byte		v034
	.byte	W02
	.byte		v035
	.byte	W01
	.byte		v035
	.byte	W01
	.byte		v036
	.byte	W02
	.byte		v036
	.byte	W01
	.byte		v036
	.byte	W01
	.byte		v037
	.byte	W02
	.byte		v037
	.byte	W02
	.byte		v038
	.byte	W01
	.byte		v038
	.byte	W01
	.byte		v039
	.byte	W01
	.byte		v039
	.byte	W01
	.byte		v040
	.byte	W01
	.byte		v040
	.byte	W01
	.byte		v041
	.byte	W01
	.byte		v041
	.byte	W02
	.byte		v042
	.byte	W01
	.byte		v042
	.byte	W02
	.byte		v043
	.byte	W01
	.byte		v044
	.byte	W01
	.byte		v044
	.byte	W01
	.byte		v045
	.byte	W01
	.byte		v045
	.byte	W01
	.byte		v046
	.byte	W01
	.byte		v046
	.byte	W01
	.byte		v047
	.byte	W01
	.byte		v047
	.byte	W01
	.byte		v048
	.byte	W01
	.byte		v048
	.byte	W01
	.byte		v049
	.byte	W01
	.byte		v049
	.byte	W01
	.byte		v050
	.byte	W02
	.byte		v051
	.byte	W01
	.byte		v051
	.byte	W01
	.byte		v052
	.byte	W01
	.byte		v053
	.byte	W01
	.byte		v053
	.byte	W01
	.byte		v054
	.byte	W01
	.byte		v055
	.byte	W01
	.byte		v056
	.byte	W01
	.byte		v057
	.byte	W01
	.byte		v057
	.byte	W01
	.byte		v058
	.byte	W01
	.byte		v059
	.byte	W01
	.byte		v060
	.byte	W01
	.byte		v061
	.byte	W01
	.byte		N68	, Cs2
	.byte		N68	, Fn2
	.byte	W01
	.byte	VOL	, v060
	.byte	W02
	.byte		v060
	.byte	W01
	.byte		v059
	.byte	W02
	.byte		v059
	.byte	W01
	.byte		v058
	.byte	W01
	.byte		v058
	.byte	W02
	.byte		v057
	.byte	W01
	.byte		v057
	.byte	W02
	.byte		v056
	.byte	W01
	.byte		v056
	.byte	W01
	.byte		v055
	.byte	W01
	.byte		v055
	.byte	W01
	.byte		v054
	.byte	W02
	.byte		v054
	.byte	W01
	.byte		v053
	.byte	W01
	.byte		v053
	.byte	W01
	.byte		v052
	.byte	W01
	.byte		v052
	.byte	W01
	.byte		v051
	.byte	W01
	.byte		v051
	.byte	W01
	.byte		v050
	.byte	W01
	.byte		v050
	.byte	W01
	.byte		v049
	.byte	W01
	.byte		v049
	.byte	W01
	.byte		v048
	.byte	W01
	.byte		v048
	.byte	W02
	.byte		v047
	.byte	W01
	.byte		v046
	.byte	W01
	.byte		v046
	.byte	W01
	.byte		v045
	.byte	W01
	.byte		v045
	.byte	W01
	.byte		v044
	.byte	W01
	.byte		v043
	.byte	W01
	.byte		v043
	.byte	W01
	.byte		v042
	.byte	W02
	.byte		v041
	.byte	W01
	.byte		v040
	.byte	W01
	.byte		v039
	.byte	W01
	.byte		v038
	.byte	W01
	.byte		v038
	.byte	W01
	.byte		v037
	.byte	W01
	.byte		v036
	.byte	W01
	.byte		v036
	.byte	W01
	.byte		v035
	.byte	W01
	.byte		v034
	.byte	W01
	.byte		v033
	.byte	W01
	.byte		v033
	.byte	W01
	.byte		v031
	.byte	W01
	.byte		v031
	.byte	W01
	.byte		v029
	.byte	W01
	.byte		v028
	.byte	W01
	.byte		v027
	.byte	W01
	.byte		v026
	.byte	W01
	.byte		v025
	.byte	W01
	.byte		v024
	.byte	W01
	.byte		v024
	.byte	W01
	.byte		v022
	.byte	W01
	.byte		v021
	.byte	W01
	.byte		v019
	.byte	W01
	.byte		v018
	.byte	W01
	.byte		v017
	.byte	W01
	.byte		v015
	.byte	W01
	.byte		v014
	.byte	W01
	.byte		v012
	.byte	W01
	.byte		v012
	.byte		N72	, Fs2
	.byte		N72	, As2
	.byte	W02
	.byte	VOL	, v012
	.byte	W01
	.byte		v013
	.byte	W01
	.byte		v013
	.byte	W02
	.byte		v014
	.byte	W01
	.byte		v014
	.byte	W02
	.byte		v015
	.byte	W01
	.byte		v015
	.byte	W01
	.byte		v016
	.byte	W02
	.byte		v016
	.byte	W01
	.byte		v017
	.byte	W01
	.byte		v017
	.byte	W01
	.byte		v018
	.byte	W02
	.byte		v019
	.byte	W02
	.byte		v019
	.byte	W01
	.byte		v020
	.byte	W01
	.byte		v020
	.byte	W01
	.byte		v021
	.byte	W01
	.byte		v021
	.byte	W01
	.byte		v022
	.byte	W01
	.byte		v022
	.byte	W02
	.byte		v023
	.byte	W01
	.byte		v024
	.byte	W01
	.byte		v024
	.byte	W01
	.byte		v024
	.byte	W01
	.byte		v025
	.byte	W01
	.byte		v025
	.byte	W01
	.byte		v026
	.byte	W01
	.byte		v027
	.byte	W01
	.byte		v027
	.byte	W01
	.byte		v028
	.byte	W01
	.byte		v028
	.byte	W01
	.byte		v029
	.byte	W01
	.byte		v030
	.byte	W01
	.byte		v030
	.byte	W01
	.byte		v031
	.byte	W01
	.byte		v032
	.byte	W01
	.byte		v033
	.byte	W01
	.byte		v033
	.byte	W01
	.byte		v034
	.byte	W01
	.byte		v035
	.byte	W01
	.byte		v035
	.byte	W01
	.byte		v036
	.byte	W01
	.byte		v036
	.byte	W01
	.byte		v038
	.byte	W01
	.byte		v038
	.byte	W01
	.byte		v040
	.byte	W01
	.byte		v040
	.byte	W01
	.byte		v041
	.byte	W01
	.byte		v042
	.byte	W01
	.byte		v043
	.byte	W01
	.byte		v044
	.byte	W01
	.byte		v045
	.byte	W01
	.byte		v047
	.byte	W01
	.byte		v047
	.byte	W01
	.byte		v048
	.byte	W01
	.byte		v049
	.byte	W01
	.byte		v050
	.byte	W01
	.byte		v052
	.byte	W01
	.byte		v053
	.byte	W01
	.byte		v055
	.byte	W01
	.byte		v056
	.byte	W01
	.byte		v057
	.byte	W01
	.byte		v059
	.byte	W01
	.byte		v060
	.byte	W01
	.byte		v061
	.byte		N68	, Cs2
	.byte		N68	, Fn2
	.byte	W03
	.byte	VOL	, v060
	.byte	W03
	.byte		v060
	.byte	W02
	.byte		v059
	.byte	W02
	.byte		v059
	.byte	W02
	.byte		v058
	.byte	W02
	.byte		v058
	.byte	W02
	.byte		v057
	.byte	W02
	.byte		v057
	.byte	W03
	.byte		v056
	.byte	W02
	.byte		v056
	.byte	W02
	.byte		v055
	.byte	W01
	.byte		v055
	.byte	W02
	.byte		v054
	.byte	W01
	.byte		v054
	.byte	W02
	.byte		v053
	.byte	W01
	.byte		v053
	.byte	W02
	.byte		v052
	.byte	W01
	.byte		v052
	.byte	W01
	.byte		v051
	.byte	W02
	.byte		v051
	.byte	W01
	.byte		v050
	.byte	W01
	.byte		v050
	.byte	W02
	.byte		v049
	.byte	W01
	.byte		v049
	.byte	W01
	.byte		v048
	.byte	W01
	.byte		v048
	.byte	W01
	.byte		v048
	.byte	W01
	.byte		v047
	.byte	W01
	.byte		v047
	.byte	W01
	.byte		v046
	.byte	W01
	.byte		v046
	.byte	W01
	.byte		v045
	.byte	W01
	.byte		v044
	.byte	W01
	.byte		v044
	.byte	W01
	.byte		v043
	.byte	W01
	.byte		v043
	.byte	W01
	.byte		v042
	.byte	W01
	.byte		v041
	.byte	W01
	.byte		v040
	.byte	W01
	.byte		v040
	.byte	W01
	.byte		v039
	.byte	W01
	.byte		v038
	.byte	W02
	.byte		v037
	.byte	W01
	.byte		v036
	.byte	W01
	.byte		v036
	.byte	W01
	.byte		v035
	.byte	W01
	.byte		v034
	.byte	W01
	.byte		v033
	.byte	W01
	.byte		v032
	.byte	W01
	.byte		v030
	.byte	W01
	.byte		v029
	.byte	W01
	.byte	W72
	.byte	W72
	.byte	W72
	.byte	W72
	.byte	W72
	.byte	W72
	.byte	VOICE	, 47
	.byte	VOL	, v061
	.byte	PAN	, c_v
	.byte	W72
	.byte	W48
	.byte		N03	, An2, v108
	.byte	W03
	.byte			An2, v088
	.byte	W03
	.byte			An2, v104
	.byte	W03
	.byte			An2, v116
	.byte	W03
	.byte			An2, v104
	.byte	W03
	.byte			An2, v116
	.byte	W03
	.byte			An2, v127
	.byte	W03
	.byte		N03	
	.byte	W03
	.byte		N24	
	.byte	W72
	.byte	W48
	.byte		N03	, Gn2, v108
	.byte	W03
	.byte			Gn2, v088
	.byte	W03
	.byte			Gn2, v104
	.byte	W03
	.byte			Gn2, v116
	.byte	W03
	.byte			Gn2, v104
	.byte	W03
	.byte			Gn2, v116
	.byte	W03
	.byte			Gn2, v127
	.byte	W03
	.byte		N03	
	.byte	W03
	.byte		N24	
	.byte	W72
	.byte	W72
song045_5_1:
	.byte		N12	, Fs2, v127
	.byte	W12
	.byte		N21	
	.byte	W60
	.byte	PEND
	.byte	W36
	.byte		N12	
	.byte	W12
	.byte		N24	
	.byte	W24
	.byte	PATT	
		.word	song045_5_1
	.byte	W24
	.byte		N24	, Fs2, v127
	.byte	W24
	.byte		N06	, Fs2, v112
	.byte	W06
	.byte			Fs2, v127
	.byte	W06
	.byte		N06	
	.byte	W06
	.byte		N06	
	.byte	W06
	.byte	GOTO	
		.word	song045_5_2
	.byte	FINE

	@********************** Track  6 **********************@

	.global song045_6
song045_6:	@ 0x085694B1
	.byte	KEYSH	, 0
song045_6_1:
	.byte	W72
	.byte	W72
	.byte	W72
	.byte	W72
	.byte	W72
	.byte	VOICE	, 19
	.byte	VOL	, v061
	.byte	PAN	, c_v
	.byte	W72
	.byte		N72	, Dn3, v116
	.byte	W72
	.byte		N42	, An2
	.byte	W48
	.byte		N24	, Fn2
	.byte	W24
	.byte		N36	, Gn2, v127
	.byte	W36
	.byte		N12	, An2, v116
	.byte	W12
	.byte			As2, v127
	.byte	W12
	.byte			Gn2, v108
	.byte	W12
	.byte		N68	, An2, v127
	.byte	W72
	.byte		N36	, As2, v124
	.byte	W36
	.byte		N12	, Cn3
	.byte	W12
	.byte			Cs3
	.byte	W12
	.byte			As2
	.byte	W12
	.byte		N60	, Cn3, v112
	.byte	W72
	.byte		N36	, As2, v116
	.byte	W36
	.byte		N12	, Cn3
	.byte	W12
	.byte			Cs3
	.byte	W12
	.byte			Dn3, v108
	.byte	W12
	.byte		N24	, Cs3, v112
	.byte	W24
	.byte			En3, v096
	.byte	W24
	.byte			An3, v084
	.byte	W24
	.byte		N72	, Gs3, v076
	.byte	W72
	.byte		N24	, Gn3, v088
	.byte	W24
	.byte			Fs3, v084
	.byte	W24
	.byte			Gn3, v068
	.byte	W24
	.byte	W24
	.byte		N60	, Fs2, v108
	.byte	W48
	.byte	W24
	.byte		N18	, Cn2
	.byte	W24
	.byte			Cs2
	.byte	W24
	.byte	W24
	.byte		N66	, En2
	.byte	W48
	.byte	W24
	.byte		N18	, Fs2
	.byte	W24
	.byte			Gn2
	.byte	W24
	.byte		TIE	, Cs2, v104
	.byte		TIE	, Fs2, v092
	.byte	W72
	.byte	W68
	.byte	W01
	.byte		EOT	, Cs2
	.byte			Fs2
	.byte	W03
	.byte		TIE	, Dn2, v104
	.byte		TIE	, Fs2, v092
	.byte	W72
	.byte	W68
	.byte	W01
	.byte		EOT	, Dn2
	.byte			Fs2
	.byte	W03
	.byte	GOTO	
		.word	song045_6_1
	.byte	FINE

	@********************** Track  7 **********************@

	.global song045_7
song045_7:	@ 0x08569543
	.byte	KEYSH	, 0
song045_7_2:
	.byte	W04
	.byte	VOICE	, 45
	.byte	VOL	, v033
	.byte	PAN	, c_v+50
	.byte		N12	, Gn4, v116
	.byte	W12
	.byte			Dn4
	.byte	W12
	.byte			As3
	.byte	W12
	.byte			Gn3
	.byte	W12
	.byte			Dn3
	.byte	W12
	.byte			As2
	.byte	W08
	.byte	W04
	.byte			Gn4
	.byte	W12
	.byte			Cs4
	.byte	W12
	.byte			As3
	.byte	W12
	.byte			Gn3
	.byte	W12
	.byte			Cs3
	.byte	W12
	.byte			As2
	.byte	W08
	.byte	W04
	.byte			Gn4
	.byte	W12
	.byte			En4
	.byte	W12
	.byte			Cs4
	.byte	W12
	.byte			As3
	.byte	W12
	.byte			Gn3
	.byte	W12
	.byte			En3
	.byte	W08
	.byte	W04
	.byte			Cn3
	.byte	W12
	.byte			As2
	.byte	W12
	.byte			Fs2
	.byte	W12
	.byte			As2
	.byte	W12
	.byte			Cs3
	.byte	W12
	.byte		N08	, En3
	.byte	W08
	.byte	W72
	.byte	W72
	.byte	W72
	.byte	W48
	.byte	VOICE	, 12
	.byte	W06
	.byte	VOL	, v061
	.byte	W06
	.byte	PAN	, c_v-29
	.byte	W12
	.byte		N05	, Gn2, v060
	.byte	W06
	.byte			Gn2, v036
	.byte	W06
	.byte			Dn3, v068
	.byte	W06
	.byte			Dn3, v036
	.byte	W06
	.byte			Gn3, v076
	.byte	W06
	.byte			Gn3, v036
	.byte	W06
	.byte			Dn3, v080
	.byte	W06
	.byte			Dn3, v036
	.byte	W06
	.byte			Gn2, v088
	.byte	W06
	.byte			Gn2, v036
	.byte	W06
	.byte			Dn3, v096
	.byte	W06
	.byte			Dn3, v036
	.byte	W06
song045_7_1:
	.byte		N05	, Gn3, v104
	.byte	W06
	.byte			Gn3, v036
	.byte	W06
	.byte			Cs3, v112
	.byte	W06
	.byte			Cs3, v036
	.byte	W06
	.byte			Gn2, v116
	.byte	W06
	.byte			Gn2, v036
	.byte	W06
	.byte			Cs3, v124
	.byte	W06
	.byte			Cs3, v036
	.byte	W06
	.byte			Gn3, v127
	.byte	W06
	.byte			Gn3, v036
	.byte	W06
	.byte			Cs3, v127
	.byte	W06
	.byte			Cs3, v036
	.byte	W06
	.byte	PEND
	.byte			Gn2, v127
	.byte	W06
	.byte			Gn2, v036
	.byte	W06
	.byte			Dn3, v127
	.byte	W06
	.byte			Dn3, v036
	.byte	W06
	.byte			Gn3, v127
	.byte	W06
	.byte			Gn3, v036
	.byte	W06
	.byte			Dn3, v127
	.byte	W06
	.byte			Dn3, v036
	.byte	W06
	.byte			Gn2, v124
	.byte	W06
	.byte			Gn2, v036
	.byte	W06
	.byte			Dn3, v120
	.byte	W06
	.byte			Dn3, v036
	.byte	W06
	.byte			Gn3, v112
	.byte	W06
	.byte			Gn3, v036
	.byte	W06
	.byte			Cn3, v108
	.byte	W06
	.byte			Cn3, v036
	.byte	W06
	.byte			Gn2, v100
	.byte	W06
	.byte			Gn2, v036
	.byte	W06
	.byte			Cn3, v096
	.byte	W06
	.byte			Cn3, v036
	.byte	W06
	.byte			Gn3, v088
	.byte	W06
	.byte			Gn3, v036
	.byte	W06
	.byte			Cn3, v084
	.byte	W06
	.byte			Cn3, v036
	.byte	W06
	.byte			Gn2, v060
	.byte	W06
	.byte			Gn2, v036
	.byte	W06
	.byte			Cs3, v068
	.byte	W06
	.byte			Cs3, v036
	.byte	W06
	.byte			Gn3, v076
	.byte	W06
	.byte			Gn3, v036
	.byte	W06
	.byte			Cs3, v080
	.byte	W06
	.byte			Cs3, v036
	.byte	W06
	.byte			Gn2, v088
	.byte	W06
	.byte			Gn2, v036
	.byte	W06
	.byte			Cs3, v096
	.byte	W06
	.byte			Cs3, v036
	.byte	W06
	.byte	PATT	
		.word	song045_7_1
	.byte		N05	, Gs2, v127
	.byte	W06
	.byte			Gs2, v036
	.byte	W06
	.byte			En3, v127
	.byte	W06
	.byte			En3, v036
	.byte	W06
	.byte			Gs3, v127
	.byte	W06
	.byte			Gs3, v036
	.byte	W06
	.byte			En3, v127
	.byte	W06
	.byte			En3, v036
	.byte	W06
	.byte			Gs2, v124
	.byte	W06
	.byte			Gs2, v036
	.byte	W06
	.byte			En3, v120
	.byte	W06
	.byte			En3, v036
	.byte	W06
	.byte			Gs3, v112
	.byte	W06
	.byte			Gs3, v036
	.byte	W06
	.byte			En3, v108
	.byte	W06
	.byte			En3, v036
	.byte	W06
	.byte			Gs2, v100
	.byte	W06
	.byte			Gs2, v036
	.byte	W06
	.byte			Dn3, v096
	.byte	W06
	.byte			Dn3, v036
	.byte	W06
	.byte			Gs3, v088
	.byte	W06
	.byte			Gs3, v036
	.byte	W06
	.byte			Dn3, v084
	.byte	W06
	.byte			Dn3, v036
	.byte	W06
	.byte	W72
	.byte	W72
	.byte	W72
	.byte	W72
	.byte	W72
	.byte	W72
	.byte	W72
	.byte	W72
	.byte	GOTO	
		.word	song045_7_2
	.byte	FINE

	.align 2
	.global song045
song045:	@ 0x085696A4
	.byte	7		@ trackCount
	.byte	0		@ blockCount
	.byte	10		@ priority
	.byte	148		@ reverb

	.word	voicegroup014		@ voicegroup/tone

	.word	song045_1		@ track
	.word	song045_2		@ track
	.word	song045_3		@ track
	.word	song045_4		@ track
	.word	song045_5		@ track
	.word	song045_6		@ track
	.word	song045_7		@ track
