	.include "MPlayDef.s"

	.section .rodata

	@********************** Track  1 **********************@

	.align 2
	.global song981_1
song981_1:	@ 0x08586EA8
	.byte	KEYSH	, 0
	.byte	TEMPO	, 75
	.byte	VOICE	, 41
	.byte	VOL	, v070
	.byte	BEND	, c_v-64
	.byte		N06	, Fs3, v127
	.byte	W06
	.byte		N06	
	.byte	W06
	.byte		TIE	
	.byte	W05
	.byte	VOL	, v070
	.byte	W01
	.byte		v066
	.byte	W01
	.byte		v062
	.byte	W01
	.byte		v060
	.byte	W01
	.byte		v056
	.byte	W01
	.byte		v052
	.byte	W01
	.byte		v050
	.byte	W01
	.byte		v046
	.byte	W01
	.byte		v042
	.byte	W01
	.byte		v040
	.byte	W01
	.byte		v036
	.byte	W01
	.byte		v033
	.byte	W01
	.byte		v030
	.byte	W01
	.byte		v027
	.byte	W01
	.byte		v025
	.byte	W01
	.byte		v028
	.byte	W01
	.byte		v033
	.byte	W01
	.byte		v037
	.byte	W01
	.byte		v040
	.byte	W01
	.byte		v044
	.byte	W01
	.byte		v049
	.byte	W01
	.byte		v051
	.byte	W01
	.byte		v056
	.byte	W01
	.byte		v060
	.byte	W01
	.byte		v063
	.byte	W01
	.byte		v067
	.byte	W01
	.byte		v068
	.byte	W01
	.byte		v066
	.byte	W01
	.byte		v062
	.byte	W01
	.byte		v059
	.byte	W01
	.byte		v057
	.byte	W01
	.byte		v054
	.byte	W01
	.byte		v050
	.byte	W01
	.byte		v048
	.byte	W01
	.byte		v045
	.byte	W01
	.byte		v041
	.byte	W01
	.byte		v039
	.byte	W01
	.byte		v036
	.byte	W01
	.byte		v033
	.byte	W01
	.byte		v030
	.byte	W01
	.byte		v027
	.byte	W01
	.byte		v025
	.byte	W01
	.byte		v028
	.byte	W01
	.byte		v030
	.byte	W01
	.byte		v033
	.byte	W01
	.byte		v035
	.byte	W01
	.byte		v038
	.byte	W01
	.byte		v041
	.byte	W01
	.byte		v043
	.byte	W01
	.byte		v046
	.byte	W01
	.byte		v049
	.byte	W01
	.byte		v051
	.byte	W01
	.byte		v054
	.byte	W01
	.byte		v057
	.byte	W01
	.byte		v059
	.byte	W01
	.byte		v062
	.byte	W01
	.byte		v065
	.byte	W01
	.byte		v067
	.byte	W01
	.byte		v068
	.byte	W01
	.byte		v066
	.byte	W01
	.byte		v063
	.byte	W01
	.byte		v060
	.byte	W01
	.byte		v057
	.byte	W01
	.byte		v054
	.byte	W01
	.byte		v050
	.byte	W01
	.byte		v048
	.byte	W01
	.byte		v044
	.byte	W01
	.byte		v041
	.byte	W01
	.byte		v039
	.byte	W01
	.byte		v035
	.byte	W01
	.byte		v031
	.byte	W01
	.byte		v029
	.byte	W01
	.byte		v026
	.byte	W01
	.byte		v024
	.byte	W01
	.byte		v026
	.byte	W01
	.byte		v029
	.byte	W01
	.byte		v031
	.byte	W01
	.byte		v033
	.byte	W01
	.byte		v036
	.byte	W01
	.byte		v039
	.byte	W01
	.byte		v040
	.byte	W01
	.byte		v043
	.byte	W01
	.byte		v046
	.byte	W01
	.byte		v048
	.byte	W01
	.byte		v051
	.byte	W01
	.byte		v054
	.byte	W01
	.byte		v055
	.byte	W01
	.byte		v058
	.byte	W01
	.byte		v061
	.byte	W01
	.byte		v062
	.byte	W01
	.byte		v065
	.byte	W01
	.byte		v068
	.byte	W01
	.byte		v069
	.byte	W01
	.byte		v068
	.byte	W01
	.byte		v066
	.byte	W01
	.byte		v065
	.byte	W01
	.byte		v063
	.byte	W01
	.byte		v062
	.byte	W01
	.byte		v060
	.byte	W01
	.byte		v059
	.byte	W01
	.byte		v057
	.byte	W01
	.byte		v056
	.byte	W01
	.byte		v054
	.byte	W01
	.byte		v052
	.byte	W01
	.byte		v051
	.byte	W01
	.byte		v050
	.byte	W01
	.byte		v048
	.byte	W01
	.byte		v046
	.byte	W01
	.byte		v045
	.byte	W01
	.byte		v044
	.byte	W01
	.byte		v042
	.byte	W01
	.byte		v041
	.byte	W01
	.byte		v039
	.byte	W01
	.byte		v037
	.byte	W01
	.byte		v036
	.byte	W01
	.byte		v034
	.byte	W01
	.byte		v033
	.byte	W01
	.byte		v031
	.byte	W01
	.byte		v030
	.byte	W01
	.byte		v028
	.byte	W01
	.byte		v027
	.byte	W01
	.byte		v025
	.byte	W01
	.byte		v023
	.byte	W01
	.byte		v022
	.byte	W01
	.byte		v020
	.byte	W01
	.byte		v019
	.byte	W01
	.byte		v018
	.byte	W01
	.byte		v016
	.byte	W01
	.byte		v014
	.byte	W01
	.byte		v013
	.byte	W01
	.byte		v012
	.byte	W01
	.byte		v010
	.byte	W01
	.byte		v008
	.byte	W01
	.byte		v007
	.byte	W01
	.byte		v005
	.byte	W01
	.byte		v004
	.byte	W01
	.byte		v002
	.byte	W01
	.byte		v001
	.byte	W01
	.byte		v000
	.byte	W19
	.byte	BEND	, c_v-63
	.byte	W01
	.byte	VOL	, v000
	.byte	BEND	, c_v-58
	.byte	W01
	.byte	VOL	, v003
	.byte	W01
	.byte		v006
	.byte	BEND	, c_v-53
	.byte	W01
	.byte	VOL	, v010
	.byte	BEND	, c_v-48
	.byte	W01
	.byte	VOL	, v014
	.byte	W01
	.byte		v017
	.byte	BEND	, c_v-43
	.byte	W01
	.byte	VOL	, v020
	.byte	BEND	, c_v-38
	.byte	W01
	.byte	VOL	, v024
	.byte	W01
	.byte		v027
	.byte	BEND	, c_v-33
	.byte	W01
	.byte	VOL	, v031
	.byte	BEND	, c_v-28
	.byte	W01
	.byte	VOL	, v035
	.byte	W01
	.byte		v038
	.byte	BEND	, c_v-23
	.byte	W01
	.byte	VOL	, v041
	.byte	BEND	, c_v-18
	.byte	W01
	.byte	VOL	, v046
	.byte	W01
	.byte		v048
	.byte	BEND	, c_v-13
	.byte	W01
	.byte	VOL	, v052
	.byte	BEND	, c_v-8
	.byte	W01
	.byte	VOL	, v056
	.byte	W01
	.byte		v059
	.byte	BEND	, c_v-3
	.byte	W01
	.byte	VOL	, v063
	.byte	BEND	, c_v+2
	.byte	W01
	.byte	VOL	, v067
	.byte	W01
	.byte		v070
	.byte	BEND	, c_v+7
	.byte	W01
	.byte	VOL	, v069
	.byte	BEND	, c_v+12
	.byte	W01
	.byte	VOL	, v068
	.byte	W01
	.byte		v067
	.byte	BEND	, c_v+17
	.byte	W01
	.byte	VOL	, v066
	.byte	BEND	, c_v+22
	.byte	W01
	.byte	VOL	, v065
	.byte	W01
	.byte		v063
	.byte	BEND	, c_v+27
	.byte	W01
	.byte	VOL	, v062
	.byte	BEND	, c_v+32
	.byte	W01
	.byte	VOL	, v062
	.byte	W01
	.byte		v061
	.byte	BEND	, c_v+37
	.byte	W01
	.byte	VOL	, v060
	.byte	BEND	, c_v+42
	.byte	W01
	.byte	VOL	, v058
	.byte	W01
	.byte		v057
	.byte	BEND	, c_v+47
	.byte	W01
	.byte	VOL	, v056
	.byte	BEND	, c_v+52
	.byte	W01
	.byte	VOL	, v055
	.byte	W01
	.byte		v054
	.byte	BEND	, c_v+57
	.byte	W01
	.byte	VOL	, v053
	.byte	BEND	, c_v+63
	.byte	W01
	.byte	VOL	, v052
	.byte	W01
	.byte		v051
	.byte	W01
	.byte		v050
	.byte	W01
	.byte		v049
	.byte	W01
	.byte		v048
	.byte	W01
	.byte		v047
	.byte	W01
	.byte		v046
	.byte	W01
	.byte		v045
	.byte	W01
	.byte		v044
	.byte	W01
	.byte		v042
	.byte	W01
	.byte		v041
	.byte	W01
	.byte		v040
	.byte	W01
	.byte		v040
	.byte	W01
	.byte		v039
	.byte	W01
	.byte		v038
	.byte	W01
	.byte		v036
	.byte	W01
	.byte		v035
	.byte	W01
	.byte		v034
	.byte	W01
	.byte		v033
	.byte	W01
	.byte		v032
	.byte	W01
	.byte		v031
	.byte	W01
	.byte		v030
	.byte	W01
	.byte		v029
	.byte	W01
	.byte		v028
	.byte	W01
	.byte		v027
	.byte	W01
	.byte		v026
	.byte	W01
	.byte		v025
	.byte	W01
	.byte		v024
	.byte	W01
	.byte		v023
	.byte	W01
	.byte		v022
	.byte	W01
	.byte		v020
	.byte	W01
	.byte		v019
	.byte	W01
	.byte		v018
	.byte	W01
	.byte		v018
	.byte	W01
	.byte		v017
	.byte	W01
	.byte		v015
	.byte	W01
	.byte		v014
	.byte	W01
	.byte		v013
	.byte	W01
	.byte		v012
	.byte	W01
	.byte		v011
	.byte	W01
	.byte		v010
	.byte	W01
	.byte		v009
	.byte	W01
	.byte		v008
	.byte	W01
	.byte		v007
	.byte	W01
	.byte		v006
	.byte	W01
	.byte		v005
	.byte	W01
	.byte		v004
	.byte	W01
	.byte		v003
	.byte	W01
	.byte		v002
	.byte	W01
	.byte		v000
	.byte	W03
	.byte		EOT	
	.byte	FINE

	@********************** Track  2 **********************@

	.global song981_2
song981_2:	@ 0x085870D0
	.byte	KEYSH	, 0
	.byte	VOICE	, 81
	.byte	PAN	, c_v
	.byte	VOL	, v070
	.byte	BEND	, c_v
	.byte	W24
	.byte		N06	, Ds4, v127
	.byte	W06
	.byte			Ds4, v064
	.byte	W06
	.byte			Ds4, v127
	.byte	W06
	.byte			Ds4, v064
	.byte	W06
	.byte			Ds4, v127
	.byte	W06
	.byte			Ds4, v064
	.byte	W06
	.byte			Ds4, v127
	.byte	W06
	.byte			Ds4, v076
	.byte	W06
	.byte			Ds4, v052
	.byte	W06
	.byte			Ds4, v036
	.byte	W06
	.byte			Ds4, v028
	.byte	W06
	.byte			Ds4, v004
	.byte	W06
	.byte	W68
	.byte	W03
	.byte	BEND	, c_v
	.byte	W01
	.byte		N96	, Gn3, v112
	.byte	W02
	.byte	BEND	, c_v+2
	.byte	W03
	.byte		c_v+4
	.byte	W03
	.byte		c_v+6
	.byte	W03
	.byte		c_v+9
	.byte	W03
	.byte		c_v+11
	.byte	W03
	.byte		c_v+13
	.byte	W03
	.byte		c_v+15
	.byte	W03
	.byte		c_v+18
	.byte	W01
	.byte	W02
	.byte		c_v+20
	.byte	W03
	.byte		c_v+22
	.byte	W03
	.byte		c_v+25
	.byte	W03
	.byte	VOL	, v070
	.byte	BEND	, c_v+27
	.byte	W01
	.byte	VOL	, v068
	.byte	W01
	.byte		v067
	.byte	W01
	.byte		v066
	.byte	BEND	, c_v+29
	.byte	W01
	.byte	VOL	, v065
	.byte	W01
	.byte		v063
	.byte	W01
	.byte		v062
	.byte	BEND	, c_v+31
	.byte	W01
	.byte	VOL	, v061
	.byte	W01
	.byte		v060
	.byte	W01
	.byte		v058
	.byte	BEND	, c_v+34
	.byte	W01
	.byte	VOL	, v057
	.byte	W01
	.byte		v056
	.byte	W01
	.byte		v055
	.byte	BEND	, c_v+36
	.byte	W01
	.byte	VOL	, v054
	.byte	W01
	.byte		v052
	.byte	W01
	.byte		v051
	.byte	BEND	, c_v+38
	.byte	W01
	.byte	VOL	, v050
	.byte	W01
	.byte		v049
	.byte	W01
	.byte		v048
	.byte	BEND	, c_v+41
	.byte	W01
	.byte	VOL	, v046
	.byte	W01
	.byte		v045
	.byte	W01
	.byte		v044
	.byte	BEND	, c_v+43
	.byte	W01
	.byte	VOL	, v043
	.byte	W01
	.byte		v042
	.byte	W01
	.byte		v041
	.byte	BEND	, c_v+45
	.byte	W01
	.byte	VOL	, v040
	.byte	W01
	.byte		v039
	.byte	W01
	.byte		v038
	.byte	BEND	, c_v+47
	.byte	W01
	.byte	VOL	, v036
	.byte	W01
	.byte		v035
	.byte	W01
	.byte		v034
	.byte	BEND	, c_v+50
	.byte	W01
	.byte	VOL	, v033
	.byte	W01
	.byte		v031
	.byte	W01
	.byte		v030
	.byte	BEND	, c_v+52
	.byte	W01
	.byte	VOL	, v029
	.byte	W01
	.byte		v028
	.byte	W01
	.byte		v027
	.byte	BEND	, c_v+54
	.byte	W01
	.byte	VOL	, v025
	.byte	W01
	.byte		v024
	.byte	W01
	.byte		v023
	.byte	BEND	, c_v+57
	.byte	W01
	.byte	VOL	, v022
	.byte	W01
	.byte		v020
	.byte	W01
	.byte		v019
	.byte	BEND	, c_v+59
	.byte	W01
	.byte	VOL	, v018
	.byte	W01
	.byte		v017
	.byte	W01
	.byte		v016
	.byte	BEND	, c_v+61
	.byte	W01
	.byte	VOL	, v014
	.byte	W01
	.byte		v014
	.byte	BEND	, c_v+63
	.byte	W01
	.byte	VOL	, v013
	.byte	W01
	.byte		v012
	.byte	W01
	.byte		v010
	.byte	W01
	.byte		v009
	.byte	W01
	.byte		v008
	.byte	W01
	.byte		v007
	.byte	W01
	.byte		v006
	.byte	W01
	.byte		v004
	.byte	W01
	.byte		v003
	.byte	W01
	.byte		v002
	.byte	W01
	.byte		v001
	.byte	W01
	.byte		v000
	.byte	W02
	.byte	FINE

	@********************** Track  3 **********************@

	.global song981_3
song981_3:	@ 0x085871CE
	.byte	KEYSH	, 0
	.byte	VOICE	, 82
	.byte	VOL	, v011
	.byte	BEND	, c_v+57
	.byte	W01
	.byte	VOL	, v013
	.byte	W01
	.byte		v014
	.byte	W01
	.byte		v015
	.byte	W01
	.byte		v017
	.byte	W01
	.byte		v019
	.byte	W01
	.byte		v020
	.byte	W01
	.byte		v022
	.byte	W01
	.byte		v023
	.byte	W01
	.byte		v025
	.byte	BEND	, c_v+56
	.byte	W01
	.byte	VOL	, v027
	.byte	W01
	.byte		v028
	.byte	W01
	.byte		v030
	.byte	W01
	.byte		v031
	.byte	BEND	, c_v+55
	.byte	W01
	.byte	VOL	, v033
	.byte	W01
	.byte		v035
	.byte	W01
	.byte		v036
	.byte	W01
	.byte		v038
	.byte	W01
	.byte		v039
	.byte	BEND	, c_v+54
	.byte	W01
	.byte	VOL	, v041
	.byte	W01
	.byte		v042
	.byte	W01
	.byte		v044
	.byte	W01
	.byte		v046
	.byte	BEND	, c_v+53
	.byte	W01
	.byte	VOL	, v047
	.byte	W01
	.byte		v049
	.byte	W01
	.byte		v050
	.byte	W01
	.byte		v052
	.byte	W01
	.byte		v054
	.byte	BEND	, c_v+52
	.byte	W01
	.byte	VOL	, v055
	.byte	W01
	.byte		v056
	.byte	W01
	.byte		v058
	.byte	W01
	.byte		v060
	.byte	W01
	.byte		v061
	.byte	BEND	, c_v+51
	.byte	W01
	.byte	VOL	, v063
	.byte	W01
	.byte		v065
	.byte	W01
	.byte		v066
	.byte	W01
	.byte		v068
	.byte	BEND	, c_v+50
	.byte	W01
	.byte	VOL	, v070
	.byte	W02
	.byte		v069
	.byte	W01
	.byte		v068
	.byte	W01
	.byte		v068
	.byte	BEND	, c_v+49
	.byte	W01
	.byte	VOL	, v067
	.byte	W01
	.byte		v067
	.byte	W01
	.byte		v066
	.byte	W01
	.byte		v066
	.byte	BEND	, c_v+48
	.byte	W01
	.byte	VOL	, v065
	.byte	W01
	.byte		v065
	.byte	W01
	.byte		v064
	.byte	W01
	.byte		v063
	.byte	W01
	.byte		v063
	.byte	BEND	, c_v+47
	.byte	W01
	.byte	VOL	, v062
	.byte	W01
	.byte		v062
	.byte	W01
	.byte		v061
	.byte	W01
	.byte		v061
	.byte	BEND	, c_v+46
	.byte	W01
	.byte	VOL	, v060
	.byte	W01
	.byte		v060
	.byte	W01
	.byte		v059
	.byte	W01
	.byte		v058
	.byte	W01
	.byte		v058
	.byte	BEND	, c_v+45
	.byte	W01
	.byte	VOL	, v057
	.byte	W01
	.byte		v057
	.byte	W01
	.byte		v056
	.byte	W01
	.byte		v056
	.byte	W01
	.byte		v055
	.byte	BEND	, c_v+44
	.byte	W01
	.byte	VOL	, v055
	.byte	W01
	.byte		v054
	.byte	W01
	.byte		v054
	.byte	W01
	.byte		v053
	.byte	BEND	, c_v+43
	.byte	W01
	.byte	VOL	, v052
	.byte	W01
	.byte		v051
	.byte	W01
	.byte		v051
	.byte	W01
	.byte		v050
	.byte	W01
	.byte		v050
	.byte	BEND	, c_v+42
	.byte	W01
	.byte	VOL	, v049
	.byte	W01
	.byte		v049
	.byte	W01
	.byte		v048
	.byte	W01
	.byte		v047
	.byte	BEND	, c_v+41
	.byte	W01
	.byte	VOL	, v047
	.byte	W01
	.byte		v046
	.byte	W01
	.byte		v046
	.byte	W01
	.byte		v045
	.byte	W01
	.byte		v045
	.byte	BEND	, c_v+40
	.byte	W01
	.byte	VOL	, v044
	.byte	W01
	.byte		v044
	.byte	W01
	.byte		v043
	.byte	W01
	.byte		v042
	.byte	BEND	, c_v+39
	.byte	W01
	.byte	VOL	, v042
	.byte	W01
	.byte		v041
	.byte	W01
	.byte		v041
	.byte	W01
	.byte		v040
	.byte	W01
	.byte		v040
	.byte	BEND	, c_v+38
	.byte	W01
	.byte	VOL	, v039
	.byte	W01
	.byte		v039
	.byte	W01
	.byte		v038
	.byte	W01
	.byte		v038
	.byte	W01
	.byte		v037
	.byte	BEND	, c_v+37
	.byte	W01
	.byte	VOL	, v036
	.byte	W01
	.byte		v036
	.byte	W01
	.byte		v035
	.byte	W01
	.byte		v035
	.byte	BEND	, c_v+36
	.byte	W01
	.byte	VOL	, v034
	.byte	W01
	.byte		v034
	.byte	W01
	.byte		v033
	.byte	W01
	.byte		v033
	.byte	W01
	.byte		v032
	.byte	BEND	, c_v+35
	.byte	W01
	.byte	VOL	, v031
	.byte	W01
	.byte		v031
	.byte	W01
	.byte		v030
	.byte	W01
	.byte		v029
	.byte	BEND	, c_v+34
	.byte	W01
	.byte	VOL	, v029
	.byte	W01
	.byte		v028
	.byte	W01
	.byte		v028
	.byte	W01
	.byte		v027
	.byte	W01
	.byte		v027
	.byte	BEND	, c_v+33
	.byte	W02
	.byte	VOL	, v026
	.byte	W01
	.byte		v025
	.byte	W01
	.byte		v025
	.byte	BEND	, c_v+32
	.byte	W01
	.byte	VOL	, v024
	.byte	W01
	.byte		v024
	.byte	W01
	.byte		v023
	.byte	W01
	.byte		v023
	.byte	W01
	.byte		v022
	.byte	BEND	, c_v+31
	.byte	W01
	.byte	VOL	, v022
	.byte	W01
	.byte		v021
	.byte	W01
	.byte		v020
	.byte	W01
	.byte		v020
	.byte	W01
	.byte		v019
	.byte	BEND	, c_v+30
	.byte	W01
	.byte	VOL	, v019
	.byte	W01
	.byte		v018
	.byte	W01
	.byte		v018
	.byte	W01
	.byte		v017
	.byte	BEND	, c_v+29
	.byte	W01
	.byte	VOL	, v017
	.byte	W01
	.byte		v016
	.byte	W01
	.byte		v015
	.byte	W01
	.byte		v015
	.byte	W01
	.byte		v014
	.byte	BEND	, c_v+28
	.byte	W01
	.byte	VOL	, v014
	.byte	W01
	.byte		v013
	.byte	W01
	.byte		v013
	.byte	W01
	.byte		v012
	.byte	BEND	, c_v+27
	.byte	W01
	.byte	VOL	, v012
	.byte	W01
	.byte		v011
	.byte	W01
	.byte		v011
	.byte	W01
	.byte		v010
	.byte	W01
	.byte		v009
	.byte	BEND	, c_v+26
	.byte	W01
	.byte	VOL	, v008
	.byte	W01
	.byte		v008
	.byte	W01
	.byte		v007
	.byte	W01
	.byte		v007
	.byte	BEND	, c_v+25
	.byte	W01
	.byte	VOL	, v006
	.byte	W01
	.byte		v006
	.byte	W01
	.byte		v005
	.byte	W01
	.byte		v004
	.byte	W01
	.byte		v004
	.byte	BEND	, c_v+24
	.byte	W01
	.byte	VOL	, v003
	.byte	W01
	.byte		v003
	.byte	W01
	.byte		v002
	.byte	W01
	.byte		v002
	.byte	W01
	.byte		v001
	.byte	BEND	, c_v+23
	.byte	W01
	.byte	VOL	, v001
	.byte	W01
	.byte		v000
	.byte	W01
	.byte		v001
	.byte	W01
	.byte		v002
	.byte	BEND	, c_v+22
	.byte	W01
	.byte	VOL	, v004
	.byte	BEND	, c_v+21
	.byte	W01
	.byte	VOL	, v006
	.byte	BEND	, c_v+19
	.byte	W01
	.byte	VOL	, v007
	.byte	W01
	.byte		v009
	.byte	BEND	, c_v+16
	.byte		N96	, Fn3, v127
	.byte	W01
	.byte	VOL	, v011
	.byte	BEND	, c_v+13
	.byte	W01
	.byte	VOL	, v013
	.byte	W01
	.byte		v014
	.byte	BEND	, c_v+10
	.byte	W01
	.byte	VOL	, v017
	.byte	BEND	, c_v+8
	.byte	W01
	.byte	VOL	, v018
	.byte	W01
	.byte		v020
	.byte	BEND	, c_v+5
	.byte	W01
	.byte	VOL	, v022
	.byte	BEND	, c_v+2
	.byte	W01
	.byte	VOL	, v023
	.byte	W01
	.byte		v025
	.byte	BEND	, c_v-1
	.byte	W01
	.byte	VOL	, v027
	.byte	BEND	, c_v-4
	.byte	W01
	.byte	VOL	, v029
	.byte	W01
	.byte		v030
	.byte	BEND	, c_v-6
	.byte	W01
	.byte	VOL	, v033
	.byte	BEND	, c_v-9
	.byte	W01
	.byte	VOL	, v034
	.byte	W01
	.byte		v036
	.byte	BEND	, c_v-12
	.byte	W01
	.byte	VOL	, v038
	.byte	BEND	, c_v-15
	.byte	W01
	.byte	VOL	, v039
	.byte	W01
	.byte		v041
	.byte	BEND	, c_v-17
	.byte	W01
	.byte	VOL	, v043
	.byte	BEND	, c_v-20
	.byte	W01
	.byte	VOL	, v045
	.byte	W01
	.byte		v047
	.byte	BEND	, c_v-23
	.byte	W01
	.byte	VOL	, v049
	.byte	BEND	, c_v-26
	.byte	W01
	.byte	VOL	, v050
	.byte	W01
	.byte		v052
	.byte	BEND	, c_v-29
	.byte	W01
	.byte	VOL	, v054
	.byte	W01
	.byte		v055
	.byte	W01
	.byte		v057
	.byte	W01
	.byte		v060
	.byte	W01
	.byte		v061
	.byte	W01
	.byte		v063
	.byte	W01
	.byte		v065
	.byte	W01
	.byte		v066
	.byte	W01
	.byte		v068
	.byte	W01
	.byte		v069
	.byte	W01
	.byte		v068
	.byte	W01
	.byte		v066
	.byte	W01
	.byte		v065
	.byte	W01
	.byte		v063
	.byte	W01
	.byte		v061
	.byte	W01
	.byte		v060
	.byte	W01
	.byte		v058
	.byte	W01
	.byte		v056
	.byte	W01
	.byte		v055
	.byte	W01
	.byte		v054
	.byte	W01
	.byte		v051
	.byte	W01
	.byte		v050
	.byte	W01
	.byte		v049
	.byte	W01
	.byte		v046
	.byte	W01
	.byte		v045
	.byte	W01
	.byte		v044
	.byte	W01
	.byte		v041
	.byte	W01
	.byte		v040
	.byte	W01
	.byte		v039
	.byte	W01
	.byte		v037
	.byte	W01
	.byte		v035
	.byte	W01
	.byte		v034
	.byte	W01
	.byte		v032
	.byte	W01
	.byte		v030
	.byte	W01
	.byte		v029
	.byte	W01
	.byte		v027
	.byte	W01
	.byte		v025
	.byte	W01
	.byte		v024
	.byte	W01
	.byte		v022
	.byte	W01
	.byte		v020
	.byte	W01
	.byte		v019
	.byte	W01
	.byte		v017
	.byte	W01
	.byte		v015
	.byte	W01
	.byte		v014
	.byte	W01
	.byte		v012
	.byte	W01
	.byte		v011
	.byte	W01
	.byte		v009
	.byte	W01
	.byte		v007
	.byte	W01
	.byte		v006
	.byte	W01
	.byte		v004
	.byte	W01
	.byte		v002
	.byte	W01
	.byte		v001
	.byte	W01
	.byte		v000
	.byte	W19
	.byte	FINE

	@********************** Track  4 **********************@

	.global song981_4
song981_4:	@ 0x08587464
	.byte	KEYSH	, 0
	.byte	VOICE	, 41
	.byte	VOL	, v001
	.byte	BEND	, c_v
	.byte		TIE	, Cn2, v127
	.byte	W01
	.byte	VOL	, v003
	.byte	W01
	.byte		v005
	.byte	W01
	.byte		v007
	.byte	W01
	.byte		v010
	.byte	W01
	.byte		v012
	.byte	W01
	.byte		v014
	.byte	W01
	.byte		v017
	.byte	W01
	.byte		v018
	.byte	W01
	.byte		v020
	.byte	W01
	.byte		v023
	.byte	W01
	.byte		v024
	.byte	W01
	.byte		v027
	.byte	W01
	.byte		v029
	.byte	W01
	.byte		v031
	.byte	W01
	.byte		v034
	.byte	W01
	.byte		v036
	.byte	W01
	.byte		v038
	.byte	W01
	.byte		v040
	.byte	W01
	.byte		v042
	.byte	W01
	.byte		v044
	.byte	W01
	.byte		v047
	.byte	W01
	.byte		v049
	.byte	W01
	.byte		v051
	.byte	W01
	.byte		v053
	.byte	W01
	.byte		v056
	.byte	W01
	.byte		v057
	.byte	W01
	.byte		v060
	.byte	W01
	.byte		v062
	.byte	W01
	.byte		v064
	.byte	W01
	.byte		v066
	.byte	W01
	.byte		v069
	.byte	W01
	.byte		v070
	.byte	W64
	.byte	W01
	.byte		v070
	.byte	W01
	.byte		v069
	.byte	W01
	.byte		v068
	.byte	W01
	.byte		v067
	.byte	W01
	.byte		v066
	.byte	W01
	.byte		v065
	.byte	W01
	.byte		v063
	.byte	W01
	.byte		v062
	.byte	W01
	.byte		v061
	.byte	W01
	.byte		v060
	.byte	W01
	.byte		v059
	.byte	W01
	.byte		v058
	.byte	W01
	.byte		v057
	.byte	W01
	.byte		v056
	.byte	W01
	.byte		v055
	.byte	W01
	.byte		v054
	.byte	W01
	.byte		v052
	.byte	W01
	.byte		v051
	.byte	W01
	.byte		v051
	.byte	W01
	.byte		v050
	.byte	W01
	.byte		v049
	.byte	W01
	.byte		v047
	.byte	W01
	.byte		v046
	.byte	W01
	.byte		v045
	.byte	W01
	.byte		v044
	.byte	W01
	.byte		v043
	.byte	W01
	.byte		v042
	.byte	W01
	.byte		v041
	.byte	W01
	.byte		v040
	.byte	W01
	.byte		v039
	.byte	W01
	.byte		v038
	.byte	W01
	.byte		v036
	.byte	W01
	.byte		v035
	.byte	W01
	.byte		v034
	.byte	W01
	.byte		v033
	.byte	W01
	.byte		v033
	.byte	W01
	.byte		v031
	.byte	W01
	.byte		v030
	.byte	W01
	.byte		v029
	.byte	W01
	.byte		v028
	.byte	W01
	.byte		v027
	.byte	W01
	.byte		v026
	.byte	W01
	.byte		v025
	.byte	W01
	.byte		v024
	.byte	W01
	.byte		v023
	.byte	W01
	.byte		v022
	.byte	W01
	.byte		v020
	.byte	W01
	.byte		v019
	.byte	W01
	.byte		v018
	.byte	W01
	.byte		v017
	.byte	W01
	.byte		v016
	.byte	W01
	.byte		v015
	.byte	W01
	.byte		v014
	.byte	W01
	.byte		v013
	.byte	W01
	.byte		v012
	.byte	W01
	.byte		v011
	.byte	W01
	.byte		v010
	.byte	W01
	.byte		v009
	.byte	W01
	.byte		v008
	.byte	W01
	.byte		v007
	.byte	W01
	.byte		v006
	.byte	W01
	.byte		v004
	.byte	W01
	.byte		v003
	.byte	W01
	.byte		v002
	.byte	W01
	.byte		v001
	.byte	W01
	.byte		v000
	.byte	W01
	.byte		v003
	.byte	W01
	.byte		v008
	.byte	W01
	.byte		v013
	.byte	W01
	.byte		v017
	.byte	W01
	.byte		v022
	.byte	W01
	.byte		v027
	.byte	W01
	.byte		v031
	.byte	W01
	.byte		v036
	.byte	W01
	.byte		v041
	.byte	W01
	.byte		v045
	.byte	W01
	.byte		v050
	.byte	W01
	.byte		v055
	.byte	W01
	.byte		v058
	.byte	W01
	.byte		v064
	.byte	W01
	.byte		v070
	.byte	W02
	.byte		v068
	.byte	W01
	.byte		v068
	.byte	W01
	.byte		v067
	.byte	W01
	.byte		v066
	.byte	W01
	.byte		v065
	.byte	W01
	.byte		v065
	.byte	W01
	.byte		v064
	.byte	W01
	.byte		v063
	.byte	W01
	.byte		v062
	.byte	W01
	.byte		v061
	.byte	W01
	.byte		v061
	.byte	W01
	.byte		v060
	.byte	W01
	.byte		v059
	.byte	W01
	.byte		v058
	.byte	W01
	.byte		v057
	.byte	W01
	.byte		v056
	.byte	W01
	.byte		v056
	.byte	W01
	.byte		v055
	.byte	W01
	.byte		v054
	.byte	W01
	.byte		v053
	.byte	W01
	.byte		v052
	.byte	W01
	.byte		v051
	.byte	W01
	.byte		v051
	.byte	W01
	.byte		v050
	.byte	W01
	.byte		v049
	.byte	W01
	.byte		v048
	.byte	W01
	.byte		v047
	.byte	W01
	.byte		v046
	.byte	W01
	.byte		v046
	.byte	W01
	.byte		v045
	.byte	W01
	.byte		v044
	.byte	W01
	.byte		v043
	.byte	W01
	.byte		v042
	.byte	W01
	.byte		v042
	.byte	W01
	.byte		v041
	.byte	W01
	.byte		v040
	.byte	W01
	.byte		v040
	.byte	W01
	.byte		v039
	.byte	W01
	.byte		v038
	.byte	W01
	.byte		v038
	.byte	W01
	.byte		v036
	.byte	W01
	.byte		v036
	.byte	W01
	.byte		v035
	.byte	W01
	.byte		v034
	.byte	W01
	.byte		v033
	.byte	W01
	.byte		v033
	.byte	W01
	.byte		v031
	.byte	W01
	.byte		v031
	.byte	W01
	.byte		v030
	.byte	W01
	.byte		v029
	.byte	W01
	.byte		v028
	.byte	W01
	.byte		v028
	.byte	W01
	.byte		v027
	.byte	W01
	.byte		v026
	.byte	W01
	.byte		v025
	.byte	W01
	.byte		v024
	.byte	W01
	.byte		v023
	.byte	W01
	.byte		v023
	.byte	W01
	.byte		v022
	.byte	W01
	.byte		v021
	.byte	W01
	.byte		v020
	.byte	W01
	.byte		v019
	.byte	W01
	.byte		v019
	.byte	W01
	.byte		v018
	.byte	W01
	.byte		v017
	.byte	W01
	.byte		v016
	.byte	W01
	.byte		v015
	.byte	W01
	.byte		v014
	.byte	W01
	.byte		v014
	.byte	W01
	.byte		v013
	.byte	W01
	.byte		v012
	.byte	W01
	.byte		v011
	.byte	W01
	.byte		v011
	.byte	W01
	.byte		v010
	.byte	W01
	.byte		v009
	.byte	W01
	.byte		v008
	.byte	W01
	.byte		v008
	.byte	W01
	.byte		v007
	.byte	W01
	.byte		v006
	.byte	W01
	.byte		v005
	.byte	W01
	.byte		v004
	.byte	W01
	.byte		v003
	.byte	W01
	.byte		v003
	.byte	W01
	.byte		v002
	.byte	W01
	.byte		v001
	.byte	W01
	.byte		EOT	
	.byte	VOL	, v000
	.byte	W01
	.byte		v000
	.byte	FINE

	.align 2
	.global song981
song981:	@ 0x08587604
	.byte	4		@ trackCount
	.byte	0		@ blockCount
	.byte	20		@ priority
	.byte	0		@ reverb

	.word	voicegroup038		@ voicegroup/tone

	.word	song981_1		@ track
	.word	song981_2		@ track
	.word	song981_3		@ track
	.word	song981_4		@ track
